<svg xmlns:xlink="http://www.w3.org/1999/xlink" xmlns="http://www.w3.org/2000/svg" class="sg-subject-icon sg-subject-icon--small sg-subject-icon--icon-gray-70 brn-subject-list__icon" aria-labelledby="sg-math-symbol-icon-administration-title-doglf" role="img" width="512"  height="512" ><defs><symbol viewBox="0 0 512 512" style="overflow: visible" id="icon-subject-mono-administration" xmlns="http://www.w3.org/2000/svg"><path d="M458.068 285.572a47.984 47.984 0 0 1 8.492 24.614c.46 3.265.866 6.536 1.22 9.813H44.283a306.9 306.9 0 0 1 1.157-9.173 47.996 47.996 0 0 1 28.587-41.173 61.207 61.207 0 0 1 18.773-1.92h49.92a163.433 163.433 0 0 0 45.654 0c22.4-7.467 20.906-41.814 14.506-59.094A83.396 83.396 0 0 0 192 187.306a103.034 103.034 0 0 1-15.272-64.537 103.034 103.034 0 0 1 27.219-60.476A85.334 85.334 0 0 1 256 42.666a85.337 85.337 0 0 1 52.054 18.987 103.039 103.039 0 0 1 12.16 125.013 83.396 83.396 0 0 0-10.88 21.333c-6.827 16.427-6.827 51.627 14.506 59.094a163.433 163.433 0 0 0 45.654 0H419.2a61.21 61.21 0 0 1 18.774 1.92 47.987 47.987 0 0 1 20.094 16.559zM42.667 362.666v37.333c0 26.667 33.493 48 74.453 48a93.014 93.014 0 0 0 60.374-21.333 20.05 20.05 0 0 1 27.733 1.067A73.173 73.173 0 0 0 256 447.999a73.386 73.386 0 0 0 50.774-18.56 20.056 20.056 0 0 1 27.733-1.066 92.8 92.8 0 0 0 60.16 19.626c41.173 0 74.667-21.333 74.667-48v-37.333H42.667z"></path></symbol></defs><text id="sg-math-symbol-icon-administration-title-doglf" visibility="hidden" fill="#323C45">administration</text><use xlink:href="#icon-subject-mono-administration" aria-hidden="true" fill="#323C45"></use></svg>