<svg xmlns:xlink="http://www.w3.org/1999/xlink" xmlns="http://www.w3.org/2000/svg" class="sg-subject-icon sg-subject-icon--small sg-subject-icon--icon-gray-70 brn-subject-list__icon brn-subject-list__icon--hidden" aria-labelledby="sg-math-symbol-icon-all-title-1m00s" role="img" width="512"  height="512" ><defs><symbol viewBox="0 0 512 512" style="overflow: visible" id="icon-subject-mono-all" xmlns="http://www.w3.org/2000/svg"><path d="M159.47 112c0 26.51-21.372 48-47.735 48S64 138.51 64 112s21.372-48 47.735-48 47.735 21.49 47.735 48zM159.47 261.333c0 26.51-21.372 48-47.735 48S64 287.843 64 261.333c0-26.509 21.372-48 47.735-48s47.735 21.491 47.735 48zM111.735 448c26.363 0 47.735-21.49 47.735-48s-21.372-48-47.735-48S64 373.49 64 400s21.372 48 47.735 48zM302.674 112c0 26.51-21.371 48-47.735 48-26.363 0-47.734-21.49-47.734-48s21.371-48 47.734-48c26.364 0 47.735 21.49 47.735 48zM254.939 309.333c26.364 0 47.735-21.49 47.735-48 0-26.509-21.371-48-47.735-48-26.363 0-47.734 21.491-47.734 48 0 26.51 21.371 48 47.734 48zM302.674 400c0 26.51-21.371 48-47.735 48-26.363 0-47.734-21.49-47.734-48s21.371-48 47.734-48c26.364 0 47.735 21.49 47.735 48zM400.265 160C426.628 160 448 138.51 448 112s-21.372-48-47.735-48-47.735 21.49-47.735 48 21.372 48 47.735 48zM448 261.333c0 26.51-21.372 48-47.735 48s-47.735-21.49-47.735-48c0-26.509 21.372-48 47.735-48s47.735 21.491 47.735 48zM400.265 448C426.628 448 448 426.51 448 400s-21.372-48-47.735-48-47.735 21.49-47.735 48 21.372 48 47.735 48z"></path></symbol></defs><text id="sg-math-symbol-icon-all-title-1m00s" visibility="hidden" fill="#323C45">all</text><use xlink:href="#icon-subject-mono-all" aria-hidden="true" fill="#323C45"></use></svg>