<svg xmlns:xlink="http://www.w3.org/1999/xlink" xmlns="http://www.w3.org/2000/svg" class="sg-subject-icon sg-subject-icon--small sg-subject-icon--icon-gray-70 brn-subject-list__icon" aria-labelledby="sg-math-symbol-icon-art-title-0ygacl" role="img" width="512"  height="512" ><defs><symbol viewBox="0 0 512 512" style="overflow: visible" id="icon-subject-mono-art" xmlns="http://www.w3.org/2000/svg"><path fill-rule="evenodd" clip-rule="evenodd" d="M104.381 106.108a213.853 213.853 0 0 1 144.82-63.329c28.078-.841 55.832 2.998 82.094 12.96a213.928 213.928 0 0 1 70.754 44.245 213.785 213.785 0 0 1 48.427 67.941 213.711 213.711 0 0 1 4.91 163.562 213.8 213.8 0 0 1-44.266 70.721 213.924 213.924 0 0 1-67.973 48.405 213.996 213.996 0 0 1-81.331 18.721h-2.138a44.047 44.047 0 0 1-33.441-16.044 43.998 43.998 0 0 1-9.32-35.886 85.48 85.48 0 0 0 0-21.371 81.626 81.626 0 0 0-23.473-48.487 81.695 81.695 0 0 0-48.579-23.318 83.42 83.42 0 0 0-38.057 5.129 44.28 44.28 0 0 1-37.708-1.819 44.25 44.25 0 0 1-22.585-30.236 228.995 228.995 0 0 1-3.849-45.733 213.657 213.657 0 0 1 61.715-145.461zm15.861 133.087a39.784 39.784 0 0 0 22.057 6.818l.214.213a39.779 39.779 0 0 0 28.12-11.642 39.74 39.74 0 0 0 11.648-28.107 39.735 39.735 0 0 0-6.584-22.119 39.774 39.774 0 0 0-40.732-17.12 39.776 39.776 0 0 0-20.42 10.769 39.727 39.727 0 0 0-8.853 43.27 39.747 39.747 0 0 0 14.55 17.918zm260.021-81.442c0 21.952-17.805 39.749-39.768 39.749s-39.768-17.797-39.768-39.749c0-21.953 17.805-39.749 39.768-39.749s39.768 17.796 39.768 39.749zm42.335 109.63c0 21.953-17.804 39.749-39.768 39.749-21.963 0-39.767-17.796-39.767-39.749 0-21.953 17.804-39.749 39.767-39.749 21.964 0 39.768 17.796 39.768 39.749zM320.185 408.641c21.963 0 39.767-17.796 39.767-39.749 0-21.952-17.804-39.749-39.767-39.749-21.963 0-39.768 17.797-39.768 39.749 0 21.953 17.805 39.749 39.768 39.749z"></path></symbol></defs><text id="sg-math-symbol-icon-art-title-0ygacl" visibility="hidden" fill="#323C45">art</text><use xlink:href="#icon-subject-mono-art" aria-hidden="true" fill="#323C45"></use></svg>