<svg xmlns:xlink="http://www.w3.org/1999/xlink" xmlns="http://www.w3.org/2000/svg" class="sg-subject-icon sg-subject-icon--small sg-subject-icon--icon-gray-70 brn-subject-list__icon" aria-labelledby="sg-math-symbol-icon-biology-title-deadpb" role="img" width="512"  height="512" ><defs><symbol viewBox="0 0 512 512" style="overflow: visible" id="icon-subject-mono-biology" xmlns="http://www.w3.org/2000/svg"><path d="M405.333 252.648c0 67.763-58.315 123.605-133.333 130.627v-35.283l59.314-59.294c6.248-6.247 6.248-16.374 0-22.621-6.249-6.246-16.379-6.246-22.628 0L272 302.752v-40.066l37.98-37.968c6.249-6.246 6.249-16.374 0-22.62-6.248-6.247-16.379-6.247-22.627 0L272 217.446v-52.023a15.995 15.995 0 0 0-16-15.995 15.995 15.995 0 0 0-16 15.995v52.023l-15.353-15.348c-6.248-6.247-16.379-6.247-22.627 0-6.249 6.246-6.249 16.374 0 22.62L240 262.686v40.066l-36.686-36.675c-6.249-6.246-16.379-6.246-22.628 0-6.248 6.247-6.248 16.374 0 22.621L240 347.992v35.283c-75.018-7.022-133.333-62.864-133.333-130.627 0-58.221 96-163.787 133.973-203.455a21.333 21.333 0 0 1 23.705-4.827 21.333 21.333 0 0 1 7.015 4.827c37.973 39.668 133.973 145.234 133.973 203.455z"></path><path d="M271.5 382.777c-.32-.246-.754-.384-1.207-.384h-28.586c-.453 0-.887.138-1.207.384-.32.246-.5.58-.5.928v51.994c0 3.262 1.686 6.391 4.686 8.698C247.687 446.704 251.757 448 256 448c4.244 0 8.313-1.296 11.314-3.603 3-2.307 4.686-5.436 4.686-8.698v-51.994c0-.348-.18-.682-.5-.928z"></path></symbol></defs><text id="sg-math-symbol-icon-biology-title-deadpb" visibility="hidden" fill="#323C45">biology</text><use xlink:href="#icon-subject-mono-biology" aria-hidden="true" fill="#323C45"></use></svg>