<svg xmlns:xlink="http://www.w3.org/1999/xlink" xmlns="http://www.w3.org/2000/svg" class="sg-subject-icon sg-subject-icon--small sg-subject-icon--icon-gray-70 brn-subject-list__icon" aria-labelledby="sg-math-symbol-icon-chemistry-title-yg421r" role="img" width="512"  height="512" ><defs><symbol viewBox="0 0 512 512" style="overflow: visible" id="icon-subject-mono-chemistry" xmlns="http://www.w3.org/2000/svg"><path fill-rule="evenodd" clip-rule="evenodd" d="M332.782 164.273l6.4 3.627a166.824 166.824 0 0 1 78.08 149.546 166.4 166.4 0 0 1-97.066 138.667 165.122 165.122 0 0 1-64 13.227 166.608 166.608 0 0 1-64-13.227 166.401 166.401 0 0 1-97.494-138.88A166.823 166.823 0 0 1 173.636 167.9l6.4-3.627a69.978 69.978 0 0 0 21.333-16.213 29.168 29.168 0 0 0 2.773-4.267 46.286 46.286 0 0 0 2.347-19.413 40.749 40.749 0 0 0-7.893-26.24l-2.774-2.987a26.027 26.027 0 0 1-9.813-22.827 10.024 10.024 0 0 1 9.813-8.32h120.747a10.027 10.027 0 0 1 10.24 8.32 26.025 26.025 0 0 1-9.813 22.827l-2.561 2.773a40.75 40.75 0 0 0-8.106 26.454 44.582 44.582 0 0 0 2.56 19.626 21.33 21.33 0 0 0 2.56 4.054 69.978 69.978 0 0 0 21.333 16.213zM207.555 423.046a123.742 123.742 0 0 0 48.64 10.027 125.66 125.66 0 0 0 49.28-10.027 126.504 126.504 0 0 0 74.24-106.667c.54-8.032-6.253-14.293-14.304-14.293H147.833c-8.051 0-14.844 6.261-14.304 14.293a127.993 127.993 0 0 0 74.026 106.667z"></path></symbol></defs><text id="sg-math-symbol-icon-chemistry-title-yg421r" visibility="hidden" fill="#323C45">chemistry</text><use xlink:href="#icon-subject-mono-chemistry" aria-hidden="true" fill="#323C45"></use></svg>