<svg xmlns:xlink="http://www.w3.org/1999/xlink" xmlns="http://www.w3.org/2000/svg" class="sg-subject-icon sg-subject-icon--small sg-subject-icon--icon-gray-70 brn-subject-list__icon" aria-labelledby="sg-math-symbol-icon-accountancy-title-g90nrg" role="img" width="512"  height="512" ><defs><symbol viewBox="0 0 512 512" style="overflow: visible" id="icon-subject-mono-accountancy" xmlns="http://www.w3.org/2000/svg"><path fill-rule="evenodd" clip-rule="evenodd" d="M85.333 64C73.551 64 64 73.551 64 85.333v341.334C64 438.449 73.551 448 85.333 448h341.334c11.782 0 21.333-9.551 21.333-21.333V85.333C448 73.551 438.449 64 426.667 64H85.333zm21.334 85.333c0-23.564 19.102-42.666 42.666-42.666h213.334c23.564 0 42.666 19.102 42.666 42.666 0 23.564-19.102 42.667-42.666 42.667H149.333c-23.564 0-42.666-19.103-42.666-42.667zm42.666 117.334c0-11.782 9.552-21.334 21.334-21.334S192 254.885 192 266.667V288h21.333c11.782 0 21.334 9.551 21.334 21.333 0 11.782-9.552 21.334-21.334 21.334H192V352c0 11.782-9.551 21.333-21.333 21.333-11.782 0-21.334-9.551-21.334-21.333v-21.333H128c-11.782 0-21.333-9.552-21.333-21.334S116.218 288 128 288h21.333v-21.333zm179.2 4.266c0 14.139-11.461 25.6-25.6 25.6-14.138 0-25.6-11.461-25.6-25.6 0-14.138 11.462-25.6 25.6-25.6 14.139 0 25.6 11.462 25.6 25.6zm0 76.8c0 14.139-11.461 25.6-25.6 25.6-14.138 0-25.6-11.461-25.6-25.6 0-14.138 11.462-25.6 25.6-25.6 14.139 0 25.6 11.462 25.6 25.6zm51.2-51.2c14.139 0 25.6-11.461 25.6-25.6 0-14.138-11.461-25.6-25.6-25.6-14.138 0-25.6 11.462-25.6 25.6 0 14.139 11.462 25.6 25.6 25.6zm25.6 51.2c0 14.139-11.461 25.6-25.6 25.6-14.138 0-25.6-11.461-25.6-25.6 0-14.138 11.462-25.6 25.6-25.6 14.139 0 25.6 11.462 25.6 25.6z"></path></symbol></defs><text id="sg-math-symbol-icon-accountancy-title-g90nrg" visibility="hidden" fill="#323C45">accountancy</text><use xlink:href="#icon-subject-mono-accountancy" aria-hidden="true" fill="#323C45"></use></svg>