<svg xmlns:xlink="http://www.w3.org/1999/xlink" xmlns="http://www.w3.org/2000/svg" class="sg-subject-icon sg-subject-icon--small sg-subject-icon--icon-gray-70 brn-subject-list__icon" aria-labelledby="sg-math-symbol-icon-law-title-wrm0rf" role="img" width="512"  height="512" ><defs><symbol viewBox="0 0 512 512" style="overflow: visible" id="icon-subject-mono-law" xmlns="http://www.w3.org/2000/svg"><path d="M256 42.667A21.334 21.334 0 0 1 277.333 64v21.334h149.334c11.782 0 21.333 9.55 21.333 21.333 0 11.782-9.551 21.333-21.333 21.333H277.333v256H384a64 64 0 0 1 64 64H64a64.003 64.003 0 0 1 64-64h106.667V128H85.333C73.551 128 64 118.449 64 106.667c0-11.782 9.551-21.333 21.333-21.333h149.334V64A21.332 21.332 0 0 1 256 42.667z"></path><path d="M146.561 335.147a61.219 61.219 0 0 1-17.494 5.12 72.782 72.782 0 0 1-11.733 1.067 72.757 72.757 0 0 1-10.667 0 61.245 61.245 0 0 1-17.493-5.12 64.003 64.003 0 0 1-29.867-88.747l34.347-72.107a8.967 8.967 0 0 1 7.68-4.693h32a8.96 8.96 0 0 1 7.68 4.693l35.413 71.04a64.002 64.002 0 0 1-29.866 88.747zM408.533 340.267a64.044 64.044 0 0 0 18.134-5.333 66.125 66.125 0 0 0 35.677-65.051 66.134 66.134 0 0 0-7.517-24.976l-37.12-74.24H375.04l-37.547 75.307a66.144 66.144 0 0 0-4.615 51.017A66.127 66.127 0 0 0 366.08 336a62.261 62.261 0 0 0 17.92 5.334 65.092 65.092 0 0 0 24.533-1.067z"></path></symbol></defs><text id="sg-math-symbol-icon-law-title-wrm0rf" visibility="hidden" fill="#323C45">law</text><use xlink:href="#icon-subject-mono-law" aria-hidden="true" fill="#323C45"></use></svg>