<svg xmlns:xlink="http://www.w3.org/1999/xlink" xmlns="http://www.w3.org/2000/svg" class="sg-subject-icon sg-subject-icon--small sg-subject-icon--icon-gray-70 brn-subject-list__icon" aria-labelledby="sg-math-symbol-icon-physical-education-title-brhx9p" role="img" width="512"  height="512" ><defs><symbol viewBox="0 0 512 512" style="overflow: visible" id="icon-subject-mono-physical-education" xmlns="http://www.w3.org/2000/svg"><path d="M429.336 380.39c25.173-35.016 39.998-77.972 39.998-124.39 0-46.418-14.825-89.373-39.998-124.39C393.801 161.352 371.2 206.037 371.2 256c0 49.964 22.601 94.649 58.136 124.39z"></path><path d="M394.667 418.125C348.964 378.998 320 320.881 320 256s28.964-122.997 74.667-162.124C357.376 61.95 308.94 42.667 256 42.667 138.18 42.667 42.667 138.18 42.667 256c0 46.418 14.825 89.374 39.998 124.39C118.2 350.649 140.8 305.964 140.8 256c0-49.963-22.6-94.648-58.135-124.39a214.546 214.546 0 0 1 34.669-37.734C163.037 133.003 192 191.119 192 256s-28.963 122.998-74.666 162.125c37.291 31.926 85.727 51.209 138.666 51.209 52.94 0 101.376-19.283 138.667-51.209z"></path></symbol></defs><text id="sg-math-symbol-icon-physical-education-title-brhx9p" visibility="hidden" fill="#323C45">physical education</text><use xlink:href="#icon-subject-mono-physical-education" aria-hidden="true" fill="#323C45"></use></svg>