<svg xmlns:xlink="http://www.w3.org/1999/xlink" xmlns="http://www.w3.org/2000/svg" class="sg-subject-icon sg-subject-icon--small sg-subject-icon--icon-gray-70 brn-subject-list__icon" aria-labelledby="sg-math-symbol-icon-ethics-title-72zn1" role="img" width="512"  height="512" ><defs><symbol viewBox="0 0 512 512" style="overflow: visible" id="icon-subject-mono-ethics" xmlns="http://www.w3.org/2000/svg"><g fill-rule="evenodd" clip-rule="evenodd"><path d="M154.027 265.6L234.667 64H85.333A21.333 21.333 0 0 0 64 85.333v341.334A21.334 21.334 0 0 0 85.333 448h149.334V277.333H161.92a8.525 8.525 0 0 1-7.063-3.77 8.538 8.538 0 0 1-.83-7.963zM128 192a21.334 21.334 0 1 0 0-42.668A21.334 21.334 0 0 0 128 192z"></path><path d="M405.333 64h-128l-64 170.667h64V448h128A42.664 42.664 0 0 0 448 405.333V106.667A42.665 42.665 0 0 0 405.333 64zm-64 128a21.337 21.337 0 0 0 19.71-13.169 21.342 21.342 0 0 0 1.214-12.326 21.325 21.325 0 0 0-5.839-10.923 21.325 21.325 0 0 0-10.923-5.839A21.332 21.332 0 0 0 320 170.667a21.337 21.337 0 0 0 6.248 15.085c4.001 4 9.427 6.248 15.085 6.248z"></path></g></symbol></defs><text id="sg-math-symbol-icon-ethics-title-72zn1" visibility="hidden" fill="#323C45">ethics</text><use xlink:href="#icon-subject-mono-ethics" aria-hidden="true" fill="#323C45"></use></svg>