<svg xmlns:xlink="http://www.w3.org/1999/xlink" xmlns="http://www.w3.org/2000/svg" class="sg-subject-icon sg-subject-icon--small sg-subject-icon--icon-gray-70 brn-subject-list__icon" aria-labelledby="sg-math-symbol-icon-english-title-m9jd8e" role="img" width="512"  height="512" ><defs><symbol viewBox="0 0 512 512" style="overflow: visible" id="icon-subject-mono-english" xmlns="http://www.w3.org/2000/svg"><path fill-rule="evenodd" clip-rule="evenodd" d="M464.624 196.754a172.81 172.81 0 0 1 4.691 42.58 197.738 197.738 0 0 1-17.583 77.084 198.012 198.012 0 0 1-46.386 64.07 234.654 234.654 0 0 1-86.715 48.909 234.898 234.898 0 0 1-99.223 8.575 31.172 31.172 0 0 0-14.713 0 36.904 36.904 0 0 0-8.743 6.387 100.522 100.522 0 0 1-67.808 24.91 5.983 5.983 0 0 1-4.051-.852c-1.279-1.135-.853-2.649-.426-4.163.213-.757.426-1.514.426-2.224a227.324 227.324 0 0 0 13.22-39.6 24.658 24.658 0 0 0 0-17.032 27.064 27.064 0 0 0-9.595-8.729 159.184 159.184 0 0 1-16.419-12.561 197.716 197.716 0 0 1-65.675-114.542 189.193 189.193 0 0 1 0-66.638 170.185 170.185 0 0 1 26.227-61.103A216.995 216.995 0 0 1 175.27 56.664 229.123 229.123 0 0 1 365.898 71.78a202.072 202.072 0 0 1 62.223 52.359 201.702 201.702 0 0 1 36.503 72.615zM293.9 250.251v58.508c0 5.833-4.585 10.561-10.241 10.561h-16.385c-5.656 0-10.241-4.728-10.241-10.561V182.027c0-5.833 4.585-10.562 10.241-10.562h22.53c3.223 0 6.258 1.566 8.192 4.225l45.469 63.366c1.323 1.819 3.625 2.56 5.716 1.842 2.091-.719 3.501-2.737 3.501-5.01v-53.439c0-5.833 4.585-10.561 10.241-10.561h16.59c5.655 0 10.24 4.728 10.24 10.561v126.733c0 5.832-4.585 10.561-10.24 10.561h-20.482c-3.26-.05-6.302-1.697-8.192-4.436l-48.132-68.013c-1.359-1.488-3.428-2.033-5.312-1.401-1.885.633-3.246 2.33-3.495 4.358zm-123.913-43.934h52.638c5.655 0 10.24-4.729 10.24-10.561v-12.251c0-5.833-4.585-10.561-10.24-10.561h-84.384c-5.656 0-10.241 4.728-10.241 10.561v126.732c0 5.833 4.585 10.561 10.241 10.561h84.384c5.655 0 10.24-4.728 10.24-10.561v-12.25c0-5.833-4.585-10.561-10.24-10.561h-52.638c-15.566 0-15.361-30.205 0-30.205h30.722c5.735 0 20.482 0 20.482-5.281a37.867 37.867 0 0 0 0-12.039c0-5.217-9.994-4.707-16.727-4.364-1.445.073-2.741.139-3.755.139h-30.722c-14.132-1.056-14.132-29.148 0-29.359z"></path></symbol></defs><text id="sg-math-symbol-icon-english-title-m9jd8e" visibility="hidden" fill="#323C45">english</text><use xlink:href="#icon-subject-mono-english" aria-hidden="true" fill="#323C45"></use></svg>