<svg xmlns:xlink="http://www.w3.org/1999/xlink" xmlns="http://www.w3.org/2000/svg" class="sg-subject-icon sg-subject-icon--small sg-subject-icon--icon-gray-70 brn-subject-list__icon" aria-labelledby="sg-math-symbol-icon-spanish-title-j88jsv" role="img" width="512"  height="512" ><defs><symbol viewBox="0 0 512 512" style="overflow: visible" id="icon-subject-mono-spanish" xmlns="http://www.w3.org/2000/svg"><path fill-rule="evenodd" clip-rule="evenodd" d="M464.624 196.754a172.81 172.81 0 0 1 4.691 42.58 197.738 197.738 0 0 1-17.583 77.084 198.012 198.012 0 0 1-46.386 64.07 234.654 234.654 0 0 1-86.715 48.909 234.898 234.898 0 0 1-99.223 8.575 31.172 31.172 0 0 0-14.713 0 36.904 36.904 0 0 0-8.743 6.387 100.522 100.522 0 0 1-67.808 24.91 5.983 5.983 0 0 1-4.051-.852c-1.279-1.135-.853-2.649-.426-4.163.213-.757.426-1.514.426-2.224a227.324 227.324 0 0 0 13.22-39.6 24.658 24.658 0 0 0 0-17.032 27.064 27.064 0 0 0-9.595-8.729 159.184 159.184 0 0 1-16.419-12.561 197.716 197.716 0 0 1-65.675-114.542 189.193 189.193 0 0 1 0-66.638 170.185 170.185 0 0 1 26.227-61.103A216.995 216.995 0 0 1 175.27 56.664 229.123 229.123 0 0 1 365.898 71.78a202.072 202.072 0 0 1 62.223 52.359 201.702 201.702 0 0 1 36.503 72.615zm-192.522 83.19a10.226 10.226 0 0 1 6.706-4.18c2.693-.43 5.444.248 7.644 1.886 10.989 8.034 24.188 12.34 37.72 12.306 12.71 0 20.5-5.006 20.5-12.098 0-7.091-10.66-10.012-24.395-12.932l-.487-.099c-23.54-4.788-56.093-11.41-56.093-47.04 0-24.404 20.5-46.304 56.99-46.304 17.177-.336 34.095 4.293 48.79 13.349a10.635 10.635 0 0 1 4.895 7.025 10.788 10.788 0 0 1-1.82 8.41l-8.2 10.846c-3.256 4.075-9.017 4.977-13.325 2.086a67.164 67.164 0 0 0-34.235-9.595c-10.66 0-15.375 4.38-15.375 10.429s10.865 9.386 24.6 12.723c23.575 5.006 56.17 12.306 56.17 46.514 0 29.201-20.5 48.599-59.655 48.599-19.759.818-39.247-4.889-55.555-16.27a10.65 10.65 0 0 1-4.351-6.842 10.79 10.79 0 0 1 1.686-7.967l7.79-10.846zm-90.815-73.003h52.685c5.661 0 10.25-4.669 10.25-10.429v-12.306c0-5.76-4.589-10.429-10.25-10.429h-84.87c-5.661 0-10.25 4.669-10.25 10.429v125.148c.111 5.678 4.668 10.221 10.25 10.22h84.46c5.661 0 10.25-4.669 10.25-10.429v-11.889c0-5.76-4.589-10.429-10.25-10.429h-52.275c-15.58 0-15.375-29.827 0-29.827h30.545c5.74 0 20.5 0 20.5-5.214a36.936 36.936 0 0 0 0-11.889c0-5.151-10.003-4.649-16.742-4.31-1.447.073-2.744.138-3.758.138h-30.34c-14.145.417-14.145-28.784-.205-28.784z"></path></symbol></defs><text id="sg-math-symbol-icon-spanish-title-j88jsv" visibility="hidden" fill="#323C45">spanish</text><use xlink:href="#icon-subject-mono-spanish" aria-hidden="true" fill="#323C45"></use></svg>