<svg xmlns:xlink="http://www.w3.org/1999/xlink" xmlns="http://www.w3.org/2000/svg" class="sg-subject-icon sg-subject-icon--small sg-subject-icon--icon-gray-70 brn-subject-list__icon" aria-labelledby="sg-math-symbol-icon-philosophy-title-4xeqjq" role="img" width="512"  height="512" ><defs><symbol viewBox="0 0 512 512" style="overflow: visible" id="icon-subject-mono-philosophy" xmlns="http://www.w3.org/2000/svg"><path d="M301.92 184.845a23.261 23.261 0 0 1-12.969 3.955 23.284 23.284 0 0 1-16.507-6.874 23.53 23.53 0 0 1-6.837-16.593c0-4.641 1.369-9.178 3.934-13.037a23.37 23.37 0 0 1 10.477-8.643 23.234 23.234 0 0 1 13.487-1.336 23.307 23.307 0 0 1 11.952 6.423 23.501 23.501 0 0 1 6.389 12.015c.901 4.552.438 9.27-1.328 13.558a23.445 23.445 0 0 1-8.598 10.532z"></path><path fill-rule="evenodd" clip-rule="evenodd" d="M469.333 224c0 60.278-29.257 113.687-74.275 146.658V448H182.843v-42.667H140.4a21.163 21.163 0 0 1-15.006-6.248A21.39 21.39 0 0 1 119.178 384v-85.333H72.49c-6.79 0-11.035-10.027-6.79-17.067l43.499-72.881c7.719-92.997 85.248-166.053 179.751-166.053 99.623 0 180.383 81.186 180.383 181.334zm-97.85 82.967c21.889-22.004 34.186-51.848 34.186-82.967s-12.297-60.963-34.186-82.967c-21.889-22.005-51.577-34.366-82.533-34.366a58.201 58.201 0 0 0-41.266 17.183c-10.944 11.002-17.093 25.924-17.093 41.483 0 15.56 6.149 30.482 17.093 41.484C258.629 217.819 273.472 224 288.95 224a58.208 58.208 0 0 1 41.267 17.183c10.944 11.002 17.093 25.924 17.093 41.484 0 15.559-6.149 30.481-17.093 41.483a58.208 58.208 0 0 1-41.267 17.183c30.956 0 60.644-12.362 82.533-34.366zm-82.532-.834c4.617 0 9.13-1.376 12.969-3.955a23.437 23.437 0 0 0 8.598-10.531 23.588 23.588 0 0 0 1.328-13.559 23.505 23.505 0 0 0-6.389-12.015 23.298 23.298 0 0 0-11.952-6.422 23.225 23.225 0 0 0-13.487 1.335 23.37 23.37 0 0 0-10.477 8.643 23.554 23.554 0 0 0-3.934 13.037c0 6.224 2.46 12.193 6.837 16.594a23.283 23.283 0 0 0 16.507 6.873z"></path></symbol></defs><text id="sg-math-symbol-icon-philosophy-title-4xeqjq" visibility="hidden" fill="#323C45">philosophy</text><use xlink:href="#icon-subject-mono-philosophy" aria-hidden="true" fill="#323C45"></use></svg>