<svg xmlns:xlink="http://www.w3.org/1999/xlink" xmlns="http://www.w3.org/2000/svg" class="sg-subject-icon sg-subject-icon--small sg-subject-icon--icon-gray-70 brn-subject-list__icon" aria-labelledby="sg-math-symbol-icon-geography-title-zl08a" role="img" width="512"  height="512" ><defs><symbol viewBox="0 0 512 512" style="overflow: visible" id="icon-subject-mono-geography" xmlns="http://www.w3.org/2000/svg"><path d="M256 42.666A213.33 213.33 0 0 0 58.906 174.361a213.331 213.331 0 0 0 155.475 290.873 213.329 213.329 0 0 0 219-90.712A213.34 213.34 0 0 0 406.85 105.15 213.336 213.336 0 0 0 256 42.666zM121.814 334.293c-79.147-50.773-27.307-239.573 112.853-256 110.72-13.227-30.72 21.333-10.027 160.427 12.16 84.693-64.213 121.173-102.826 95.573zm233.173 74.454a72.748 72.748 0 0 1-76.587 9.173c-33.28-17.067-31.146-64-21.333-88.747 39.253-105.6 125.653-45.44 138.88-35.2 42.24 33.494-7.467 93.654-40.96 115.414v-.64z"></path></symbol></defs><text id="sg-math-symbol-icon-geography-title-zl08a" visibility="hidden" fill="#323C45">geography</text><use xlink:href="#icon-subject-mono-geography" aria-hidden="true" fill="#323C45"></use></svg>