<svg xmlns:xlink="http://www.w3.org/1999/xlink" xmlns="http://www.w3.org/2000/svg" class="sg-subject-icon sg-subject-icon--small sg-subject-icon--icon-gray-70 brn-subject-list__icon" aria-labelledby="sg-math-symbol-icon-first-aid-title-kyzzn" role="img" width="512"  height="512" ><defs><symbol viewBox="0 0 512 512" style="overflow: visible" id="icon-subject-mono-first-aid" xmlns="http://www.w3.org/2000/svg"><path fill-rule="evenodd" clip-rule="evenodd" d="M320 106.666c0-11.782 9.551-21.333 21.333-21.333h21.334c11.782 0 21.333 9.551 21.333 21.333V128h21.333C428.898 128 448 147.102 448 170.666v192c0 23.564-19.102 42.667-42.667 42.667H106.667C83.103 405.333 64 386.23 64 362.666v-192C64 147.102 83.103 128 106.667 128H128v-21.334c0-11.782 9.551-21.333 21.333-21.333h21.334c11.782 0 21.333 9.551 21.333 21.333V128h128v-21.334zm17.515 132.989a13.14 13.14 0 0 1 3.818 9.262v35.499a13.141 13.141 0 0 1-13.056 13.141h-39.168a2.14 2.14 0 0 0-1.595.623 2.126 2.126 0 0 0-.623 1.596v39.168A13.144 13.144 0 0 1 273.749 352h-35.498a13.143 13.143 0 0 1-13.142-13.056v-39.168a2.134 2.134 0 0 0-2.218-2.219h-39.168a13.141 13.141 0 0 1-13.056-13.141v-35.499a13.14 13.14 0 0 1 13.056-13.141h39.168a2.124 2.124 0 0 0 1.595-.623 2.126 2.126 0 0 0 .623-1.596v-39.168a13.144 13.144 0 0 1 13.142-13.056h35.498a13.143 13.143 0 0 1 13.142 13.056v39.168a2.137 2.137 0 0 0 .623 1.596 2.134 2.134 0 0 0 1.595.623h39.168a13.14 13.14 0 0 1 9.238 3.879z"></path></symbol></defs><text id="sg-math-symbol-icon-first-aid-title-kyzzn" visibility="hidden" fill="#323C45">first aid</text><use xlink:href="#icon-subject-mono-first-aid" aria-hidden="true" fill="#323C45"></use></svg>