<svg xmlns:xlink="http://www.w3.org/1999/xlink" xmlns="http://www.w3.org/2000/svg" class="sg-subject-icon sg-subject-icon--small sg-subject-icon--icon-gray-70 brn-subject-list__icon" aria-labelledby="sg-math-symbol-icon-history-title-chb63h" role="img" width="512"  height="512" ><defs><symbol viewBox="0 0 512 512" style="overflow: visible" id="icon-subject-mono-history" xmlns="http://www.w3.org/2000/svg"><path fill-rule="evenodd" clip-rule="evenodd" d="M441.807 441.773A21.326 21.326 0 0 0 448 426.738a21.355 21.355 0 0 0-2.96-10.63l-6.133-10.631-24.317-42.524-12.264-21.261-19.454-34.444-16.916-29.341-36.581-63.785-24.529-42.524-12.053-21.261-17.339-31.893a21.226 21.226 0 0 0-7.797-8.595 21.063 21.063 0 0 0-11.128-3.182 21.06 21.06 0 0 0-11.128 3.182 21.226 21.226 0 0 0-7.797 8.595l-18.397 31.893-12.052 21.261-24.529 42.524-36.582 63.785-16.916 29.341-19.665 34.444-12.264 21.261-24.317 42.524-6.133 10.631a21.35 21.35 0 0 0-2.748 10.63 21.324 21.324 0 0 0 6.193 15.035A21.088 21.088 0 0 0 85.146 448h341.709c5.608 0 10.986-2.24 14.952-6.227zm-94.159-66.365a42.173 42.173 0 0 0-29.904-12.455 42.173 42.173 0 0 0-29.904 12.455 42.644 42.644 0 0 0-12.387 30.069V448h84.582v-42.523a42.644 42.644 0 0 0-12.387-30.069z"></path></symbol></defs><text id="sg-math-symbol-icon-history-title-chb63h" visibility="hidden" fill="#323C45">history</text><use xlink:href="#icon-subject-mono-history" aria-hidden="true" fill="#323C45"></use></svg>