<svg xmlns:xlink="http://www.w3.org/1999/xlink" xmlns="http://www.w3.org/2000/svg" class="sg-subject-icon sg-subject-icon--small sg-subject-icon--icon-gray-70 brn-subject-list__icon" aria-labelledby="sg-math-symbol-icon-logic-title-krqyi6" role="img" width="512"  height="512" ><defs><symbol viewBox="0 0 512 512" style="overflow: visible" id="icon-subject-mono-logic" xmlns="http://www.w3.org/2000/svg"><path d="M188.395 384.263h16.209l48.834-.853c2.247.509 4.787 1.576 7.076 2.537l.72.302a18.566 18.566 0 0 1 6.491 4.547 19.829 19.829 0 0 1 5.118 18.764 33.473 33.473 0 0 1-12.155 17.058 21.328 21.328 0 0 0-3.352 28.692 21.33 21.33 0 0 0 8.044 6.704 66.116 66.116 0 0 0 33.266 7.249 62.484 62.484 0 0 0 34.973-8.955 21.34 21.34 0 0 0 6.85-6.663 21.332 21.332 0 0 0 2.252-18.488 21.32 21.32 0 0 0-5.05-8.112l-5.331-5.118a24.511 24.511 0 0 1-7.677-18.124 19.406 19.406 0 0 1 21.325-18.764h95.322c6.61 0 6.61-.213 6.61-5.544v-76.761a25.602 25.602 0 0 0 0-4.051 14.711 14.711 0 0 0-16.42-12.367 27.717 27.717 0 0 0-19.832 8.315 38.813 38.813 0 0 1-57.15-8.529 55.64 55.64 0 0 1-1.493-56.078 38.814 38.814 0 0 1 59.923-10.022 30.702 30.702 0 0 0 8.316 5.331c12.795 5.757 26.656 0 26.656-11.941v-78.893c0-5.117-.213-6.543-5.971-6.543h-94.042c-10.876-1.066-16.847-7.103-14.501-16.272a32.623 32.623 0 0 1 10.449-14.073 27.293 27.293 0 0 0-3.838-43.924 85.31 85.31 0 0 0-77.623-3.199 28.36 28.36 0 0 0-7.89 48.19 30.717 30.717 0 0 1 7.037 7.888c6.184 10.235 1.493 21.39-15.141 21.39h-58.218a8.533 8.533 0 0 0-8.533 8.534v36.836a60.359 60.359 0 0 1 58.685 9.793 60.34 60.34 0 0 1 17.852 23.998 117.251 117.251 0 0 1-4.754 105.938l-.231.409-.242.401a59.268 59.268 0 0 1-19.391 19.662 59.273 59.273 0 0 1-26.195 8.745 59.264 59.264 0 0 1-25.511-3.377v36.834a8.533 8.533 0 0 0 8.533 8.534z"></path><path d="M149.493 298.854c2.865-6.614 8.959-9.81 16.081-7.988a32.634 32.634 0 0 1 14.075 10.448 27.295 27.295 0 0 0 43.929-3.838 85.287 85.287 0 0 0 11.019-42.595 85.244 85.244 0 0 0-7.817-35.077 28.35 28.35 0 0 0-48.17-7.885 30.71 30.71 0 0 1-7.886 7.033c-10.231 6.18-23.019 1.491-23.019-15.132v-67.185a8.533 8.533 0 0 0-8.534-8.533H72.53a8.53 8.53 0 0 0-8.53 8.529v238.813a8.53 8.53 0 0 0 8.53 8.529h66.854a8.534 8.534 0 0 0 8.534-8.534v-70.175c.234-2.385.775-4.534 1.575-6.41z"></path></symbol></defs><text id="sg-math-symbol-icon-logic-title-krqyi6" visibility="hidden" fill="#323C45">logic</text><use xlink:href="#icon-subject-mono-logic" aria-hidden="true" fill="#323C45"></use></svg>