<svg xmlns:xlink="http://www.w3.org/1999/xlink" xmlns="http://www.w3.org/2000/svg" class="sg-subject-icon sg-subject-icon--small sg-subject-icon--icon-gray-70 brn-subject-list__icon" aria-labelledby="sg-math-symbol-icon-mathematics-title-5s509" role="img" width="512"  height="512" ><defs><symbol viewBox="0 0 512 512" style="overflow: visible" id="icon-subject-mono-mathematics" xmlns="http://www.w3.org/2000/svg"><g fill-rule="evenodd" clip-rule="evenodd"><path d="M298.667 64c-11.782 0-21.334 9.551-21.334 21.333v128c0 11.782 9.552 21.334 21.334 21.334h128c11.782 0 21.333-9.552 21.333-21.334v-128C448 73.551 438.449 64 426.667 64h-128zM384 117.333c0 11.782-9.551 21.334-21.333 21.334-11.782 0-21.334-9.552-21.334-21.334S350.885 96 362.667 96 384 105.551 384 117.333zm-21.333 85.334c11.782 0 21.333-9.552 21.333-21.334S374.449 160 362.667 160c-11.782 0-21.334 9.551-21.334 21.333 0 11.782 9.552 21.334 21.334 21.334zM64 298.667c0-11.782 9.551-21.334 21.333-21.334h128c11.782 0 21.334 9.552 21.334 21.334v128c0 11.782-9.552 21.333-21.334 21.333h-128C73.551 448 64 438.449 64 426.667v-128zm40.078 48.915c-8.331-8.331-8.331-21.839 0-30.17 8.331-8.331 21.839-8.331 30.17 0l15.085 15.085 15.085-15.085c8.331-8.331 21.838-8.331 30.169 0 8.332 8.331 8.332 21.839 0 30.17l-15.084 15.085 15.084 15.085c8.332 8.331 8.332 21.838 0 30.169-8.331 8.332-21.838 8.332-30.169 0l-15.085-15.084-15.085 15.084c-8.331 8.332-21.839 8.332-30.17 0-8.331-8.331-8.331-21.838 0-30.169l15.085-15.085-15.085-15.085zM298.667 277.333c-11.782 0-21.334 9.552-21.334 21.334v128c0 11.782 9.552 21.333 21.334 21.333h128c11.782 0 21.333-9.551 21.333-21.333v-128c0-11.782-9.551-21.334-21.333-21.334h-128zm128 85.334c0-11.782-9.552-21.334-21.334-21.334H320c-11.782 0-21.333 9.552-21.333 21.334S308.218 384 320 384h85.333c11.782 0 21.334-9.551 21.334-21.333zM64 85.333C64 73.551 73.551 64 85.333 64h128c11.782 0 21.334 9.551 21.334 21.333v128c0 11.782-9.552 21.334-21.334 21.334h-128c-11.782 0-21.333-9.552-21.333-21.334v-128zm64 21.334c0-11.782 9.551-21.334 21.333-21.334 11.782 0 21.334 9.552 21.334 21.334V128H192c11.782 0 21.333 9.551 21.333 21.333 0 11.782-9.551 21.334-21.333 21.334h-21.333V192c0 11.782-9.552 21.333-21.334 21.333S128 203.782 128 192v-21.333h-21.333c-11.782 0-21.334-9.552-21.334-21.334S94.885 128 106.667 128H128v-21.333z"></path></g></symbol></defs><text id="sg-math-symbol-icon-mathematics-title-5s509" visibility="hidden" fill="#323C45">mathematics</text><use xlink:href="#icon-subject-mono-mathematics" aria-hidden="true" fill="#323C45"></use></svg>