<svg xmlns:xlink="http://www.w3.org/1999/xlink" xmlns="http://www.w3.org/2000/svg" class="sg-subject-icon sg-subject-icon--small sg-subject-icon--icon-gray-70 brn-subject-list__icon" aria-labelledby="sg-math-symbol-icon-music-title-bwzhb" role="img" width="512"  height="512" ><defs><symbol viewBox="0 0 512 512" style="overflow: visible" id="icon-subject-mono-music" xmlns="http://www.w3.org/2000/svg"><path d="M214.643 170.667h214.976v42.666H214.643v-42.666z"></path><path d="M248.425 128l-33.783 234.667c0 47.128-38.499 85.333-85.99 85.333-47.491 0-85.99-38.205-85.99-85.333 0-47.129 38.499-85.334 85.99-85.334 19.724 0 37.898 6.591 52.406 17.674l29.571-212.59C212.097 71.861 221.188 64 231.925 64h219.191v.247c11.427 1.733 19.684 12.352 17.992 24.103l-39.49 274.317c0 47.128-38.499 85.333-85.99 85.333-47.491 0-85.991-38.205-85.991-85.333 0-47.129 38.5-85.334 85.991-85.334 19.724 0 37.898 6.591 52.406 17.674L419.264 128H248.425z"></path></symbol></defs><text id="sg-math-symbol-icon-music-title-bwzhb" visibility="hidden" fill="#323C45">music</text><use xlink:href="#icon-subject-mono-music" aria-hidden="true" fill="#323C45"></use></svg>