<svg xmlns:xlink="http://www.w3.org/1999/xlink" xmlns="http://www.w3.org/2000/svg" class="sg-subject-icon sg-subject-icon--small sg-subject-icon--icon-gray-70 brn-subject-list__icon" aria-labelledby="sg-math-symbol-icon-pedagogics-title-wzvi8" role="img" width="512"  height="512" ><defs><symbol viewBox="0 0 512 512" style="overflow: visible" id="icon-subject-mono-pedagogics" xmlns="http://www.w3.org/2000/svg"><path fill-rule="evenodd" clip-rule="evenodd" d="M426.667 64H85.333C73.551 64 64 73.551 64 85.333v256c0 11.782 9.551 21.334 21.333 21.334H192V416c0 14.145 6.743 27.71 18.745 37.712 12.002 10.002 28.281 15.621 45.255 15.621 16.974 0 33.253-5.619 45.255-15.621C313.257 443.71 320 430.145 320 416v-53.333h106.667c11.782 0 21.333-9.552 21.333-21.334v-256C448 73.551 438.449 64 426.667 64zM320 362.667H192v-64a64 64 0 1 1 128 0v64zm-21.333-192c0 23.564-19.103 42.666-42.667 42.666s-42.667-19.102-42.667-42.666C213.333 147.103 232.436 128 256 128s42.667 19.103 42.667 42.667z"></path></symbol></defs><text id="sg-math-symbol-icon-pedagogics-title-wzvi8" visibility="hidden" fill="#323C45">pedagogics</text><use xlink:href="#icon-subject-mono-pedagogics" aria-hidden="true" fill="#323C45"></use></svg>