<svg xmlns:xlink="http://www.w3.org/1999/xlink" xmlns="http://www.w3.org/2000/svg" class="sg-subject-icon sg-subject-icon--small sg-subject-icon--icon-gray-70 brn-subject-list__icon" aria-labelledby="sg-math-symbol-icon-physics-title-120nzc" role="img" width="512"  height="512" ><defs><symbol viewBox="0 0 512 512" style="overflow: visible" id="icon-subject-mono-physics" xmlns="http://www.w3.org/2000/svg"><path d="M210.745 189.411A64 64 0 0 1 320 234.666v100.933a.4.4 0 0 0 .4.4h127.2a.4.4 0 0 0 .4-.4V234.666a191.999 191.999 0 0 0-192-192 192 192 0 0 0-192 192v100.933c0 .221.18.4.4.4h127.2a.4.4 0 0 0 .4-.4V234.666a64.003 64.003 0 0 1 18.745-45.255zM192 368.399a.4.4 0 0 0-.4-.4H64.4a.4.4 0 0 0-.4.4v58.267a21.334 21.334 0 0 0 21.333 21.333h85.334A21.332 21.332 0 0 0 192 426.666v-58.267zM448 368.399a.4.4 0 0 0-.4-.4H320.4a.4.4 0 0 0-.4.4v58.267a21.332 21.332 0 0 0 21.333 21.333h85.334A21.332 21.332 0 0 0 448 426.666v-58.267z"></path></symbol></defs><text id="sg-math-symbol-icon-physics-title-120nzc" visibility="hidden" fill="#323C45">physics</text><use xlink:href="#icon-subject-mono-physics" aria-hidden="true" fill="#323C45"></use></svg>