<svg xmlns:xlink="http://www.w3.org/1999/xlink" xmlns="http://www.w3.org/2000/svg" class="sg-subject-icon sg-subject-icon--small sg-subject-icon--icon-gray-70 brn-subject-list__icon" aria-labelledby="sg-math-symbol-icon-literature-title-qfnff" role="img" width="512"  height="512" ><defs><symbol viewBox="0 0 512 512" style="overflow: visible" id="icon-subject-mono-literature" xmlns="http://www.w3.org/2000/svg"><path d="M118.671 132.721l-4.561-15.335c-8.47 2.519-13.294 11.428-10.775 19.898 2.504 8.417 11.318 13.234 19.741 10.82l.253-.064c.318-.077.92-.214 1.8-.378 1.759-.328 4.634-.764 8.581-1.043 7.881-.556 20.095-.487 36.287 2.368s27.693 6.968 34.909 10.186c3.613 1.611 6.166 3.005 7.707 3.915.771.455 1.289.789 1.561.97l.217.147c7.089 5.149 17.019 3.638 22.25-3.416 5.265-7.097 3.779-17.118-3.319-22.382.005.003 0 0-9.532 12.85l9.532-12.85-.021-.016-.022-.016-.049-.037-.117-.085-.307-.218a43.29 43.29 0 0 0-.909-.621 67.913 67.913 0 0 0-3.016-1.883c-2.549-1.505-6.18-3.46-10.941-5.583-9.532-4.251-23.539-9.152-42.386-12.475-18.848-3.323-33.686-3.509-44.097-2.774-5.2.367-9.28.962-12.191 1.504a66.368 66.368 0 0 0-3.477.738c-.431.104-.787.197-1.067.272l-.363.101-.139.04-.059.017-.027.008c-.006.002-.024.007 4.537 15.342z"></path><path d="M74.668 128.072v234.347c-.02 1.429.238 2.848.758 4.167.52 1.32 1.29 2.513 2.263 3.505 1.986 1.906 4.568 2.968 7.25 2.983 58.436-2.18 115.962 15.768 163.934 51.145a10.798 10.798 0 0 0 3.222 2.131 7.815 7.815 0 0 0 3.826 0 8.196 8.196 0 0 0 3.827 0 10.798 10.798 0 0 0 3.222-2.131c47.936-35.311 105.355-53.322 163.733-51.358 2.747.018 5.403-1.045 7.451-2.983 1.846-2.005 2.922-4.663 3.021-7.459V128.072H448c11.782 0 21.333 9.552 21.333 21.334v277.333c0 11.782-9.551 21.333-21.333 21.333H292.951A42.672 42.672 0 0 1 256 469.406a42.67 42.67 0 0 1-36.95-21.334H64c-11.782 0-21.333-9.551-21.333-21.333V149.406c0-11.782 9.551-21.334 21.333-21.334h10.668z"></path><path d="M114.108 202.719l4.562 15.336c-4.562-15.336-4.568-15.334-4.562-15.336l.025-.007.027-.008.059-.017.138-.04.364-.101c.28-.075.636-.168 1.066-.272a66.666 66.666 0 0 1 3.478-.738c2.91-.542 6.991-1.137 12.191-1.504 10.411-.735 25.249-.549 44.097 2.774 18.847 3.323 32.854 8.224 42.386 12.475 4.761 2.123 8.392 4.078 10.941 5.583a67.913 67.913 0 0 1 3.016 1.883c.369.246.672.454.909.621l.307.218.117.085.049.037.022.016c.005.004.021.016-9.511 12.866l9.532-12.85c7.097 5.264 8.584 15.285 3.319 22.382-5.231 7.054-15.161 8.565-22.25 3.416l-.217-.147c-.272-.181-.79-.515-1.561-.97-1.542-.91-4.094-2.304-7.707-3.915-7.216-3.218-18.717-7.331-34.909-10.186-16.192-2.855-28.406-2.924-36.287-2.368-3.947.279-6.822.715-8.581 1.043a35.16 35.16 0 0 0-1.8.378l-.253.064c-8.423 2.414-17.237-2.403-19.741-10.82-2.519-8.47 2.305-17.379 10.774-19.898zM118.67 303.388l-4.562-15.336c-8.469 2.52-13.293 11.428-10.774 19.898 2.504 8.417 11.318 13.234 19.741 10.82l.253-.064c.318-.077.92-.214 1.8-.378 1.759-.328 4.634-.764 8.581-1.042 7.881-.556 20.095-.488 36.287 2.367s27.693 6.968 34.909 10.186c3.613 1.612 6.165 3.005 7.707 3.915.771.455 1.289.79 1.561.971l.217.147c7.089 5.148 17.019 3.637 22.25-3.417 5.265-7.097 3.778-17.118-3.319-22.382l-9.532 12.851c9.532-12.851 9.537-12.847 9.532-12.851l-.021-.016-.022-.016-.049-.036-.117-.085-.307-.219a43.29 43.29 0 0 0-.909-.621 67.117 67.117 0 0 0-3.016-1.882c-2.549-1.505-6.18-3.46-10.941-5.584-9.532-4.251-23.539-9.152-42.386-12.475-18.848-3.323-33.686-3.509-44.097-2.774-5.2.367-9.281.962-12.191 1.505a66.833 66.833 0 0 0-3.478.737c-.43.105-.786.197-1.066.273l-.364.1-.138.04-.059.017-.027.008-.025.007c-.006.002 0 0 4.562 15.336zM397.91 117.386l-4.559 15.329c4.559-15.329 4.566-15.327 4.559-15.329l-.024-.007-.027-.008-.059-.017-.139-.04-.363-.101c-.28-.075-.636-.168-1.067-.272a66.368 66.368 0 0 0-3.477-.738c-2.911-.542-6.991-1.137-12.191-1.504-10.411-.735-25.25-.549-44.097 2.774s-32.854 8.224-42.386 12.475c-4.761 2.123-8.392 4.078-10.941 5.583a67.326 67.326 0 0 0-3.016 1.883 43.29 43.29 0 0 0-.909.621l-.307.218-.117.085-.049.037-.022.016c-.006.004-.021.016 9.51 12.866l-9.531-12.85c-7.098 5.264-8.584 15.285-3.319 22.382 5.231 7.054 15.161 8.565 22.25 3.416l.216-.147c.273-.181.791-.515 1.562-.97 1.541-.91 4.094-2.304 7.707-3.915 7.216-3.218 18.716-7.331 34.909-10.186 16.192-2.855 28.406-2.924 36.287-2.368 3.946.279 6.822.715 8.581 1.043.88.164 1.482.301 1.8.378l.253.064c8.423 2.414 17.237-2.403 19.741-10.82 2.519-8.47-2.305-17.379-10.775-19.898zM393.352 218.055l4.562-15.336c8.47 2.519 13.294 11.428 10.774 19.898-2.503 8.417-11.318 13.234-19.74 10.82l-.253-.064a35.16 35.16 0 0 0-1.8-.378c-1.76-.328-4.635-.764-8.581-1.043-7.881-.556-20.095-.487-36.287 2.368-16.193 2.855-27.693 6.968-34.909 10.186-3.613 1.611-6.166 3.005-7.707 3.915-.771.455-1.29.789-1.562.97l-.216.147c-7.089 5.149-17.019 3.638-22.251-3.416-5.264-7.097-3.778-17.118 3.319-22.382l9.532 12.85c-9.532-12.85-9.537-12.847-9.532-12.85l.021-.016.023-.016.049-.037.117-.085.307-.218c.237-.167.54-.375.909-.621a66.75 66.75 0 0 1 3.016-1.883c2.549-1.505 6.18-3.46 10.941-5.583 9.531-4.251 23.538-9.152 42.386-12.475 18.847-3.323 33.686-3.509 44.096-2.774 5.2.367 9.281.962 12.191 1.504 1.455.271 2.616.529 3.478.738.431.104.787.197 1.067.272l.363.101.139.04.059.017.026.008c.006.002.025.007-4.537 15.343zM397.912 288.052l-4.561 15.336c4.561-15.336 4.568-15.334 4.561-15.336l-.024-.007-.027-.008-.059-.017-.138-.04-.364-.1c-.28-.076-.636-.168-1.067-.273a66.533 66.533 0 0 0-3.477-.737c-2.91-.543-6.991-1.138-12.191-1.505-10.411-.735-25.249-.549-44.097 2.774-18.847 3.323-32.854 8.224-42.386 12.475-4.761 2.124-8.392 4.079-10.941 5.584a67.117 67.117 0 0 0-3.016 1.882 43.29 43.29 0 0 0-.909.621l-.307.219-.117.085-.049.036-.022.016c-.005.004-.021.016 9.511 12.867l-9.532-12.851c-7.098 5.264-8.584 15.285-3.319 22.382 5.231 7.054 15.161 8.565 22.25 3.417l.217-.147c.272-.181.79-.516 1.561-.971 1.542-.91 4.094-2.303 7.707-3.915 7.216-3.218 18.717-7.331 34.909-10.186 16.192-2.855 28.406-2.923 36.287-2.367 3.947.278 6.822.714 8.581 1.042.88.164 1.482.301 1.8.378l.253.064c8.423 2.414 17.237-2.403 19.741-10.82 2.519-8.47-2.305-17.378-10.775-19.898z"></path></symbol></defs><text id="sg-math-symbol-icon-literature-title-qfnff" visibility="hidden" fill="#323C45">literature</text><use xlink:href="#icon-subject-mono-literature" aria-hidden="true" fill="#323C45"></use></svg>