<svg xmlns:xlink="http://www.w3.org/1999/xlink" xmlns="http://www.w3.org/2000/svg" class="sg-subject-icon sg-subject-icon--small sg-subject-icon--icon-gray-70 brn-subject-list__icon" aria-labelledby="sg-math-symbol-icon-informatics-title-o9ocxl" role="img" width="512"  height="512" ><defs><symbol viewBox="0 0 512 512" style="overflow: visible" id="icon-subject-mono-informatics" xmlns="http://www.w3.org/2000/svg"><path fill-rule="evenodd" clip-rule="evenodd" d="M426.019 64H85.649C73.9 64 64.376 73.547 64.376 85.325V298.57c0 11.777 9.524 21.324 21.273 21.324h340.37c11.749 0 21.274-9.547 21.274-21.324V85.325c0-11.778-9.525-21.325-21.274-21.325zm-21.273 42.649H106.922v170.597h297.824V106.649z"></path><path d="M68.537 355.544a21.325 21.325 0 0 0-8.202 10.839L43.104 423.96a19.876 19.876 0 0 0 4.59 17.354 19.743 19.743 0 0 0 16.684 6.529h382.916c3.147.401 6.344.03 9.316-1.083a19.563 19.563 0 0 0 7.744-5.305 19.654 19.654 0 0 0 4.425-17.708l-17.231-57.577a21.311 21.311 0 0 0-8.252-10.711 21.23 21.23 0 0 0-13.021-3.576H81.608a21.235 21.235 0 0 0-13.07 3.661z"></path></symbol></defs><text id="sg-math-symbol-icon-informatics-title-o9ocxl" visibility="hidden" fill="#323C45">informatics</text><use xlink:href="#icon-subject-mono-informatics" aria-hidden="true" fill="#323C45"></use></svg>