<svg xmlns:xlink="http://www.w3.org/1999/xlink" xmlns="http://www.w3.org/2000/svg" class="sg-subject-icon sg-subject-icon--small sg-subject-icon--icon-gray-70 brn-subject-list__icon" aria-labelledby="sg-math-symbol-icon-psychology-title-33zyw9" role="img" width="512"  height="512" ><defs><symbol viewBox="0 0 512 512" style="overflow: visible" id="icon-subject-mono-psychology" xmlns="http://www.w3.org/2000/svg"><path fill-rule="evenodd" clip-rule="evenodd" d="M471.466 224c0 60.278-29.411 113.687-74.667 146.658V448H183.466v-42.666h-42.667A21.333 21.333 0 0 1 119.466 384v-85.333H72.532c-6.826 0-11.093-10.027-6.826-17.067l43.728-72.881c7.76-92.996 85.698-166.052 180.699-166.052 100.147 0 181.333 81.186 181.333 181.333zm-108.799-32c0 29.274-16.846 54.612-41.372 66.851l14.382 72.284c1.05 5.278-2.988 10.199-8.369 10.199h-78.617c-5.381 0-9.419-4.921-8.369-10.199l14.383-72.284c-24.526-12.239-41.372-37.578-41.372-66.851 0-41.237 33.43-74.666 74.667-74.666s74.667 33.429 74.667 74.666z"></path></symbol></defs><text id="sg-math-symbol-icon-psychology-title-33zyw9" visibility="hidden" fill="#323C45">psychology</text><use xlink:href="#icon-subject-mono-psychology" aria-hidden="true" fill="#323C45"></use></svg>