<svg xmlns:xlink="http://www.w3.org/1999/xlink" xmlns="http://www.w3.org/2000/svg" class="sg-subject-icon sg-subject-icon--small sg-subject-icon--icon-gray-70 brn-subject-list__icon" aria-labelledby="sg-math-symbol-icon-sociology-title-mm90is" role="img" width="512"  height="512" ><defs><symbol viewBox="0 0 512 512" style="overflow: visible" id="icon-subject-mono-sociology" xmlns="http://www.w3.org/2000/svg"><path d="M298.667 256c0 23.564-19.103 42.667-42.667 42.667S213.333 279.564 213.333 256s19.103-42.667 42.667-42.667 42.667 19.103 42.667 42.667z"></path><path fill-rule="evenodd" clip-rule="evenodd" d="M469.333 256c0-93.227-95.36-128-213.333-128S42.667 162.773 42.667 256 138.027 384 256 384s213.333-34.773 213.333-128zM256 362.454c58.91 0 106.667-47.661 106.667-106.454 0-58.792-47.757-106.453-106.667-106.453-58.91 0-106.667 47.661-106.667 106.453 0 58.793 47.757 106.454 106.667 106.454z"></path></symbol></defs><text id="sg-math-symbol-icon-sociology-title-mm90is" visibility="hidden" fill="#323C45">sociology</text><use xlink:href="#icon-subject-mono-sociology" aria-hidden="true" fill="#323C45"></use></svg>