<svg width="22" height="30" viewBox="0 0 22 30" fill="none" xmlns="http://www.w3.org/2000/svg">
<path d="M1.52865 15.3389L1.52866 15.3389L10.9897 2.22403L10.1833 1.64226L10.9897 2.22403C11.6011 1.37646 12.9361 1.73414 13.0418 2.7739L13.8368 10.5919L13.9066 11.2781L14.5729 11.4566L19.955 12.8987C20.7235 13.1046 21.0479 14.016 20.5825 14.6611L11.1214 27.7759L11.1214 27.776C10.51 28.6235 9.17505 28.2659 9.06932 27.2261L8.27427 19.4081L8.20448 18.7219L7.53822 18.5434L2.15614 17.1013C1.38768 16.8954 1.06325 15.984 1.52865 15.3389Z" fill="#FFD900" stroke="black" stroke-width="2"/>
<path d="M4.39495 15.6462C3.90552 15.5141 3.85826 14.8383 4.32454 14.6393L8.0651 13.0433C8.40283 12.8992 8.78188 13.131 8.80749 13.4973L8.99321 16.1532C9.01882 16.5195 8.67572 16.8018 8.32122 16.7061L4.39495 15.6462Z" fill="#F7C100"/>
<path d="M18.5996 14.0787C19.089 14.2108 19.1363 14.8866 18.67 15.0855L14.9295 16.6815C14.5917 16.8256 14.2127 16.5938 14.1871 16.2275L14.0014 13.5717C13.9757 13.2054 14.3188 12.9231 14.6733 13.0188L18.5996 14.0787Z" fill="#FFEF8F"/>
</svg>
