<svg width="420" height="420" viewBox="0 0 420 420" fill="none" xmlns="http://www.w3.org/2000/svg">
<rect width="420" height="420" rx="210" fill="#687B8C"/>
<g clip-path="url(#clip0_2960_431)">
<path fill-rule="evenodd" clip-rule="evenodd" d="M210 94C174.895 94 146.438 122.508 146.438 157.675C146.438 192.842 174.895 221.35 210 221.35C245.105 221.35 273.563 192.842 273.563 157.675C273.563 122.508 245.105 94 210 94ZM174.688 157.675C174.688 138.138 190.497 122.3 210 122.3C229.503 122.3 245.313 138.138 245.313 157.675C245.313 177.212 229.503 193.05 210 193.05C190.497 193.05 174.688 177.212 174.688 157.675Z" fill="#C3D1DD"/>
<path fill-rule="evenodd" clip-rule="evenodd" d="M210 242.575C147.592 242.575 97 293.256 97 355.775V377H323V355.775C323 293.256 272.408 242.575 210 242.575ZM210 270.875C254.428 270.875 290.871 305.121 294.46 348.7H125.54C129.129 305.121 165.572 270.875 210 270.875Z" fill="#C3D1DD"/>
</g>
<defs>
<clipPath id="clip0_2960_431">
<rect width="258" height="258" fill="white" transform="translate(81 81)"/>
</clipPath>
</defs>
</svg>
