<svg width="99" height="123" viewBox="0 0 99 123" fill="none" xmlns="http://www.w3.org/2000/svg">
<path d="M1 57.5V57.5C26.3496 27.4463 72.6504 27.4463 98 57.5V57.5" stroke="black"/>
<path d="M1 58V58C25.2001 90.4331 73.7999 90.4331 98 58V58" stroke="black"/>
<path d="M96.5 58.5C96.5 64.299 47.4036 81 40.5 81C33.5964 81 2 63.299 2 57.5C2 51.701 57.5964 37.5 64.5 37.5C71.4036 37.5 96.5 52.701 96.5 58.5Z" fill="white"/>
<path d="M24 41V41C30.9365 36.9011 39.3823 36.2529 46.8631 39.2452L52.5 41.5L47 35.5L63.1067 37.1107C66.5457 37.4546 67.9593 41.704 65.4115 44.0394L48 60H24V41Z" fill="white"/>
<circle cx="50" cy="59" r="16.5" fill="#574400" stroke="black"/>
<circle cx="50" cy="59" r="8" fill="black"/>
</svg>
