<svg width="224" height="278" viewBox="0 0 224 278" fill="none" xmlns="http://www.w3.org/2000/svg">
<path d="M136.552 192.148C135.317 196.028 131.105 212.536 129.62 217.636L95.84 209.54L102.098 181.406C102.112 181.342 102.1 181.276 102.065 181.221C102.029 181.166 101.973 181.127 101.908 181.113C101.844 181.099 101.776 181.111 101.721 181.145C101.665 181.18 101.626 181.235 101.611 181.299L95.3554 209.424L93.2649 208.923C93.2331 208.916 93.2001 208.914 93.1678 208.919C93.1355 208.924 93.1045 208.935 93.0766 208.952C93.0487 208.969 93.0244 208.991 93.0052 209.016C92.9859 209.042 92.9721 209.072 92.9644 209.103C92.9568 209.134 92.9555 209.167 92.9606 209.198C92.9657 209.23 92.9772 209.261 92.9943 209.288C93.0113 209.316 93.0338 209.34 93.0602 209.359C93.0867 209.378 93.1167 209.391 93.1485 209.399C132.232 218.696 129.828 218.343 130.014 218.033C130.237 217.486 136.253 194.711 137.024 192.295C137.036 192.236 137.025 192.175 136.994 192.123C136.962 192.071 136.913 192.032 136.854 192.014C136.796 191.996 136.732 191.999 136.677 192.024C136.621 192.049 136.576 192.093 136.552 192.148Z" fill="black"/>
<path d="M121.38 254.583C121.48 253.606 121.291 252.62 120.835 251.747C120.379 250.874 119.677 250.151 118.814 249.667C120.02 249.57 121.152 249.051 122.007 248.203C122.862 247.354 123.385 246.231 123.481 245.034C123.577 243.837 123.241 242.645 122.533 241.67C121.824 240.695 120.79 240.001 119.614 239.712C119.495 239.568 122.223 240.289 60.9226 225.517C59.7188 225.128 58.4129 225.197 57.2592 225.711C56.1055 226.224 55.1865 227.146 54.6811 228.295C54.1757 229.445 54.1201 230.741 54.5251 231.93C54.9301 233.12 55.7667 234.118 56.872 234.731C55.7794 234.813 54.7432 235.242 53.9168 235.955C53.0905 236.667 52.5181 237.625 52.2844 238.687C52.0507 239.748 52.1682 240.856 52.6194 241.848C53.0706 242.839 53.8315 243.66 54.7895 244.19C53.5664 244.288 52.4211 244.822 51.5647 245.692C50.7082 246.562 50.1981 247.711 50.1285 248.926C50.0588 250.141 50.4342 251.34 51.1854 252.304C51.9367 253.268 53.0134 253.93 54.2171 254.17L113.292 268.475C113.981 268.616 114.691 268.611 115.377 268.462C116.063 268.313 116.709 268.022 117.274 267.609C117.966 267.11 118.52 266.447 118.884 265.68C119.249 264.913 119.413 264.067 119.361 263.219C119.309 262.372 119.043 261.551 118.587 260.832C118.131 260.113 117.501 259.519 116.753 259.105C117.935 259.003 119.043 258.495 119.887 257.67C120.732 256.845 121.26 255.753 121.38 254.583Z" fill="black"/>
<path d="M174.325 126.76C174.24 126.75 174.158 126.729 174.086 126.7C174.014 126.671 173.954 126.635 173.912 126.595C173.87 126.554 173.846 126.511 173.843 126.468C173.84 126.425 173.858 126.384 173.894 126.348C173.926 126.32 173.97 126.297 174.023 126.28C174.077 126.263 174.139 126.252 174.205 126.249C174.272 126.246 174.341 126.25 174.409 126.261C174.476 126.272 174.541 126.29 174.597 126.313C174.696 126.349 174.772 126.398 174.815 126.454C174.858 126.509 174.864 126.567 174.832 126.619C174.801 126.671 174.734 126.713 174.642 126.738C174.549 126.764 174.438 126.772 174.325 126.76Z" fill="black"/>
<path d="M83.7779 206.827L62.0749 201.669C62.5758 198.038 65.7256 182.195 66.0767 179.239C66.0807 179.207 66.0783 179.174 66.0697 179.143C66.0611 179.112 66.0464 179.083 66.0265 179.057C66.0067 179.032 65.982 179.011 65.9539 178.995C65.9259 178.979 65.895 178.969 65.8631 178.966C65.7991 178.96 65.7352 178.979 65.6847 179.019C65.6342 179.059 65.6009 179.117 65.5917 179.182C65.2109 182.378 61.4485 201.192 61.5641 201.916C61.5709 201.947 61.5839 201.976 61.6022 202.002C61.7033 202.138 83.8242 207.346 83.6967 207.316C83.7611 207.327 83.8271 207.311 83.8802 207.273C83.9333 207.235 83.9692 207.177 83.9799 207.112C83.9907 207.047 83.9755 206.981 83.9376 206.927C83.8997 206.874 83.8423 206.838 83.7779 206.827Z" fill="black"/>
<path d="M133.322 33.3816C100.063 25.3016 66.8127 45.0775 59.6959 78.5238C58.3121 85.0274 58.0035 91.7145 58.7826 98.3167C58.8593 98.9874 63.6647 119.374 65.6785 131.111C65.692 131.173 65.7289 131.228 65.7814 131.263C65.8339 131.299 65.8981 131.313 65.9606 131.302C66.0231 131.291 66.0791 131.257 66.117 131.206C66.155 131.155 66.172 131.091 66.1645 131.028C64.5985 121.898 59.3436 98.313 59.2631 98.1709C54.3966 56.293 92.2207 23.9078 133.205 33.8575C174.221 43.8211 195.116 90.6481 173.881 126.016C173.863 126.03 173.846 126.045 173.833 126.063C161.041 143.054 153.318 153.317 147.72 163.502C147.69 163.56 147.684 163.627 147.702 163.689C147.721 163.751 147.763 163.803 147.819 163.835C147.876 163.866 147.943 163.874 148.005 163.856C148.067 163.839 148.12 163.797 148.152 163.741C153.722 153.602 161.422 143.368 174.168 126.434C174.202 126.415 174.231 126.387 174.252 126.353C195.741 90.6999 174.694 43.4318 133.322 33.3816Z" fill="black"/>
<path d="M116.515 81.2035L102.062 77.7284C99.9483 77.1716 97.7348 77.1011 95.5917 77.5224C93.4486 77.9436 91.4333 78.8453 89.7008 80.1581C87.9683 81.4709 86.5649 83.1597 85.5986 85.0945C84.6324 87.0293 84.129 89.1585 84.1274 91.3181C84.1274 91.3831 84.1536 91.4456 84.2002 91.4916C84.2468 91.5377 84.31 91.5637 84.3758 91.5638C84.4417 91.5639 84.5048 91.5382 84.5513 91.4923C84.5979 91.4464 84.624 91.3841 84.6239 91.319C84.626 89.2339 85.1126 87.1782 86.0461 85.3103C86.9797 83.4425 88.3352 81.8123 90.0085 80.5454C91.6818 79.2784 93.628 78.4085 95.6974 78.0026C97.7668 77.5967 99.904 77.6657 101.945 78.2042L116.432 81.6856C116.494 81.6894 116.554 81.6706 116.602 81.633C116.65 81.5953 116.682 81.5414 116.693 81.4816C116.703 81.4218 116.69 81.3603 116.657 81.309C116.625 81.2577 116.574 81.2201 116.515 81.2035Z" fill="black"/>
<path d="M182.796 127.029C162.067 120.519 147.657 117.391 128.825 115.555L126.475 121.37C122.837 118.07 132.221 102.85 136.727 96.9045C147.977 98.7971 175.337 104.14 186.073 109.703C186.772 115.677 185.629 121.723 182.796 127.029Z" fill="#4FB4F7"/>
<path d="M131.033 95.9601C126.569 101.31 122.85 107.23 119.974 113.564L103.15 111.474C103.039 106.292 104.758 97.6655 105.743 92.989L112.013 93.7826C112.805 93.9045 113.615 93.8324 114.372 93.5726C115.119 93.2973 115.793 92.8586 116.345 92.2891L116.359 92.2761L122.977 92.951C122.843 94.1845 123.516 94.9649 125.518 95.2031C127.113 95.3958 128.971 95.6505 131.033 95.9601Z" fill="#4FB4F7"/>
<path d="M97.5637 112.689C83.5752 111.087 69.5754 109.348 53.7729 110.383C51.8336 104.728 52.0181 98.5512 54.2916 93.0177C69.743 91.5897 85.2856 91.4917 100.75 92.7249C99.0656 99.2647 97.9988 105.949 97.5637 112.689V112.689Z" fill="#4FB4F7"/>
<path d="M46.4244 184.769L33.0055 157.871L40.2688 160.342C40.3306 160.361 40.3972 160.355 40.4545 160.326C40.5118 160.297 40.5555 160.247 40.5763 160.187C40.5971 160.127 40.5934 160.061 40.566 160.003C40.5387 159.946 40.4897 159.901 40.4295 159.878L32.5956 157.212C32.5647 157.201 32.5319 157.196 32.4992 157.198C32.4665 157.2 32.4345 157.208 32.405 157.222C32.3756 157.236 32.3492 157.256 32.3276 157.28C32.306 157.304 32.2894 157.333 32.2789 157.363L29.5979 165.081C29.5774 165.143 29.5823 165.21 29.6114 165.268C29.6406 165.325 29.6917 165.37 29.7537 165.391C29.8156 165.412 29.8835 165.409 29.9426 165.381C30.0017 165.353 30.0472 165.303 30.0693 165.242L32.5561 158.083L45.9759 184.984C46.0051 185.043 46.0567 185.088 46.1194 185.109C46.1821 185.131 46.2507 185.126 46.3102 185.098C46.3697 185.069 46.4151 185.018 46.4365 184.957C46.4579 184.895 46.4536 184.827 46.4244 184.769Z" fill="black"/>
<path d="M145.597 248.325C144.997 248.264 144.43 248.026 143.965 247.643C143.501 247.259 143.161 246.746 142.988 246.169C142.815 245.592 142.817 244.977 142.994 244.401C143.171 243.825 143.515 243.315 143.982 242.934C144.449 242.554 145.018 242.32 145.618 242.263C146.217 242.206 146.82 242.328 147.351 242.614C147.881 242.9 148.314 243.336 148.596 243.869C148.879 244.401 148.997 245.005 148.935 245.604C148.853 246.408 148.456 247.146 147.829 247.656C147.203 248.166 146.4 248.407 145.597 248.325ZM146.161 242.789C145.665 242.738 145.165 242.835 144.724 243.069C144.283 243.302 143.921 243.661 143.684 244.1C143.447 244.539 143.346 245.039 143.393 245.535C143.44 246.032 143.633 246.504 143.948 246.89C144.263 247.277 144.686 247.562 145.163 247.709C145.64 247.855 146.149 247.857 146.627 247.714C147.105 247.571 147.53 247.289 147.848 246.905C148.166 246.52 148.363 246.05 148.413 245.554C148.481 244.888 148.282 244.223 147.86 243.704C147.438 243.185 146.827 242.855 146.162 242.786L146.161 242.789Z" fill="black"/>
<path d="M65.942 46.3138C65.8084 46.3002 66.3045 46.6386 57.2907 39.8002C57.2368 39.7593 57.2011 39.6979 57.1912 39.6294C57.1814 39.5609 57.1982 39.491 57.2381 39.435C57.278 39.379 57.3377 39.3416 57.404 39.3309C57.4703 39.3203 57.5378 39.3373 57.5916 39.3781L66.1135 45.8367C66.1594 45.8698 66.1932 45.9177 66.2097 45.973C66.2263 46.0283 66.2246 46.0878 66.2051 46.1423C66.1855 46.1968 66.1491 46.2432 66.1015 46.2742C66.0539 46.3052 65.9978 46.3192 65.942 46.3138Z" fill="black"/>
<path d="M108.804 18.3723L106.302 8.4026C106.286 8.339 106.299 8.27319 106.339 8.21965C106.379 8.1661 106.442 8.12921 106.515 8.11708C106.587 8.10495 106.663 8.11859 106.725 8.15499C106.788 8.19138 106.832 8.24756 106.847 8.31116L109.35 18.2809C109.366 18.3445 109.352 18.4103 109.312 18.4638C109.273 18.5174 109.209 18.5543 109.137 18.5664C109.065 18.5785 108.989 18.5649 108.927 18.5285C108.864 18.4921 108.82 18.4359 108.804 18.3723Z" fill="black"/>
<path d="M162.244 27.5617C162.2 27.5569 162.158 27.5411 162.123 27.5157C162.087 27.4902 162.059 27.4561 162.04 27.4166C162.022 27.3771 162.014 27.3335 162.017 27.2902C162.021 27.2468 162.036 27.2051 162.061 27.1692L168.039 18.5934C168.077 18.5387 168.135 18.5012 168.202 18.4892C168.268 18.4772 168.336 18.4917 168.391 18.5295C168.447 18.5673 168.484 18.6253 168.497 18.6908C168.509 18.7562 168.494 18.8237 168.456 18.8785C162.069 28.0328 162.475 27.5853 162.244 27.5617Z" fill="black"/>
<path d="M196.965 67.3327C196.908 67.3261 196.855 67.2989 196.815 67.2556C196.774 67.2123 196.748 67.1554 196.742 67.0941C196.735 67.0327 196.748 66.9704 196.778 66.9171C196.808 66.8639 196.854 66.8228 196.908 66.8004L207.021 62.769C207.084 62.7469 207.152 62.7518 207.211 62.7826C207.271 62.8133 207.316 62.8676 207.338 62.9341C207.36 63.0006 207.357 63.0741 207.33 63.1392C207.303 63.2043 207.254 63.2561 207.193 63.2836C196.82 67.4105 197.101 67.3465 196.965 67.3327Z" fill="black"/>
<path d="M30.4232 64.6329L20.8432 62.9639C20.811 62.9583 20.7803 62.9487 20.7527 62.9355C20.7251 62.9223 20.7013 62.9059 20.6825 62.8871C20.6638 62.8684 20.6505 62.8477 20.6434 62.8262C20.6363 62.8047 20.6355 62.7829 20.6411 62.762C20.6468 62.741 20.6587 62.7214 20.6762 62.7042C20.6937 62.687 20.7165 62.6726 20.7432 62.6617C20.77 62.6509 20.8001 62.6438 20.832 62.6409C20.8639 62.6381 20.8968 62.6395 20.929 62.6451L30.489 64.3147C30.5461 64.329 30.5954 64.356 30.6279 64.3909C30.6604 64.4257 30.6738 64.4661 30.6659 64.5046C30.6579 64.5432 30.629 64.5773 30.5845 64.6009C30.54 64.6244 30.4827 64.6358 30.4232 64.6329Z" fill="black"/>
<path d="M205.639 124.442C206.331 124.679 208.412 125.365 208.768 124.73C208.954 124.401 209.3 123.785 202.88 119.823C201.025 118.699 199.112 117.675 197.148 116.755C197.217 116.062 197.517 115.413 198.001 114.912C199.086 113.841 199.487 113.05 199.189 112.558C198.273 111.051 193.084 114.909 189.139 113.309C189.107 113.306 187.419 112.649 186.411 112.27C186.373 111.538 186.306 110.801 186.211 110.068C186.205 110.028 186.191 109.99 186.168 109.957C186.145 109.925 186.114 109.898 186.078 109.879C182.584 108.201 178.955 106.82 175.228 105.75C177.494 105.07 179.598 103.941 181.415 102.429C183.232 100.918 184.724 99.0552 185.801 96.9535C188.523 91.9669 188.905 88.1561 186.936 85.6301C181.837 79.0902 162.796 83.2568 159.21 84.1119C165.825 71.8812 151.423 74.0911 138.427 78.9525C139.947 76.3555 139.411 74.8823 138.649 74.0901C136.261 71.6075 128.492 72.7638 124.099 75.2866C123.155 75.8245 122.249 76.4247 121.385 77.0831C116.257 81.0091 113.921 84.1048 114.44 86.2828C114.829 87.9133 116.709 88.6697 118.33 89.0167C117.213 91.9518 115.185 94.4374 112.059 93.9727C92.7347 91.4042 73.1811 91.0403 53.7763 92.8882C53.7316 92.8926 53.6889 92.9088 53.6526 92.9352C53.6163 92.9615 53.5877 92.9971 53.5697 93.0382C53.2425 93.7965 52.958 94.5726 52.7175 95.3626C49.8641 95.6456 43.8843 93.3919 42.5723 92.578C41.4723 91.8998 40.7272 91.7416 40.3615 92.1099C39.9522 92.5149 40.147 93.3792 40.9395 94.6876C41.3016 95.2877 41.4246 96.0014 41.2843 96.6874C39.1673 97.1025 37.0737 97.6284 35.0122 98.2629C27.8104 100.539 27.9987 101.22 28.1022 101.586C28.2964 102.287 30.4781 102.129 31.2072 102.067C29.6893 102.62 22.2206 105.702 22.7971 107.149C23.2384 108.255 27.866 106.859 29.0447 106.504C28.5176 106.814 27.9697 107.157 27.3991 107.542C25.5248 108.802 25.4973 109.345 25.6393 109.646C25.9856 110.367 27.9035 109.839 28.6724 109.607C29.5222 109.352 30.3172 109.112 31.0607 108.883C30.1929 109.484 28.0223 111.006 28.5066 111.936C28.9352 112.762 30.9408 112.221 31.8191 111.932C36.4409 110.424 47.2927 107.883 52.5046 108.419C52.6657 109.079 52.8512 109.744 53.061 110.413C53.0772 110.466 53.1105 110.511 53.1554 110.542C53.2004 110.574 53.2545 110.589 53.3092 110.586C68.5543 109.61 81.9374 111.182 96.8019 112.884C96.4471 117.902 96.7085 122.946 97.5805 127.902C96.7285 129.571 96.0512 131.323 95.5592 133.131C86.1053 131.646 76.5451 130.942 66.9759 131.026C64.4847 131.038 62.0347 131.66 59.8416 132.838C57.6484 134.016 55.7792 135.715 54.3983 137.783C53.0175 139.852 52.1672 142.227 51.9224 144.701C51.6776 147.175 52.0456 149.671 52.9942 151.97C59.2788 167.341 66.4435 182.338 74.4527 196.889C74.4723 196.924 74.5 196.953 74.5333 196.975C74.5667 196.997 74.6048 197.011 74.6445 197.015C76.2941 197.021 77.9416 196.897 79.5715 196.644C80.6108 199.883 81.2226 203.243 81.3912 206.639C81.9645 214.667 83.4024 222.61 85.68 230.332C85.6951 230.377 85.723 230.417 85.7604 230.447C85.7977 230.477 85.843 230.495 85.8906 230.5C85.9383 230.505 85.9863 230.496 86.029 230.474C86.0716 230.452 86.107 230.419 86.131 230.378C92.8812 218.605 94.7825 208.078 97.3228 200.992C97.3379 200.95 97.3425 200.904 97.3361 200.86C96.1624 197.975 94.7672 195.184 93.1629 192.512L91.9926 190.557C93.2468 189.319 94.366 187.951 95.3315 186.478C95.3574 186.439 95.3717 186.393 95.3727 186.346C95.3737 186.3 95.3614 186.253 95.3372 186.213C89.6162 176.121 84.5755 165.659 80.2487 154.899C84.4359 156.953 88.8111 158.602 93.314 159.821C94.8367 171.419 100.417 182.109 109.069 190.003C111.457 192.222 114.344 193.836 117.487 194.711C120.63 195.585 123.937 195.693 127.13 195.026C142.548 191.782 157.313 185.988 170.814 177.884C170.852 177.861 170.883 177.828 170.904 177.788C170.925 177.749 170.935 177.705 170.932 177.66C170.865 176.181 170.705 174.708 170.452 173.248C173.969 171.986 177.666 171.292 181.403 171.194C189.447 170.707 197.415 169.356 205.169 167.166C205.185 167.161 205.2 167.154 205.215 167.146L205.252 167.12C205.265 167.109 205.277 167.097 205.287 167.084L205.309 167.052L205.33 167.005L205.335 166.957L205.337 166.933C205.338 166.889 205.327 166.846 205.306 166.808C205.285 166.77 205.254 166.739 205.216 166.716C193.578 159.911 183.154 157.882 176.057 155.306C175.766 155.199 175.815 155.202 175.556 155.292C171.795 156.822 168.174 158.673 164.732 160.824C163.716 159.616 162.611 158.484 161.427 157.438C161.39 157.405 161.343 157.384 161.294 157.378C161.245 157.371 161.195 157.38 161.15 157.402C150.022 162.956 137.002 169.66 124.799 171.575C122.102 169.078 119.51 163.744 118.092 159.437C119.996 158.689 121.716 157.543 123.139 156.076C124.561 154.609 125.651 152.855 126.337 150.932C129.342 142.171 123.527 131.049 122.875 129.848L128.394 116.226C147.108 118.073 161.273 121.237 182.59 127.751C182.636 127.765 182.685 127.765 182.73 127.751C182.776 127.737 182.817 127.711 182.849 127.674C182.973 127.517 183.693 125.905 183.865 125.524C189.275 126.606 198.175 131.048 202.642 133.858C203.435 134.357 205.237 135.363 205.855 134.669C206.55 133.886 204.811 131.879 204.122 131.087C205.465 132.069 206.957 132.828 208.542 133.337C208.659 133.363 208.78 133.359 208.895 133.326C209.01 133.293 209.114 133.231 209.199 133.147C209.41 132.892 209.516 132.356 208.004 130.677C207.545 130.167 207.097 129.701 206.661 129.272C207.683 129.881 211.866 132.385 212.564 131.417C213.47 130.155 207.001 125.367 205.639 124.442ZM114.923 86.1677C114.157 82.949 121.665 77.166 124.345 75.7186C126.466 74.5722 128.044 74.452 128.898 75.3664C130.063 76.6054 129.58 79.2499 128.604 80.8525C128.117 81.9734 129.001 82.1657 130.224 81.9841C132.813 81.6039 132.317 85.4654 127.854 85.168C127.331 85.3005 126.863 85.5912 126.512 86.0002C125.032 88.4886 123.177 91.3458 122.874 93.0965L116.921 92.4894C117.247 92.1065 117.541 91.6975 117.799 91.2666C119.137 90.6739 120.443 90.0105 121.71 89.2792C121.738 89.2436 121.755 89.2011 121.761 89.1562C121.766 89.1113 121.759 89.0658 121.741 89.0246C121.722 88.9833 121.692 88.948 121.655 88.9223C121.618 88.8967 121.574 88.8817 121.529 88.879C120.584 88.8391 119.643 88.7431 118.71 88.5914C117.176 88.2971 115.275 87.6406 114.923 86.1677ZM116.491 92.944L122.818 93.5893C122.784 94.9115 123.702 95.668 125.617 95.8978C127.103 96.0771 128.826 96.3125 130.745 96.597C126.39 101.915 122.742 107.773 119.893 114.024L103.31 111.963C103.252 106.024 105.531 95.3232 105.888 93.6814C107.99 93.9143 110.021 94.1759 111.986 94.4638C112.805 94.5929 113.643 94.5222 114.429 94.2576C115.214 93.9931 115.923 93.5425 116.496 92.9445L116.491 92.944ZM31.6997 105.118C25.2698 107.342 23.4016 107.188 23.2567 106.968C23.2203 106.751 24.1782 105.657 28.8775 103.546C31.9741 102.199 35.2053 101.185 38.5167 100.519C37.657 101.418 36.8935 102.403 36.2385 103.46C34.6936 103.921 33.1779 104.475 31.6997 105.118ZM28.5282 109.132C26.704 109.681 26.1409 109.509 26.0901 109.434C26.0901 109.434 26.0455 109.05 27.6786 107.953C30.1806 106.238 32.945 104.939 35.8642 104.107C35.3836 104.966 34.9876 105.87 34.6817 106.805C33.9507 107.185 33.338 107.5 32.7715 107.818C31.596 108.206 30.1525 108.643 28.5282 109.132ZM31.6656 111.458C29.9874 112.007 29.0662 111.934 28.9474 111.704C28.9373 111.686 28.7306 111.225 30.6594 109.782C31.8604 108.895 33.1402 108.12 34.4827 107.466C34.3502 107.934 34.257 108.412 34.204 108.896C34.1988 108.961 34.2192 109.025 34.2608 109.074C34.3024 109.124 34.362 109.156 34.4266 109.162C34.493 109.168 34.5586 109.147 34.6096 109.104C34.6606 109.061 34.6929 109.001 34.6996 108.934C35.1038 104.308 39.4381 100.342 39.5081 100.217C39.5376 100.178 39.555 100.132 39.5583 100.083C39.5616 100.035 39.5506 99.9866 39.5266 99.9443C39.5026 99.902 39.4667 99.8677 39.4234 99.8456C39.3801 99.8235 39.3312 99.8146 39.2828 99.82C39.1478 99.8407 35.8173 100.608 33.9654 101.153C31.6788 101.676 28.8414 101.763 28.5811 101.475C28.6107 101.355 29.0634 100.655 35.1564 98.7244C37.1615 98.1075 39.1974 97.5948 41.2558 97.1883C41.252 97.5701 41.2943 97.951 41.3819 98.3227C42.0136 101.038 43.6978 102.763 46.5181 102.531C46.5805 102.521 46.6372 102.489 46.6765 102.44C46.7158 102.39 46.7348 102.328 46.7297 102.265C46.7246 102.203 46.6958 102.144 46.649 102.102C46.6023 102.059 46.5411 102.036 46.478 102.037C43.4636 102.284 42.3054 100.092 41.8663 98.2103C41.4852 96.5807 42.2556 95.8917 41.3589 94.4189C40.5748 93.1312 40.588 92.5718 40.7048 92.4565C40.8215 92.3411 41.2656 92.3506 42.3106 92.9941C43.6753 93.8385 49.5014 96.0501 52.5691 95.8671C51.498 99.7977 51.4334 103.934 52.3811 107.897C46.9281 107.407 35.9068 110.073 31.6616 111.458L31.6656 111.458ZM53.478 110.077C51.6351 104.628 51.8106 98.7003 53.9729 93.3709C69.2487 91.9964 84.614 91.9076 99.9059 93.1057C98.3062 99.4275 97.279 105.88 96.8367 112.386C82.0935 110.694 68.7158 109.122 53.4741 110.076L53.478 110.077ZM124.546 172.021C126.9 174.543 127.649 175.361 127.92 175.629C128.116 175.824 128.152 175.785 128.372 175.652C128.976 175.275 131.264 173.723 140.405 167.6C147.216 164.917 154.251 161.4 161.222 157.925C164.059 160.358 166.347 163.364 167.933 166.745C169.519 170.126 170.368 173.804 170.424 177.535C157.008 185.57 142.344 191.316 127.033 194.538C123.918 195.189 120.692 195.084 117.626 194.231C114.559 193.379 111.743 191.804 109.413 189.639C102.044 182.925 96.902 174.129 94.6739 164.425C101.834 163.897 108.904 162.518 115.735 160.316C116.384 160.126 117.022 159.9 117.645 159.638C119.096 164.041 121.768 169.503 124.546 172.021ZM125.868 150.777C125.18 152.688 124.081 154.425 122.649 155.867C121.216 157.31 119.485 158.422 117.577 159.126L114.663 160.131C107.903 162.033 100.391 161.194 93.6002 159.385C88.8889 158.125 84.3197 156.386 79.9646 154.193C78.8694 151.554 78.0367 149.063 78.0274 149.037C78.0064 148.974 77.9615 148.923 77.9025 148.893C77.8434 148.864 77.7751 148.859 77.7125 148.88C77.65 148.901 77.5983 148.946 77.5689 149.004C77.5395 149.063 77.5347 149.132 77.5556 149.194C79.3324 154.985 88.2111 175.203 94.8262 186.326C90.17 193.304 83.3904 196.468 74.8203 196.516C66.8489 182.023 59.7148 167.088 53.4531 151.782C52.5357 149.559 52.1797 147.144 52.4166 144.751C52.6534 142.358 53.4758 140.061 54.8115 138.06C56.1471 136.059 57.955 134.416 60.0763 133.277C62.1976 132.137 64.5673 131.535 66.977 131.523C76.6063 131.414 86.2276 132.129 95.735 133.661C98.9182 134.172 102.072 134.853 105.182 135.702C105.636 135.764 105.582 135.297 105.337 135.231C102.278 134.404 99.1796 133.73 96.0532 133.212C96.5257 131.447 97.1899 129.74 98.034 128.119C98.0579 128.091 98.0752 128.058 98.0843 128.022C98.0935 127.986 98.0944 127.949 98.087 127.913C95.228 113.414 99.8541 95.2162 100.402 93.151C102.096 93.2938 103.758 93.4536 105.389 93.6304C104.989 95.4668 102.694 106.306 102.814 112.192L102.811 112.217C102.816 112.255 102.83 112.292 102.852 112.324C102.874 112.355 102.903 112.381 102.937 112.4C103.05 112.451 119.99 114.545 120.064 114.544C120.648 114.429 123.304 106.231 131.318 96.6887C132.726 96.9026 134.211 97.1389 135.757 97.3959C132.418 101.889 121.821 117.933 125.575 121.873L122.37 129.778L122.358 129.815C122.348 129.863 122.351 129.912 122.368 129.958L122.384 129.994C122.456 130.106 128.962 141.756 125.874 150.775L125.868 150.777ZM128.259 115.719C127.959 115.719 128.1 115.638 125.786 121.351C123.179 117.832 131.32 104.085 136.305 97.4903C148.281 99.5072 175.092 104.833 185.728 110.262C186.384 116.106 185.272 122.011 182.538 127.218C161.273 120.561 147.052 117.547 128.264 115.717L128.259 115.719ZM205.478 134.342C205.307 134.534 204.395 134.382 202.902 133.442C198.319 130.561 189.57 126.208 184.057 125.063C185.705 121.192 186.513 117.017 186.428 112.811C190.165 114.223 190.723 114.987 197.069 112.948C198.238 112.572 198.681 112.692 198.758 112.816C198.834 112.941 198.72 113.502 197.65 114.559C196.445 115.747 196.999 116.781 195.928 118.415C194.733 120.23 192.623 122.161 189.329 121.056C189.298 121.046 189.266 121.041 189.233 121.044C189.201 121.046 189.169 121.055 189.14 121.069C189.11 121.084 189.084 121.104 189.063 121.128C189.041 121.153 189.025 121.181 189.015 121.212C189.004 121.243 189 121.276 189.002 121.308C189.004 121.341 189.013 121.372 189.028 121.402C189.042 121.431 189.062 121.457 189.087 121.478C189.112 121.5 189.14 121.516 189.171 121.526C192.132 122.52 194.628 121.288 196.343 118.688C196.641 118.244 196.87 117.758 197.021 117.246C198.938 118.148 200.807 119.149 202.619 120.245C208.051 123.598 208.328 124.39 208.347 124.474C208.004 124.729 205.273 123.954 203.183 122.887C201.631 121.974 198.477 120.352 198.345 120.299C198.302 120.283 198.255 120.281 198.21 120.291C198.164 120.301 198.123 120.323 198.09 120.355C198.057 120.387 198.033 120.428 198.022 120.473C198.011 120.517 198.013 120.564 198.027 120.608L198.034 120.629L198.048 120.658C199.949 123.482 200.839 126.863 200.574 130.254C200.565 130.318 200.582 130.382 200.62 130.434C200.658 130.486 200.715 130.522 200.779 130.532C200.843 130.543 200.908 130.529 200.961 130.492C201.014 130.456 201.051 130.4 201.064 130.337C201.132 129.854 201.16 129.366 201.146 128.878C202.291 129.838 203.345 130.902 204.294 132.056C205.814 133.929 205.499 134.325 205.484 134.34L205.478 134.342ZM207.623 131.011C208.936 132.471 208.805 132.834 208.805 132.834C208.736 132.894 208.148 132.926 206.511 131.949C202.003 129.261 203.075 129.937 201.11 128.194C201.042 127.212 200.878 126.24 200.621 125.29C203.248 126.811 205.614 128.742 207.629 131.009L207.623 131.011ZM212.15 131.128C211.953 131.314 210.103 131.004 204.409 127.29C203.132 126.306 201.797 125.4 200.411 124.576C200.032 123.392 199.531 122.251 198.917 121.17C202.393 122.949 203.096 123.424 202.97 123.35C208.046 126.318 212.416 130.522 212.151 131.126L212.15 131.128Z" fill="black"/>
<path d="M118.382 117.702C102.283 115.864 103.156 115.859 103.021 115.979C102.887 116.099 102.975 115.509 102.846 126.27C102.844 126.438 102.455 126.05 108.364 131.215C108.402 131.247 108.449 131.267 108.498 131.272C108.548 131.277 108.597 131.267 108.641 131.243C115.761 127.395 115.375 127.624 115.419 127.487C118.753 117.376 118.654 117.961 118.562 117.812C118.542 117.781 118.516 117.755 118.485 117.736C118.454 117.717 118.419 117.705 118.382 117.702ZM114.985 127.239L108.559 130.72L103.339 126.158L103.426 116.453L118.022 118.168L114.985 127.239Z" fill="black"/>
<path d="M57.6111 95.4682C57.5963 95.7403 57.7353 96.014 57.9988 96.2313C58.2623 96.4486 58.6296 96.5925 59.023 96.6326C59.4165 96.6728 59.8053 96.6059 60.1072 96.4463C60.4091 96.2867 60.6005 96.0467 60.6409 95.7772C60.6558 95.5051 60.5167 95.2314 60.2533 95.0141C59.9898 94.7968 59.6225 94.6529 59.229 94.6128C58.8356 94.5726 58.4468 94.6394 58.1449 94.7991C57.8429 94.9587 57.6515 95.1987 57.6111 95.4682Z" fill="black"/>
<path d="M73.93 105.551C73.8959 105.886 73.9961 106.221 74.2087 106.482C74.4213 106.743 74.7289 106.908 75.0637 106.942C75.3985 106.977 75.7332 106.876 75.9941 106.664C76.255 106.451 76.4207 106.144 76.4549 105.809C76.489 105.474 76.3888 105.139 76.1761 104.878C75.9635 104.618 75.656 104.452 75.3212 104.418C74.9864 104.383 74.6517 104.484 74.3908 104.696C74.1299 104.909 73.9642 105.216 73.93 105.551Z" fill="black"/>
<path d="M94.2783 96.1467C94.2374 96.5484 94.3045 96.9446 94.4649 97.248C94.6253 97.5514 94.8659 97.7372 95.1338 97.7646C95.4016 97.7919 95.6748 97.6585 95.8932 97.3937C96.1115 97.1289 96.2572 96.7544 96.2982 96.3527C96.3392 95.9509 96.2721 95.5547 96.1117 95.2513C95.9512 94.9479 95.7106 94.7621 95.4428 94.7348C95.1749 94.7074 94.9018 94.8408 94.6834 95.1056C94.465 95.3704 94.3193 95.7449 94.2783 96.1467Z" fill="black"/>
<path d="M140.102 102.096C140.068 102.431 140.168 102.765 140.381 103.026C140.593 103.287 140.901 103.453 141.236 103.487C141.571 103.521 141.905 103.421 142.166 103.208C142.427 102.996 142.593 102.688 142.627 102.353C142.661 102.019 142.561 101.684 142.348 101.423C142.136 101.162 141.828 100.996 141.493 100.962C141.158 100.928 140.824 101.028 140.563 101.241C140.302 101.454 140.136 101.761 140.102 102.096Z" fill="black"/>
<path d="M113.9 108.863C113.917 108.591 113.805 108.32 113.589 108.107C113.372 107.895 113.068 107.757 112.74 107.724C112.412 107.69 112.087 107.764 111.832 107.928C111.577 108.093 111.413 108.335 111.375 108.605C111.358 108.877 111.469 109.148 111.686 109.36C111.902 109.573 112.206 109.71 112.534 109.744C112.862 109.777 113.188 109.704 113.443 109.54C113.698 109.375 113.861 109.132 113.9 108.863Z" fill="black"/>
<path d="M157.019 116.322C157.004 116.594 157.143 116.868 157.407 117.085C157.67 117.302 158.037 117.446 158.431 117.486C158.824 117.526 159.213 117.459 159.515 117.3C159.817 117.14 160.008 116.9 160.049 116.631C160.064 116.359 159.925 116.085 159.661 115.868C159.398 115.65 159.03 115.506 158.637 115.466C158.243 115.426 157.855 115.493 157.553 115.653C157.251 115.812 157.059 116.052 157.019 116.322Z" fill="black"/>
<path d="M178.897 111.92C178.87 112.188 178.976 112.459 179.194 112.672C179.411 112.886 179.722 113.025 180.056 113.059C180.391 113.093 180.723 113.019 180.979 112.854C181.235 112.689 181.394 112.446 181.422 112.178C181.449 111.91 181.342 111.639 181.125 111.426C180.907 111.212 180.597 111.073 180.262 111.039C179.928 111.005 179.596 111.079 179.34 111.244C179.083 111.409 178.924 111.652 178.897 111.92Z" fill="black"/>
</svg>
