<svg width="553" height="467" viewBox="0 0 553 467" fill="none" xmlns="http://www.w3.org/2000/svg">
<path d="M130.576 248.56C130.577 248.553 130.579 248.548 130.583 248.542C146.974 240.013 164.171 230.29 180.387 220.422C180.394 220.42 180.402 220.421 180.409 220.423C180.42 220.426 180.431 220.434 180.438 220.445C180.445 220.457 180.448 220.472 180.446 220.486C180.444 220.495 180.441 220.502 180.437 220.509C164.208 230.368 146.999 240.109 130.627 248.628C130.621 248.628 130.615 248.627 130.608 248.625C130.598 248.621 130.588 248.613 130.581 248.601C130.575 248.589 130.573 248.574 130.576 248.56Z" fill="#10162F" stroke="#10162F"/>
<path d="M229.892 122.747L230.121 122.997L230.438 122.877C249.955 115.464 265.325 111.334 276.387 110.126C276.917 110.068 277.437 110.016 277.947 109.972C277.277 110.033 276.59 110.106 275.886 110.191C265.002 111.502 249.936 115.643 230.866 122.877L230.18 123.137L230.673 123.681C242.053 136.229 250.444 151.232 255.207 167.545L255.42 168.274L256.005 167.791C266.746 158.925 275.34 150.956 281.831 143.974C275.252 151.093 266.52 159.2 255.572 168.188L255.321 168.394L255.408 168.708C262.479 194.319 260.279 221.632 249.202 245.756L249.201 245.758C249.194 245.774 249.181 245.785 249.168 245.79L249.344 246.258L249.168 245.79C249.154 245.795 249.14 245.795 249.126 245.789C249.113 245.782 249.101 245.77 249.095 245.754C249.089 245.738 249.09 245.719 249.097 245.704C260.117 221.763 262.366 194.658 255.444 169.203L255.243 168.461L254.646 168.947C245.755 176.19 235.617 183.872 224.289 191.877L224.257 191.9L224.229 191.927C224.224 191.933 224.217 191.936 224.211 191.939L224.375 192.411L224.211 191.939C224.204 191.941 224.197 191.942 224.191 191.941C224.184 191.94 224.177 191.938 224.171 191.934C224.165 191.93 224.159 191.925 224.154 191.918C224.15 191.912 224.147 191.904 224.145 191.895L223.652 191.974L224.145 191.895C224.144 191.887 224.144 191.878 224.147 191.87L223.665 191.734L224.147 191.869C224.148 191.866 224.149 191.863 224.15 191.86C224.152 191.856 224.155 191.851 224.158 191.848L223.778 191.523L224.158 191.848C224.163 191.842 224.169 191.837 224.176 191.834L224.219 191.815L224.257 191.788C235.688 183.713 245.962 175.928 254.96 168.552L255.215 168.343L255.123 168.026C247.679 142.283 231.29 120.102 208.956 105.544C186.622 90.9859 159.835 85.0242 133.498 88.7506C107.162 92.4769 83.0368 105.642 65.5382 125.835C48.0397 146.029 38.3373 171.9 38.2055 198.715V198.716C38.0978 227.781 49.3819 255.713 69.6018 276.428L69.8343 276.667L70.1438 276.544C78.0175 273.422 86.3542 269.911 95.1539 266.011L95.2027 265.989L95.2458 265.958C95.2519 265.953 95.2587 265.95 95.2656 265.949C95.2725 265.948 95.2795 265.948 95.2862 265.95C95.293 265.952 95.2997 265.955 95.3056 265.96C95.3114 265.966 95.3164 265.972 95.3199 265.98C95.3234 265.988 95.3251 265.997 95.3248 266.006C95.3246 266.015 95.3223 266.023 95.3185 266.031C95.3146 266.038 95.3092 266.045 95.3032 266.049C95.2971 266.054 95.2904 266.057 95.2835 266.058L95.2297 266.07L95.1797 266.092C86.5448 270.008 78.3214 273.541 70.6231 276.459L69.9089 276.73L70.4428 277.276C81.5966 288.687 95.0731 297.522 109.942 303.171C124.812 308.82 140.72 311.149 156.568 309.996L156.608 309.993L156.647 309.984C156.653 309.982 156.661 309.982 156.667 309.983C156.674 309.985 156.681 309.988 156.687 309.993L157 309.603L156.687 309.993C156.693 309.998 156.699 310.004 156.702 310.012C156.704 310.016 156.705 310.02 156.706 310.024C156.708 310.028 156.708 310.033 156.708 310.038C156.708 310.047 156.706 310.056 156.702 310.064C156.699 310.071 156.693 310.078 156.687 310.083C156.681 310.087 156.674 310.091 156.667 310.092C156.661 310.094 156.654 310.094 156.647 310.092L156.572 310.074L156.495 310.08C140.547 311.255 124.537 308.905 109.583 303.194C94.6283 297.484 81.0898 288.551 69.9127 277.017L69.6823 276.78L69.3735 276.899C49.2397 284.677 33.3869 289.072 21.9668 290.457C16.2549 291.15 11.6817 291.086 8.24785 290.334C4.81368 289.582 2.58091 288.157 1.43695 286.179C0.292689 284.2 0.169168 281.548 1.21724 278.188C2.2651 274.83 4.46695 270.826 7.87383 266.216C14.6855 257 26.2429 245.456 42.7335 231.938L42.9924 231.726L42.8948 231.405C35.5282 207.235 36.5173 181.259 45.7003 157.73C54.8832 134.201 71.7153 114.513 93.44 101.891C115.165 89.2683 140.495 84.4579 165.283 88.2468C190.072 92.0356 212.852 104.199 229.892 122.747ZM296.107 114.706C294.926 112.597 292.684 111.179 289.525 110.415C289.57 110.425 289.615 110.436 289.66 110.446C292.974 111.242 295.124 112.687 296.215 114.672C297.026 116.146 297.288 117.981 296.942 120.19C297.233 118.082 296.968 116.241 296.107 114.706ZM1.53773 286.063L1.53844 286.064C2.87099 288.378 5.54255 289.783 9.23526 290.418C12.9362 291.055 17.7554 290.937 23.5363 290.118C35.1031 288.481 50.6393 284.022 69.0359 277.014L69.7453 276.744L69.2168 276.199C57.2901 263.897 48.393 248.944 43.2415 232.541L43.0196 231.835L42.4473 232.305C27.2561 244.771 15.8292 255.989 8.79427 265.154C5.27829 269.735 2.84134 273.826 1.58805 277.321C0.337644 280.808 0.236597 283.789 1.53773 286.063Z" fill="#10162F" stroke="#10162F"/>
<path d="M430.653 184.135L430.779 183.965L430.745 183.756C429.653 177.049 432.379 171.586 435.977 169.667C437.759 168.717 439.768 168.619 441.713 169.657C443.628 170.68 445.534 172.833 447.069 176.494C446.356 177.361 445.825 178.366 445.508 179.448C445.162 180.63 445.08 181.874 445.268 183.092L446.108 188.934C446.108 188.935 446.108 188.935 446.108 188.935C446.293 190.259 446.785 191.52 447.545 192.616C448.249 193.63 449.163 194.476 450.224 195.095C450.273 201.346 448.693 204.614 446.627 206.217C444.521 207.851 441.755 207.88 439.231 207.323L438.711 207.208L438.629 207.734C438.277 209.999 438.254 212.304 438.56 214.574C437.008 214.843 435.416 214.786 433.884 214.407C432.2 213.989 430.632 213.193 429.297 212.076L429.29 212.07L429.282 212.064C427.724 210.858 426.211 209.595 424.746 208.277C425.071 208.279 425.392 208.216 425.694 208.068C426.127 207.856 426.477 207.491 426.739 206.997C427.253 206.03 427.47 204.505 427.346 202.336C427.222 200.149 426.747 197.24 425.808 193.452L425.764 193.276L425.617 193.169C421.019 189.816 420.331 186.131 421.133 184.026C421.538 182.963 422.31 182.297 423.178 182.146C424.038 181.997 425.131 182.33 426.225 183.555C427.019 184.452 427.653 185.015 428.175 185.324C428.699 185.634 429.2 185.735 429.646 185.53C430.052 185.342 430.265 184.958 430.388 184.701C430.433 184.609 430.477 184.507 430.514 184.421C430.529 184.386 430.543 184.354 430.555 184.326C430.606 184.212 430.635 184.158 430.653 184.135Z" fill="#E6E7E8" stroke="#10162F"/>
<path d="M537.448 108.297L538.389 108.631C538.723 107.852 539.204 106.99 539.7 106.293C539.948 105.945 540.193 105.648 540.418 105.426C540.652 105.195 540.827 105.084 540.93 105.049C540.932 105.048 540.935 105.047 540.937 105.047C540.978 105.115 541.047 105.294 541.076 105.683C541.138 106.546 540.977 108.092 540.427 110.608L540.426 110.611C539.18 116.478 535.93 123.738 532.972 129.558C531.495 132.462 530.098 134.997 529.069 136.806C528.555 137.71 528.133 138.432 527.84 138.928C527.819 138.964 527.798 138.999 527.778 139.033C523.484 133.016 517.626 128.308 510.847 125.431C510.863 125.4 510.88 125.367 510.897 125.333C511.085 124.955 511.352 124.405 511.665 123.714C512.291 122.333 513.105 120.385 513.854 118.119C515.348 113.604 516.614 107.75 515.573 102.576C514.973 99.5863 514.655 97.3541 514.599 95.8484C514.571 95.0913 514.611 94.5521 514.697 94.2031C514.763 93.9393 514.833 93.8633 514.854 93.8456C514.881 93.8471 515.014 93.8633 515.296 94.0871C515.609 94.3346 516.002 94.7556 516.476 95.3731C517.421 96.6031 518.621 98.5232 520.067 101.134L520.067 101.134L520.073 101.143C520.46 101.807 520.798 102.498 521.084 103.212L521.615 104.535L522.027 103.17C523.307 98.9285 524.338 94.6145 525.114 90.2504C525.539 87.9484 526.009 86.2032 526.479 85.045C526.715 84.4631 526.941 84.0561 527.142 83.8036C527.355 83.5365 527.467 83.5311 527.468 83.5311C527.47 83.5311 527.473 83.5312 527.48 83.5336C527.488 83.5363 527.503 83.5429 527.526 83.5589C527.573 83.5923 527.643 83.66 527.727 83.7865C527.898 84.0427 528.082 84.4668 528.258 85.0955C528.609 86.3454 528.9 88.2759 529.08 90.951C529.175 92.8025 529.175 94.6578 529.08 96.5092L530.049 96.7059C530.898 94.3746 531.656 91.755 532.412 88.8242L532.412 88.8226C533.209 85.6876 533.938 83.8146 534.523 82.9481C534.666 82.7359 534.785 82.6082 534.874 82.5384C534.914 82.507 534.942 82.4922 534.958 82.4853C534.989 82.5071 535.075 82.5869 535.189 82.8562C535.517 83.635 535.732 85.2468 535.729 87.5886C535.726 89.9042 535.511 92.8645 535.028 96.2897L536.01 96.4734C536.482 94.4574 536.939 92.9038 537.367 91.7564C537.8 90.5953 538.188 89.8955 538.499 89.5455C538.654 89.3706 538.751 89.3292 538.78 89.3218C538.781 89.3214 538.783 89.3211 538.784 89.3209C538.788 89.3229 538.797 89.3278 538.811 89.339C538.866 89.3828 538.956 89.4908 539.056 89.7133C539.153 89.9293 539.245 90.2196 539.325 90.5864C539.65 92.065 539.738 94.5509 539.461 97.6595C539.184 100.757 538.549 104.439 537.448 108.297Z" fill="#FEFEFE" stroke="#10162F"/>
<path d="M346.544 104.342L346.548 104.35L346.552 104.357L346.554 104.359L346.558 104.367L346.572 104.394C346.577 104.404 346.583 104.414 346.589 104.426C346.598 104.443 346.608 104.462 346.619 104.484C346.657 104.558 346.708 104.658 346.77 104.781C346.893 105.025 347.058 105.357 347.25 105.746C347.635 106.525 348.128 107.534 348.611 108.54C349.094 109.548 349.566 110.55 349.908 111.317C350.08 111.701 350.217 112.02 350.307 112.249C350.336 112.324 350.359 112.386 350.375 112.434C348.229 116.848 342.84 121.65 336.673 125.308C330.543 128.944 323.789 131.364 318.911 131.189C316.283 127.075 313.456 120.747 311.047 114.599C308.598 108.351 306.596 102.33 305.688 99.0894C303.776 92.2057 302.403 87.7672 301.273 84.1152L301.19 83.8475C300.045 80.146 299.15 77.2345 298.183 73.3178C297.529 70.6355 297.227 68.4519 297.209 66.8666C297.2 66.0724 297.262 65.4479 297.376 64.9938C297.494 64.5232 297.648 64.3153 297.753 64.2415C297.812 64.2005 297.914 64.1551 298.161 64.2807C298.428 64.4166 298.786 64.7227 299.223 65.2706C300.089 66.3585 301.15 68.2515 302.339 71.0868L302.339 71.0868L302.341 71.0921C304.011 74.947 305.96 78.6724 308.174 82.2379L309.078 81.8316C308.215 78.9313 306.334 71.0273 304.828 62.9957C304.34 60.3429 304.172 58.2049 304.251 56.673C304.291 55.9054 304.392 55.311 304.533 54.8874C304.68 54.4489 304.843 54.2728 304.945 54.2161C305.006 54.1826 305.123 54.1461 305.378 54.2998C305.647 54.4617 305.994 54.7978 306.405 55.3725C307.22 56.5147 308.185 58.4573 309.231 61.3285C312.078 69.1803 314.78 75.3046 316.467 78.9114L317.414 78.6276L316.92 78.6997C317.414 78.6276 317.414 78.6275 317.414 78.6274L317.414 78.627L317.414 78.6253L317.413 78.6185L317.409 78.5918L317.394 78.4863L317.334 78.0772C317.281 77.7199 317.205 77.1982 317.108 76.5407C316.913 75.2255 316.637 73.3666 316.309 71.1916C315.653 66.8417 314.79 61.2259 313.963 56.165L313.963 56.1645C313.532 53.5447 313.444 51.4447 313.596 49.9538C313.672 49.2068 313.807 48.6344 313.975 48.2323C314.148 47.8194 314.326 47.655 314.445 47.6023C314.531 47.564 314.678 47.5438 314.943 47.7157C315.218 47.8947 315.561 48.2495 315.951 48.8405C316.726 50.0167 317.599 51.9934 318.47 54.8974C318.645 55.4873 319.852 59.3209 321.248 63.7572C322.632 68.1569 324.203 73.1494 325.14 76.1585L326.117 76.0098V76.0077V76.0055V76.003V76.0005V75.9978V75.995V75.992V75.9889V75.9856V75.9822V75.9787V75.975V75.9712V75.9672V75.9631V75.9589V75.9545V75.95V75.9453V75.9405V75.9356V75.9305V75.9253V75.9199V75.9144V75.9088V75.903V75.8971V75.8911V75.8849V75.8786V75.8721V75.8655V75.8588V75.8519V75.8449V75.8377V75.8305V75.823V75.8155V75.8078V75.7999V75.792V75.7839V75.7756V75.7672V75.7587V75.7501V75.7413V75.7323V75.7233V75.7141V75.7048V75.6953V75.6857V75.676V75.6661V75.6561V75.6459V75.6357V75.6253V75.6147V75.604V75.5932V75.5823V75.5712V75.56V75.5486V75.5372V75.5255V75.5138V75.5019V75.4899V75.4778V75.4655V75.4531V75.4405V75.4279V75.4151V75.4021V75.3891V75.3759V75.3625V75.3491V75.3355V75.3217V75.3079V75.2939V75.2798V75.2655V75.2511V75.2366V75.222V75.2072V75.1923V75.1773V75.1621V75.1468V75.1314V75.1159V75.1002V75.0844V75.0684V75.0524V75.0362V75.0198V75.0034V74.9868V74.9701V74.9533V74.9363V74.9192V74.902V74.8846V74.8672V74.8495V74.8318V74.814V74.796V74.7779V74.7596V74.7413V74.7228V74.7041V74.6854V74.6665V74.6475V74.6284V74.6091V74.5898V74.5703V74.5506V74.5309V74.511V74.491V74.4709V74.4506V74.4303V74.4098V74.3891V74.3684V74.3475V74.3265V74.3054V74.2841V74.2628V74.2413V74.2197V74.1979V74.1761V74.1541V74.132V74.1097V74.0874V74.0649V74.0423V74.0196V73.9967V73.9738V73.9507V73.9275V73.9042V73.8807V73.8571V73.8334V73.8096V73.7857V73.7616V73.7374V73.7131V73.6887V73.6642V73.6395V73.6147V73.5898V73.5648V73.5397V73.5144V73.489V73.4635V73.4379V73.4122V73.3863V73.3603V73.3343V73.308V73.2817V73.2553V73.2287V73.202V73.1752V73.1483V73.1212V73.0941V73.0668V73.0394V73.0119V72.9843V72.9565V72.9287V72.9007V72.8726V72.8444V72.8161V72.7876V72.759V72.7304V72.7016V72.6727V72.6437V72.6145V72.5853V72.5559V72.5264V72.4968V72.4671V72.4373V72.4073V72.3773V72.3471V72.3168V72.2864V72.2559V72.2253V72.1945V72.1637V72.1327V72.1016V72.0704V72.0391V72.0077V71.9761V71.9445V71.9127V71.8808V71.8489V71.8168V71.7846V71.7522V71.7198V71.6873V71.6546V71.6218V71.5889V71.556V71.5229V71.4896V71.4563V71.4229V71.3893V71.3557V71.3219V71.288V71.254V71.2199V71.1857V71.1514V71.117V71.0825V71.0478V71.0131V70.9782V70.9432V70.9081V70.8729V70.8376V70.8022V70.7667V70.7311V70.6954V70.6595V70.6236V70.5875V70.5514V70.5151V70.4787V70.4422V70.4056V70.3689V70.3321V70.2952V70.2582V70.2211V70.1838V70.1465V70.1091V70.0715V70.0338V69.9961V69.9582V69.9202V69.8822V69.844V69.8057V69.7673V69.7288V69.6902V69.6515V69.6127V69.5737V69.5347V69.4956V69.4564V69.417V69.3776V69.3381V69.2984V69.2587V69.2188V69.1789V69.1388V69.0986V69.0584V69.018V68.9776V68.937V68.8963V68.8555V68.8147V68.7737V68.7326V68.6914V68.6501V68.6088V68.5673V68.5257V68.484V68.4422V68.4003V68.3583V68.3162V68.274V68.2318V68.1894V68.1469V68.1043V68.0616V68.0188V67.9759V67.9329V67.8898V67.8467V67.8034V67.76V67.7165V67.6729V67.6292V67.5855V67.5416V67.4976V67.4535V67.4094V67.3651V67.3207V67.2763V67.2317V67.187V67.1423V67.0974V67.0525V67.0074V66.9623V66.9171V66.8717V66.8263V66.7808V66.7351V66.6894V66.6436V66.5977V66.5517V66.5056V66.4594V66.4131V66.3667V66.3202V66.2737V66.227V66.1802V66.1334V66.0864V66.0394V65.9922V65.945V65.8977V65.8502V65.8027V65.7551V65.7074V65.6596V65.6117V65.5638V65.5157V65.4675V65.4193V65.3709V65.3225V65.2739V65.2253V65.1766V65.1278V65.0789V65.0299V64.9808V64.9316V64.8823V64.833V64.7835V64.734V64.6844V64.6347V64.5848V64.5349V64.4849V64.4349V64.3847V64.3344V64.2841V64.2336V64.1831V64.1325V64.0818V64.031V63.9801V63.9291V63.8781V63.8269V63.7757V63.7244V63.673V63.6214V63.5699V63.5182V63.4664V63.4146V63.3626V63.3106V63.2585V63.2063V63.154V63.1016V63.0492V62.9966V62.944V62.8913V62.8384V62.7856V62.7326V62.6795V62.6264V62.5731V62.5198V62.4664V62.4129V62.3593V62.3057V62.2519V62.1981V62.1442V62.0902V62.0361V61.982V61.9277V61.8734V61.819V61.7645V61.7099V61.6552V61.6004V61.5456V61.4907V61.4357V61.3806V61.3255V61.2702V61.2149V61.1595V61.104V61.0484V60.9927V60.937V60.8812V60.8253V60.7693V60.7132V60.6571V60.6009V60.5446V60.4882V60.4317V60.3752V60.3185V60.2618V60.205V60.1482V60.0912V60.0342V59.9771V59.9199V59.8626V59.8053V59.7479V59.6904V59.6328V59.5751V59.5174V59.4596V59.4017V59.3437V59.2856V59.2275V59.1693C326.117 56.5064 326.374 54.407 326.773 52.9471C326.973 52.2157 327.203 51.6655 327.44 51.2891C327.682 50.9033 327.893 50.7606 328.029 50.7234C328.132 50.6953 328.287 50.7014 328.525 50.9105C328.774 51.1292 329.061 51.5327 329.358 52.1789C329.949 53.4653 330.51 55.5654 330.92 58.5933L330.922 58.6074L330.925 58.6213C331.143 59.747 332.625 69.4515 333.447 74.8377C333.598 75.8246 333.726 76.6666 333.821 77.2842L333.821 77.2856C333.985 78.3391 334.465 80.4062 335.153 82.1908C335.497 83.08 335.904 83.9315 336.369 84.5547C336.813 85.1492 337.429 85.692 338.202 85.599L338.203 85.5988C339.693 85.415 341.443 84.473 343.222 83.3049C344.51 82.4595 345.862 81.4604 347.192 80.4775C347.714 80.0918 348.233 79.7086 348.743 79.3381C350.573 78.0088 352.289 76.8466 353.734 76.2294C355.211 75.5984 356.159 75.6342 356.734 76.2589C357.059 76.6205 357.138 77.3354 356.771 78.5285C356.417 79.6802 355.701 81.0957 354.756 82.6457C352.869 85.7387 350.134 89.2611 347.789 92.0919C346.389 93.7739 345.522 95.8407 345.3 98.0245C345.078 100.208 345.511 102.409 346.544 104.342Z" fill="#FEFEFE" stroke="#10162F"/>
<path d="M494.908 21.7482L494.908 21.7482C497.815 21.5622 500.729 21.9564 503.484 22.908C506.239 23.8597 508.781 25.3502 510.965 27.2944C513.148 29.2387 514.93 31.5985 516.208 34.2388C517.486 36.879 518.235 39.7478 518.412 42.6808L518.412 42.6814C518.684 47.0969 517.652 51.4943 515.446 55.3175C513.24 59.1406 509.959 62.2175 506.02 64.1598C502.081 66.102 497.659 66.8226 493.315 66.2306C488.97 65.6386 484.896 63.7606 481.609 60.8335C478.321 57.9063 475.968 54.0613 474.847 49.7844C473.726 45.5074 473.888 40.9913 475.312 36.8071C476.736 32.6231 479.358 28.9595 482.846 26.2793C486.334 23.5991 490.532 22.0224 494.908 21.7482ZM484.234 55.2327L484.237 55.2336C485.576 55.6364 487.018 55.4884 488.248 54.8226C489.479 54.1568 490.397 53.0279 490.803 51.6834L490.804 51.6805C491.1 50.679 491.096 49.6116 490.791 48.6127C490.486 47.6137 489.895 46.7275 489.09 46.0662C488.286 45.4048 487.305 44.9981 486.271 44.8979C485.237 44.7977 484.197 45.0086 483.282 45.5037C482.367 45.9987 481.619 46.7555 481.131 47.6779C480.643 48.6004 480.437 49.6475 480.538 50.6874C480.64 51.7273 481.045 52.714 481.702 53.523C482.36 54.3321 483.241 54.9272 484.234 55.2327ZM502.704 57.6892L502.775 57.7107H502.839C503.612 57.916 504.435 57.8138 505.136 57.4238C505.859 57.0218 506.392 56.3476 506.621 55.5504C506.849 54.7533 506.754 53.8974 506.357 53.1704C505.959 52.444 505.292 51.9051 504.499 51.6734C503.707 51.434 502.853 51.5215 502.124 51.9164C501.396 52.3117 500.854 52.982 500.616 53.7787C500.379 54.5754 500.465 55.4346 500.856 56.1678C501.247 56.901 501.911 57.4488 502.704 57.6892ZM495.54 39.49C496.454 40.6354 497.682 41.4839 499.073 41.9282C500.01 42.2277 500.998 42.336 501.977 42.2466C502.956 42.1572 503.908 41.872 504.776 41.4078C505.645 40.9436 506.413 40.3097 507.035 39.5434C507.658 38.7771 508.123 37.8937 508.403 36.9448C508.818 35.537 508.812 34.0369 508.385 32.6326C507.958 31.2283 507.128 29.9819 506.001 29.0503C504.873 28.1185 503.497 27.5432 502.045 27.3971C500.593 27.2509 499.131 27.5406 497.842 28.2293C496.554 28.918 495.496 29.9749 494.802 31.2667C494.108 32.5584 493.808 34.0278 493.939 35.4905C494.071 36.9531 494.627 38.3446 495.54 39.49Z" fill="#10162F" stroke="#10162F"/>
<path d="M199.296 152.786C189.023 154.122 179.179 157.772 170.494 163.464C170.167 162.504 169.612 161.153 168.892 159.514C167.986 157.449 166.805 154.896 165.453 152.029C164.058 149.071 162.475 145.767 160.821 142.314C159.274 139.084 157.664 135.723 156.088 132.395C152.821 125.498 149.686 118.715 147.5 113.416C146.406 110.765 145.554 108.498 145.041 106.78C144.785 105.919 144.618 105.212 144.545 104.67C144.509 104.399 144.498 104.183 144.507 104.017C144.517 103.845 144.546 103.761 144.563 103.73L144.563 103.73L144.567 103.722C144.773 103.322 145.02 103.069 145.291 102.918C145.563 102.766 145.897 102.694 146.311 102.718C147.162 102.768 148.275 103.214 149.631 104.036C152.329 105.672 155.739 108.631 159.507 112.067C160.498 112.971 161.512 113.906 162.543 114.856C165.416 117.505 168.415 120.269 171.376 122.783C175.397 126.196 179.393 129.186 182.968 130.817C193.377 135.567 195.459 141.852 197.423 147.779C197.991 149.493 198.549 151.178 199.296 152.786Z" fill="#FEFEFE" stroke="#10162F"/>
<path d="M141.963 254.434C143.388 255.363 144.803 256.287 146.294 257.054C139.737 264.388 134.777 273.025 131.734 282.409C131.577 282.314 131.397 282.211 131.194 282.1C130.638 281.796 129.898 281.422 129.005 280.99C127.218 280.126 124.795 279.016 121.959 277.737C120.186 276.937 118.25 276.07 116.205 275.154C111.702 273.137 106.668 270.883 101.664 268.579C94.3865 265.228 87.1892 261.781 81.8054 258.821C79.1115 257.341 76.8873 255.99 75.3376 254.842C74.5614 254.267 73.9711 253.755 73.5777 253.314C73.167 252.854 73.0424 252.549 73.0382 252.384L73.0382 252.383C73.0145 251.517 73.3877 250.884 74.1528 250.392C74.9508 249.88 76.1662 249.534 77.7605 249.336C80.941 248.942 85.3875 249.164 90.3666 249.548C91.7975 249.658 93.2712 249.782 94.7677 249.908C98.4552 250.218 102.282 250.539 105.948 250.701C111.1 250.929 115.998 250.847 119.822 249.96C127.226 248.245 132.172 249.237 136.147 251.054C138.148 251.968 139.913 253.097 141.644 254.226C141.751 254.295 141.857 254.364 141.963 254.434Z" fill="#FEFEFE" stroke="#10162F"/>
<path d="M322.159 110.652L322.175 110.584L322.172 110.513C321.9 105.346 322.704 100.179 324.532 95.3444C326.36 90.5103 329.171 86.1158 332.784 82.4434C332.794 82.4332 332.807 82.4282 332.82 82.4282C332.833 82.4282 332.846 82.4333 332.856 82.4438C332.867 82.4544 332.873 82.4697 332.873 82.4864C332.873 82.5032 332.867 82.5184 332.856 82.529L332.855 82.5303C329.243 86.1979 326.434 90.5873 324.607 95.4158C322.779 100.244 321.975 105.405 322.246 110.566L322.248 110.609L322.258 110.652C322.26 110.661 322.26 110.67 322.258 110.679L322.746 110.787L322.258 110.679C322.256 110.688 322.252 110.696 322.247 110.702C322.242 110.709 322.236 110.713 322.229 110.717C322.223 110.72 322.216 110.721 322.209 110.721C322.202 110.721 322.195 110.72 322.188 110.717C322.181 110.713 322.175 110.709 322.17 110.702C322.165 110.696 322.161 110.688 322.159 110.679L321.672 110.787L322.159 110.679C322.157 110.67 322.157 110.661 322.159 110.652Z" fill="#10162F" stroke="#10162F"/>
<path d="M163.577 375.335L163.579 375.334C163.591 375.332 163.604 375.334 163.615 375.342C163.624 375.349 163.633 375.36 163.636 375.373C163.638 375.387 163.634 375.401 163.627 375.412C163.619 375.423 163.608 375.43 163.597 375.433L155.981 376.776L155.98 376.777C154.09 377.114 152.41 378.193 151.308 379.775C150.768 380.549 150.388 381.414 150.179 382.318L150.121 382.224C150.336 381.323 150.72 380.47 151.253 379.713C151.838 378.884 152.587 378.187 153.454 377.669L154.552 377.012L153.3 376.75C152.319 376.545 151.389 376.141 150.568 375.562C149.746 374.983 149.049 374.241 148.521 373.382L147.865 372.315L147.606 373.54C147.396 374.533 146.989 375.472 146.41 376.301C145.83 377.13 145.091 377.832 144.235 378.365L143.183 379.02L144.396 379.278C145.38 379.487 146.313 379.894 147.14 380.473C147.891 380.999 148.54 381.659 149.057 382.419L149.012 382.643C148.504 381.826 147.835 381.11 147.036 380.544C145.466 379.431 143.523 378.991 141.631 379.32L141.628 379.32L134.051 380.686C134.044 380.684 134.038 380.681 134.033 380.677L134.021 380.691L134.033 380.677C134.023 380.669 134.015 380.657 134.013 380.643C134.01 380.629 134.013 380.614 134.02 380.602C134.023 380.596 134.028 380.591 134.033 380.587L141.599 379.223C141.6 379.223 141.6 379.223 141.601 379.223C142.538 379.06 143.435 378.711 144.238 378.198C145.042 377.685 145.737 377.016 146.283 376.232C146.83 375.447 147.218 374.562 147.424 373.626C147.63 372.691 147.651 371.723 147.486 370.78L147.486 370.779L146.123 363.089L146.123 363.089L146.122 363.087C146.119 363.069 146.123 363.05 146.133 363.036C146.143 363.022 146.157 363.013 146.171 363.01C146.186 363.008 146.201 363.011 146.214 363.02L146.498 362.611L146.214 363.02C146.227 363.029 146.237 363.043 146.24 363.061L147.573 370.747L147.573 370.748C147.907 372.65 148.975 374.344 150.545 375.456C152.115 376.568 154.059 377.008 155.951 376.68L155.952 376.679L163.577 375.335ZM149.632 382.885H150.071C149.957 383.652 149.962 384.439 150.095 385.218L150.096 385.221L151.459 392.91L151.459 392.913C151.462 392.931 151.458 392.949 151.448 392.964C151.439 392.978 151.425 392.986 151.41 392.989C151.396 392.992 151.381 392.989 151.368 392.98C151.355 392.971 151.345 392.956 151.341 392.939C151.341 392.939 151.341 392.938 151.341 392.938L150.008 385.253L150.008 385.252C149.86 384.411 149.57 383.612 149.156 382.885H149.574H149.632Z" fill="#10162F" stroke="#10162F"/>
<path d="M268.531 42.1491L268.561 42.1437L268.591 42.1345C268.613 42.1277 268.637 42.1299 268.658 42.141C268.679 42.1523 268.696 42.1722 268.704 42.1976C268.711 42.2231 268.709 42.2507 268.697 42.2738C268.688 42.2911 268.674 42.3045 268.658 42.313L263.313 43.2693C263.312 43.2694 263.312 43.2695 263.311 43.2696C262.653 43.3833 262.023 43.6276 261.459 43.9881C260.894 44.3489 260.406 44.819 260.024 45.3708C259.641 45.9227 259.371 46.5454 259.228 47.2029C259.086 47.8595 259.075 48.5379 259.194 49.199C259.195 49.1999 259.195 49.2008 259.195 49.2017L260.114 54.591C260.113 54.6001 260.109 54.6085 260.103 54.6155L260.121 54.6292L260.103 54.6155C260.095 54.6259 260.084 54.6322 260.073 54.6343C260.062 54.6364 260.051 54.6345 260.04 54.6284C260.034 54.625 260.029 54.6201 260.025 54.6142L259.079 49.2363C258.975 48.5525 258.734 47.8968 258.371 47.3089C258.368 47.3036 258.365 47.2982 258.361 47.2928L258.783 47.8868L259.066 46.8798C259.395 45.7141 260.105 44.6963 261.081 43.9921L261.916 43.3895L260.926 43.106C259.773 42.7756 258.764 42.06 258.065 41.0753L257.46 40.2221L257.176 41.2291C256.848 42.3947 256.137 43.4126 255.161 44.1168L254.326 44.7194L255.316 45.0029C256.046 45.2119 256.718 45.5752 257.29 46.0634C257.185 45.9756 257.075 45.892 256.963 45.8128C256.397 45.4154 255.757 45.138 255.081 44.9978C254.408 44.858 253.714 44.8574 253.04 44.996L247.654 45.9597L247.616 45.9664L247.581 45.9786C247.574 45.9808 247.567 45.9816 247.56 45.9808C247.554 45.9801 247.547 45.9779 247.541 45.9741C247.535 45.9703 247.529 45.965 247.524 45.9583L247.11 46.2362L247.524 45.9583C247.52 45.9516 247.517 45.9437 247.515 45.9351C247.514 45.9266 247.515 45.9179 247.517 45.9096L247.035 45.7757L247.517 45.9096C247.519 45.9013 247.523 45.894 247.528 45.888L247.147 45.5647L247.528 45.888C247.533 45.882 247.539 45.8774 247.546 45.8745C247.552 45.8715 247.559 45.8701 247.566 45.8701L247.611 45.8703L247.656 45.8622L253.019 44.8976C253.019 44.8975 253.02 44.8975 253.02 44.8974C254.354 44.6599 255.539 43.8983 256.316 42.7813C257.093 41.6643 257.397 40.2828 257.164 38.9401L257.164 38.9386L256.215 33.5756C256.217 33.5668 256.221 33.5586 256.226 33.5518L256.209 33.5382L256.226 33.5518C256.234 33.5414 256.245 33.5352 256.256 33.5331C256.267 33.531 256.279 33.5328 256.289 33.5389L256.299 33.5219L256.289 33.5389C256.295 33.5424 256.3 33.5472 256.305 33.5532L257.252 38.9369L257.252 38.9394C257.495 40.277 258.25 41.4658 259.356 42.2477C260.462 43.0297 261.83 43.3415 263.163 43.1147L263.163 43.1148L263.168 43.1139L268.531 42.1491ZM256.788 33.4122C256.745 33.2846 256.659 33.1768 256.544 33.1088C256.429 33.0407 256.294 33.0169 256.163 33.0419C256.032 33.0669 255.914 33.1389 255.832 33.2446C255.749 33.3504 255.708 33.4826 255.715 33.6168L256.788 33.4122Z" fill="#10162F" stroke="#10162F"/>
<path d="M523.378 198.512L523.379 198.516C523.68 200.168 524.301 201.745 525.208 203.156C526.114 204.566 527.288 205.783 528.662 206.736C530.036 207.688 531.583 208.359 533.214 208.708C534.845 209.057 536.528 209.078 538.167 208.771C538.168 208.771 538.169 208.771 538.169 208.77L551.438 206.414C551.453 206.419 551.467 206.427 551.479 206.438C551.497 206.457 551.508 206.482 551.508 206.51C551.508 206.538 551.497 206.564 551.479 206.582C551.461 206.6 551.437 206.61 551.414 206.61H551.37L551.326 206.617L538.019 208.985C534.701 209.572 531.751 211.464 529.816 214.242C528.662 215.899 527.925 217.791 527.641 219.758L527.623 219.721C527.622 219.72 527.622 219.719 527.621 219.717C527.898 217.695 528.642 215.766 529.796 214.086C531.004 212.328 532.623 210.898 534.509 209.922L535.973 209.164L534.334 208.981C532.22 208.745 530.198 207.977 528.453 206.749C526.708 205.52 525.297 203.869 524.348 201.947L523.603 200.437L523.418 201.986C523.531 200.839 523.49 199.672 523.291 198.516L523.29 198.515L520.942 185.096L520.936 185.06L520.924 185.025C520.922 185.017 520.921 185.008 520.922 185C520.922 184.991 520.925 184.983 520.929 184.976C520.933 184.969 520.939 184.964 520.944 184.96L520.655 184.552L520.944 184.96C520.95 184.955 520.957 184.953 520.963 184.952C520.97 184.95 520.977 184.95 520.983 184.952C520.99 184.954 520.996 184.957 521.002 184.961L521.312 184.569L521.002 184.961C521.008 184.966 521.013 184.972 521.016 184.979C521.02 184.986 521.022 184.995 521.023 185.003L521.024 185.033L521.03 185.063L523.378 198.512ZM527.176 220.445H527.561C527.461 221.555 527.505 222.684 527.698 223.801L527.698 223.802L530.039 237.206C530.037 237.215 530.033 237.223 530.028 237.23C530.019 237.241 530.009 237.247 529.998 237.249C529.987 237.251 529.975 237.249 529.965 237.243C529.959 237.24 529.953 237.235 529.949 237.229L527.61 223.835L527.61 223.834C527.022 220.497 525.145 217.53 522.39 215.585C519.635 213.639 516.226 212.874 512.912 213.459L512.911 213.459C509.238 214.112 506.52 214.601 504.53 214.958C503.716 215.104 503.023 215.229 502.437 215.334C501.425 215.515 500.73 215.638 500.268 215.715C500.037 215.754 499.868 215.781 499.748 215.798C499.712 215.803 499.682 215.807 499.659 215.81C499.653 215.801 499.649 215.79 499.649 215.778C499.649 215.765 499.654 215.752 499.662 215.742C499.668 215.734 499.675 215.729 499.684 215.726L512.97 213.362L512.97 213.361C513.787 213.215 514.581 212.991 515.343 212.693L514.882 212.926L516.57 213.103C518.714 213.328 520.768 214.092 522.543 215.327C524.236 216.504 525.623 218.072 526.591 219.9L526.528 220.445H527.089H527.176Z" fill="#10162F" stroke="#10162F"/>
<path d="M301.734 465.502C301.059 466.022 300.708 466.286 300.53 466.414C300.527 466.414 300.523 466.413 300.52 466.411C300.516 466.408 300.512 466.404 300.51 466.398C300.507 466.391 300.507 466.384 300.509 466.378C300.511 466.371 300.515 466.367 300.519 466.364L300.538 466.352L300.556 466.338L448.1 350.647L447.539 349.822L328.206 419.61C328.206 419.61 328.206 419.61 328.206 419.61C328.2 419.613 328.194 419.615 328.188 419.616C328.182 419.617 328.176 419.617 328.17 419.615C328.164 419.613 328.157 419.61 328.152 419.606C328.146 419.602 328.142 419.596 328.138 419.59L327.704 419.838L328.138 419.59C328.134 419.583 328.132 419.576 328.131 419.568C328.13 419.56 328.13 419.552 328.132 419.544C328.133 419.54 328.135 419.535 328.137 419.531C328.139 419.529 328.14 419.526 328.142 419.524L327.745 419.221L328.142 419.524C328.144 419.521 328.147 419.518 328.15 419.515C328.152 419.513 328.155 419.512 328.158 419.51L328.159 419.509L447.522 349.72L447.078 348.827L352.321 388.072C352.315 388.071 352.309 388.07 352.304 388.067L352.296 388.082L352.296 388.082L352.304 388.067C352.293 388.061 352.284 388.052 352.278 388.038L351.814 388.223L352.278 388.038C352.273 388.025 352.273 388.01 352.278 387.997C352.281 387.988 352.285 387.981 352.291 387.975L454.463 345.663C454.463 345.663 454.464 345.663 454.465 345.662C454.47 345.661 454.478 345.661 454.489 345.664C454.503 345.668 454.511 345.675 454.514 345.678C454.514 345.679 454.514 345.68 454.513 345.682C454.513 345.69 454.507 345.731 454.454 345.802C416.291 375.724 387.569 398.246 365.955 415.195C341.724 434.196 326.425 446.193 316.769 453.757C307.632 460.916 303.55 464.104 301.734 465.502Z" fill="#10162F" stroke="#10162F"/>
<path d="M454.491 332.854L454.179 332.853L454.147 332.917C451.632 332.978 449.189 333.789 447.128 335.25C444.981 336.772 443.354 338.925 442.468 341.414C441.582 343.903 441.48 346.607 442.176 349.156C442.872 351.706 444.332 353.977 446.357 355.659C448.382 357.341 450.873 358.352 453.49 358.552C456.108 358.752 458.722 358.133 460.976 356.778C463.23 355.423 465.013 353.4 466.083 350.985C467.152 348.571 467.456 345.883 466.953 343.288C466.395 340.365 464.848 337.727 462.576 335.824C460.304 333.921 457.446 332.871 454.491 332.854ZM454.46 358.729C452.029 358.725 449.649 358.026 447.597 356.711C445.544 355.396 443.904 353.519 442.867 351.3C441.83 349.08 441.44 346.609 441.742 344.174C442.043 341.74 443.024 339.442 444.571 337.548C446.117 335.654 448.164 334.243 450.473 333.478C452.783 332.712 455.26 332.624 457.617 333.224C459.974 333.823 462.115 335.086 463.789 336.865C465.463 338.644 466.602 340.867 467.073 343.274C467.441 345.153 467.39 347.091 466.926 348.948C466.462 350.805 465.595 352.534 464.388 354.012C463.181 355.49 461.665 356.68 459.948 357.495C458.232 358.311 456.357 358.732 454.46 358.729Z" fill="#10162F" stroke="#10162F"/>
<path d="M431 223.715C431 224.212 430.804 224.687 430.457 225.037C430.11 225.387 429.64 225.583 429.151 225.583C428.662 225.583 428.193 225.387 427.846 225.037C427.498 224.687 427.303 224.212 427.303 223.715C427.303 223.218 427.498 222.742 427.846 222.392C428.193 222.042 428.662 221.847 429.151 221.847C429.64 221.847 430.11 222.042 430.457 222.392C430.804 222.742 431 223.218 431 223.715Z" fill="#10162F" stroke="#10162F"/>
<path d="M469.497 210.559C469.436 211.003 469.22 211.411 468.889 211.71C468.545 212.021 468.099 212.192 467.638 212.192C467.177 212.192 466.732 212.021 466.388 211.71C466.057 211.411 465.841 211.003 465.779 210.559C465.841 210.115 466.057 209.707 466.388 209.408C466.732 209.097 467.177 208.926 467.638 208.926C468.099 208.926 468.545 209.097 468.889 209.408C469.22 209.707 469.436 210.115 469.497 210.559Z" fill="#10162F" stroke="#10162F"/>
<path d="M484.834 168.428C484.772 168.872 484.557 169.279 484.226 169.578C483.881 169.889 483.436 170.061 482.975 170.061C482.514 170.061 482.069 169.889 481.725 169.578C481.394 169.279 481.178 168.872 481.116 168.428C481.178 167.983 481.394 167.576 481.725 167.277C482.069 166.966 482.514 166.794 482.975 166.794C483.436 166.794 483.881 166.966 484.226 167.277C484.557 167.576 484.772 167.983 484.834 168.428Z" fill="#10162F" stroke="#10162F"/>
<path d="M421.459 263.04C421.459 263.536 421.263 264.012 420.916 264.362C420.569 264.712 420.099 264.908 419.61 264.908C419.121 264.908 418.652 264.712 418.305 264.362C417.957 264.012 417.762 263.536 417.762 263.04C417.762 262.543 417.957 262.067 418.305 261.717C418.652 261.367 419.121 261.171 419.61 261.171C420.099 261.171 420.569 261.367 420.916 261.717C421.263 262.067 421.459 262.543 421.459 263.04Z" fill="#10162F" stroke="#10162F"/>
<path d="M380.2 248.83C380.139 249.274 379.923 249.682 379.592 249.981C379.248 250.292 378.802 250.463 378.341 250.463C377.881 250.463 377.435 250.292 377.091 249.981C376.76 249.682 376.544 249.274 376.482 248.83C376.544 248.386 376.76 247.978 377.091 247.679C377.435 247.368 377.881 247.197 378.341 247.197C378.802 247.197 379.248 247.368 379.592 247.679C379.923 247.978 380.139 248.386 380.2 248.83Z" fill="#10162F" stroke="#10162F"/>
<path d="M392.432 207.781C392.37 208.225 392.155 208.633 391.823 208.932C391.479 209.243 391.034 209.414 390.573 209.414C390.112 209.414 389.667 209.243 389.322 208.932C388.991 208.633 388.776 208.225 388.714 207.781C388.776 207.337 388.991 206.929 389.322 206.63C389.667 206.319 390.112 206.148 390.573 206.148C391.034 206.148 391.479 206.319 391.823 206.63C392.155 206.929 392.37 207.337 392.432 207.781Z" fill="#10162F" stroke="#10162F"/>
<path d="M381.709 164.89C381.647 165.334 381.432 165.742 381.101 166.041C380.756 166.352 380.311 166.523 379.85 166.523C379.389 166.523 378.944 166.352 378.6 166.041C378.269 165.742 378.053 165.334 377.991 164.89C378.053 164.446 378.269 164.038 378.6 163.74C378.944 163.429 379.389 163.257 379.85 163.257C380.311 163.257 380.756 163.429 381.101 163.74C381.432 164.038 381.647 164.446 381.709 164.89Z" fill="#10162F" stroke="#10162F"/>
<path d="M336.628 147.378C336.628 147.875 336.433 148.351 336.086 148.701C335.739 149.051 335.269 149.246 334.78 149.246C334.291 149.246 333.821 149.051 333.475 148.701C333.127 148.351 332.932 147.875 332.932 147.378C332.932 146.881 333.127 146.406 333.475 146.056C333.821 145.706 334.291 145.51 334.78 145.51C335.269 145.51 335.739 145.706 336.086 146.056C336.433 146.406 336.628 146.881 336.628 147.378Z" fill="#10162F" stroke="#10162F"/>
<mask id="path-23-inside-1_1662_9441" fill="white">
<path d="M541.234 104.107C540.654 103.902 539.958 104.399 539.32 105.13C539.92 102.514 540.318 99.8555 540.509 97.1776C540.741 94.02 540.828 88.6404 538.972 88.4065C538.624 88.4065 537.726 88.2019 536.566 91.0086C536.711 88.8743 537.146 81.8867 535.058 81.5651C532.971 81.2435 531.492 88.4358 530.129 92.9967C530.129 90.7747 529.753 82.7345 527.462 82.5884C526.94 82.5884 525.433 82.5884 524.012 90.1608C523.325 94.0139 522.445 97.8294 521.374 101.592L520.91 100.745C516.735 93.3476 515.314 92.6167 514.357 92.9675C513.401 93.3184 512.821 94.7802 514.357 102.908C516.097 111.679 510.878 122.76 509.719 125.099L507.834 124.368C507.72 124.327 507.596 124.325 507.481 124.362C507.365 124.399 507.266 124.473 507.196 124.573C495.045 142.236 481.899 159.182 467.824 175.328C467.36 175.855 468.172 176.585 468.665 176.03C482.698 159.95 495.805 143.072 507.921 125.479C516.65 128.53 524.025 134.599 528.738 142.612C499.745 189.859 460.808 228.16 443.731 243.831C445.703 234.212 441.064 222.254 440.832 221.698C440.766 221.587 440.663 221.503 440.542 221.461C440.421 221.418 440.289 221.419 440.168 221.464C440.048 221.509 439.947 221.595 439.883 221.707C439.819 221.82 439.796 221.951 439.817 222.078C439.817 222.488 451.414 263.683 376.178 306.866C381.977 295.931 372.554 267.191 367.48 254.853C362.407 242.515 350.259 218.891 338.575 213.044H358.174C381.774 235.878 380.353 234.621 380.701 234.621C380.796 234.615 380.888 234.585 380.969 234.532C381.049 234.48 381.114 234.407 381.158 234.322C381.201 234.236 381.222 234.141 381.219 234.044C381.215 233.948 381.186 233.855 381.136 233.773L316.192 131.794C326.166 135.39 351.158 120.596 352.52 110.13C367.017 135.04 405.432 195.853 428.539 212.927C430.005 214.129 431.717 214.989 433.552 215.444C435.387 215.898 437.299 215.938 439.15 215.558C439.28 215.513 439.391 215.425 439.464 215.308C439.538 215.191 439.57 215.053 439.556 214.915C439.255 212.782 439.255 210.616 439.556 208.483C448.254 210.12 451.472 203.776 451.414 194.8C451.414 194.653 451.356 194.511 451.253 194.407C451.15 194.303 451.01 194.245 450.863 194.245C450.717 194.245 450.577 194.303 450.474 194.407C450.371 194.511 450.313 194.653 450.313 194.8C450.313 200.998 448.863 205.004 445.935 206.7C441.093 209.623 433.7 205.15 433.439 205.004C433.356 204.952 433.26 204.923 433.163 204.921C433.065 204.918 432.968 204.942 432.883 204.99C432.797 205.037 432.726 205.107 432.676 205.192C432.626 205.276 432.599 205.373 432.598 205.472C432.598 205.764 432.308 205.238 438.252 213.132C438.252 213.6 438.252 214.097 438.397 214.594C432.917 215.617 428.916 212.079 424.77 208.366C429.119 208.191 426.799 197.724 425.727 193.455C425.703 193.346 425.645 193.248 425.561 193.174C425.478 193.101 425.373 193.056 425.263 193.046C416.884 186.789 421.871 179.012 426.017 183.661C427.437 185.269 428.481 185.883 429.322 185.707C430.163 185.532 430.714 184.099 430.656 183.778C428.655 170.767 441.064 161.85 447.152 176.79C447.217 176.908 447.323 176.998 447.449 177.044C447.576 177.089 447.714 177.086 447.838 177.036C447.963 176.986 448.065 176.892 448.125 176.771C448.186 176.65 448.201 176.512 448.167 176.381V176.147C448.638 175.683 449.164 175.281 449.733 174.948C449.789 175.061 449.881 175.152 449.995 175.205C450.109 175.258 450.238 175.27 450.359 175.239C450.481 175.209 450.589 175.137 450.665 175.036C450.741 174.935 450.78 174.812 450.776 174.685C449.53 106.212 438.6 93.7569 433.961 91.5641C433.052 91.1227 432.035 90.9595 431.035 91.0946C430.036 91.2297 429.097 91.6572 428.336 92.3243C426.991 93.668 425.93 95.2728 425.217 97.0416C424.505 98.8105 424.155 100.707 424.19 102.616C417.145 81.9159 407.577 73.3787 401.315 74.4897C396.125 75.3376 393.313 82.0036 393.632 92.8213C393.938 104.669 395.95 116.408 399.604 127.672C393.661 117.293 388.529 112.586 384.876 114.369C379.077 117.293 380.469 134.835 387.398 149.453C406.157 189.011 424.654 191.145 426.191 205.004C425.988 206.407 425.524 206.875 425.263 207.021C425.002 207.167 423.407 207.021 422.074 205.676C398.503 182.871 368.756 135.683 352.259 107.323C351.835 106.528 351.215 105.857 350.458 105.376C349.701 104.894 348.833 104.618 347.939 104.575L347.533 103.727C346.598 101.984 346.205 99.9965 346.407 98.0249C346.609 96.0533 347.395 94.1888 348.664 92.6751C360.261 78.5536 358.232 76.2439 357.565 75.4838C353.825 71.3613 343.59 83.7871 338.14 84.4595C336.835 84.635 335.241 79.4892 334.893 77.0333C334.893 77.0333 332.225 59.4911 331.993 58.3801C331.558 55.0763 330.486 49.609 328.224 49.609C325.963 49.609 325.325 56.4212 325.325 59.111C325.325 64.8122 325.325 69.4317 325.325 72.3554C323.209 65.6016 320.019 55.5149 319.729 54.5208C318.773 51.2755 316.83 45.9251 314.511 46.4514C312.771 46.8607 312.249 50.6323 313.177 56.3043C314.25 62.8241 315.41 70.3965 316.076 74.8698C314.482 71.3029 312.51 66.5665 310.481 60.9529C309.089 57.1229 307.002 52.6789 305.001 53.2344C302.537 53.9068 303.668 61.0114 304.073 63.175C304.682 66.5665 306.161 73.6711 307.379 78.349C306.132 76.0685 304.827 73.4664 303.639 70.6596C302.044 66.9173 299.754 62.561 297.84 63.2042C295.376 64.0521 296.97 71.3613 297.521 73.5833C299.464 81.4189 301.029 85.0735 305.03 99.3704C307.521 107.662 310.552 115.778 314.105 123.666C311.814 128.257 314.105 130.04 314.105 130.391L365.857 211.962C329.587 211.962 335.299 211.758 332.399 212.372C328.137 214.184 326.601 221.494 328.224 232.837L249.944 246.053C203.324 145.097 206.687 151.997 206.136 152.085C204.107 152.085 202.222 152.377 200.338 152.611C197.032 145.799 197.293 136.355 183.203 129.865C169.112 123.374 147.803 94.7802 143.425 103.23C141.221 107.469 166.619 155.155 169.518 164.014C167.663 165.271 165.865 166.616 164.184 168.019C164.101 168.089 164.041 168.181 164.01 168.285C163.979 168.389 163.979 168.5 164.01 168.604C174.505 203.951 185.609 239.357 197.438 274.091C147.774 251.228 150.731 252.397 150.325 252.777C149.194 253.859 148.064 254.999 146.991 256.169C139.975 252.689 134.611 245.263 119.564 248.83C104.517 252.397 71.726 242.983 71.9869 252.426C72.1319 258.274 126.145 279.968 131.364 283.388C130.697 285.61 130.088 287.832 129.595 290.025C129.574 290.128 129.581 290.234 129.617 290.332C129.653 290.431 129.716 290.517 129.798 290.581C164.181 317.699 200.952 341.588 239.652 361.948C244.333 364.479 249.521 365.909 254.828 366.132C260.135 366.354 265.423 365.364 270.297 363.235C304.539 348.581 337.282 330.593 368.06 309.526C369.212 310.098 370.504 310.322 371.779 310.172C373.055 310.021 374.26 309.503 375.25 308.678C412.709 287.482 428.974 266.811 435.99 252.192C464.983 227.604 504.703 183.953 529.897 142.846C529.952 142.764 529.982 142.667 529.982 142.568C529.982 142.469 529.952 142.372 529.897 142.29C529.459 141.455 528.975 140.645 528.448 139.864C529.869 137.496 539.117 121.708 541.437 110.861C542.712 105.364 542.016 104.341 541.234 104.107ZM314.25 56.1873C313.264 50.106 314.25 47.767 314.772 47.6209C315.294 47.4747 316.83 48.6734 318.686 54.9301C318.976 55.8949 325.934 78.0566 326.108 78.5829C323.776 79.5528 321.543 80.7473 319.44 82.1498C319.208 81.5066 319.671 82.7638 317.7 78.5536C317.555 77.4719 315.815 65.7478 314.25 56.1873ZM305.146 63.058C303.986 56.9182 304.769 54.5208 305.146 54.2869C305.523 54.053 307.089 55.2517 309.321 61.333C311.939 68.5554 314.94 75.6312 318.309 82.5299C316.377 83.936 314.564 85.5006 312.887 87.2078C311.545 85.5334 310.352 83.743 309.321 81.8574C307.58 75.6751 306.186 69.3986 305.146 63.058ZM306.045 99.1658C302.102 84.9858 300.565 81.6235 298.565 73.4079C296.999 67.0635 297.637 64.6368 298.159 64.3444C298.681 64.0521 300.13 65.2508 302.624 71.1859C305.22 77.2307 308.488 82.9588 312.365 88.2603C310.626 90.1023 308.944 92.1489 307.205 94.4001C306.741 94.9556 307.611 95.6281 308.045 95.0726C314.424 86.8277 320.135 81.4189 330.457 78.1443C330.534 78.1317 330.609 78.1025 330.674 78.0586C330.74 78.0147 330.795 77.9571 330.837 77.8897C330.878 77.8224 330.905 77.7468 330.916 77.6681C330.926 77.5894 330.919 77.5094 330.896 77.4335C330.873 77.3576 330.834 77.2876 330.782 77.2281C330.73 77.1686 330.666 77.1211 330.594 77.0887C330.522 77.0563 330.444 77.0398 330.366 77.0404C330.287 77.0409 330.209 77.0584 330.138 77.0918C329.094 77.4134 328.079 77.7642 327.239 78.1443L326.543 75.9516C326.543 75.0744 326.543 68.6715 326.543 59.1987C326.543 53.0005 327.818 50.8369 328.398 50.8077C328.978 50.7785 330.254 52.2111 331.124 58.6432C331.269 59.6958 334.023 77.2965 334.023 77.2965C334.023 77.2965 335.501 86.0676 338.488 85.6875C343.88 84.9858 354.231 73.3787 356.956 76.3316C357.449 76.8871 358.29 79.6647 348.026 92.0904C346.624 93.7762 345.755 95.8478 345.533 98.0371C345.31 100.226 345.745 102.432 346.78 104.37C346.78 104.692 350.578 112.059 350.868 112.586C346.49 121.357 329.587 131.531 319.527 131.21C313.891 121.054 309.371 110.309 306.045 99.1658ZM205.846 153.196C241.246 229.914 247.828 244.415 249.335 246.959C249.625 247.514 249.335 247.427 250.234 247.31L353.245 229.768C359.508 239.545 364.708 249.975 368.756 260.876L256.409 279.354C250.904 280.264 245.256 279.212 240.436 276.379C235.616 273.546 231.925 269.108 229.997 263.829L190.48 155.652C195.507 154.313 200.655 153.49 205.846 153.196ZM144.527 103.756C147.919 97.1776 169.112 124.514 182.855 130.859C196.597 137.203 195.931 145.477 199.236 152.757C189 154.098 179.187 157.713 170.504 163.341C167.518 154.775 142.787 107.089 144.527 103.756ZM73.0306 252.397C72.8567 244.854 105.097 253.42 119.796 249.912C134.031 246.52 139.105 253.391 146.179 257.017C139.653 264.348 134.716 272.971 131.683 282.336C125.913 278.857 73.2046 257.163 73.0306 252.397ZM269.862 362.153C265.142 364.221 260.02 365.184 254.878 364.972C249.737 364.759 244.709 363.376 240.174 360.925C201.637 340.643 165.012 316.863 130.755 289.879C133.728 276.156 140.718 263.649 150.818 253.976L197.902 275.67L206.6 300.375C209.239 307.86 214.272 314.247 220.907 318.53C227.542 322.812 235.401 324.746 243.247 324.028C287.693 319.905 322.745 313.415 353.564 303.562C353.685 303.505 353.781 303.407 353.835 303.284C353.89 303.162 353.898 303.024 353.859 302.896C353.82 302.767 353.737 302.657 353.624 302.586C353.511 302.515 353.376 302.488 353.245 302.509C322.484 312.275 287.519 318.736 243.073 322.975C235.449 323.656 227.817 321.755 221.385 317.572C214.953 313.389 210.087 307.162 207.557 299.878C193.06 258.625 180.97 222.605 165.227 168.633C172.312 162.774 180.526 158.463 189.349 155.973L228.895 264.15C230.673 269.012 233.886 273.207 238.1 276.171C242.314 279.135 247.328 280.725 252.466 280.728C255.366 280.728 245.798 282.16 369.046 261.87C375.077 278.096 378.005 293.387 376.613 302.129C343.308 326.006 307.511 346.134 269.862 362.153ZM536.015 96.476C537.61 89.7514 538.914 89.3714 538.914 89.3714C538.914 89.3714 539.958 91.1256 539.552 97.0607C539.034 103.082 537.637 108.993 535.406 114.603C534.915 112.597 534.246 110.64 533.406 108.756C534.556 104.748 535.427 100.664 536.015 96.5344V96.476ZM532.391 88.8451C533.87 82.9977 534.884 82.5299 534.884 82.5299C534.884 82.5299 535.841 84.3133 535.551 89.693C535.256 95.6332 534.283 101.519 532.652 107.235C531.76 105.372 530.692 103.6 529.463 101.943C529.8 100.179 529.994 98.3893 530.042 96.5929C530.854 94.4878 531.637 91.8273 532.391 88.9036V88.8451ZM540.364 110.714C538.189 120.889 529.753 135.566 527.752 138.957C523.44 132.984 517.583 128.321 510.82 125.479C512.125 122.906 517.373 111.767 515.546 102.616C514.009 95.0433 514.647 94.0493 514.734 93.8446C514.821 93.64 516.068 94.1955 519.953 101.095C523.838 107.995 526.07 124.31 526.099 124.485C526.099 125.245 527.259 125.011 527.172 124.485C526.204 117.193 524.495 110.022 522.069 103.084C523.275 98.8934 524.243 94.6374 524.969 90.3362C525.954 84.9858 526.998 83.6994 527.259 83.6701C527.52 83.6409 528.361 84.1087 528.825 91.0379C529.013 94.3649 528.896 97.7023 528.477 101.008C528.082 100.522 527.656 100.063 527.201 99.6335C526.679 99.1365 525.926 99.9552 526.447 100.423C531.03 105.471 533.956 111.821 534.826 118.608C534.826 118.756 534.884 118.897 534.988 119.001C535.091 119.105 535.231 119.164 535.377 119.164C535.523 119.164 535.663 119.105 535.767 119.001C535.87 118.897 535.928 118.756 535.928 118.608C535.609 116.269 535.464 117.117 535.928 115.685C536.392 114.252 537.436 111.65 538.247 108.785C538.76 107.414 539.596 106.19 540.683 105.218C540.683 105.218 541.437 105.803 540.364 110.714Z"/>
</mask>
<path d="M541.234 104.107C540.654 103.902 539.958 104.399 539.32 105.13C539.92 102.514 540.318 99.8555 540.509 97.1776C540.741 94.02 540.828 88.6404 538.972 88.4065C538.624 88.4065 537.726 88.2019 536.566 91.0086C536.711 88.8743 537.146 81.8867 535.058 81.5651C532.971 81.2435 531.492 88.4358 530.129 92.9967C530.129 90.7747 529.753 82.7345 527.462 82.5884C526.94 82.5884 525.433 82.5884 524.012 90.1608C523.325 94.0139 522.445 97.8294 521.374 101.592L520.91 100.745C516.735 93.3476 515.314 92.6167 514.357 92.9675C513.401 93.3184 512.821 94.7802 514.357 102.908C516.097 111.679 510.878 122.76 509.719 125.099L507.834 124.368C507.72 124.327 507.596 124.325 507.481 124.362C507.365 124.399 507.266 124.473 507.196 124.573C495.045 142.236 481.899 159.182 467.824 175.328C467.36 175.855 468.172 176.585 468.665 176.03C482.698 159.95 495.805 143.072 507.921 125.479C516.65 128.53 524.025 134.599 528.738 142.612C499.745 189.859 460.808 228.16 443.731 243.831C445.703 234.212 441.064 222.254 440.832 221.698C440.766 221.587 440.663 221.503 440.542 221.461C440.421 221.418 440.289 221.419 440.168 221.464C440.048 221.509 439.947 221.595 439.883 221.707C439.819 221.82 439.796 221.951 439.817 222.078C439.817 222.488 451.414 263.683 376.178 306.866C381.977 295.931 372.554 267.191 367.48 254.853C362.407 242.515 350.259 218.891 338.575 213.044H358.174C381.774 235.878 380.353 234.621 380.701 234.621C380.796 234.615 380.888 234.585 380.969 234.532C381.049 234.48 381.114 234.407 381.158 234.322C381.201 234.236 381.222 234.141 381.219 234.044C381.215 233.948 381.186 233.855 381.136 233.773L316.192 131.794C326.166 135.39 351.158 120.596 352.52 110.13C367.017 135.04 405.432 195.853 428.539 212.927C430.005 214.129 431.717 214.989 433.552 215.444C435.387 215.898 437.299 215.938 439.15 215.558C439.28 215.513 439.391 215.425 439.464 215.308C439.538 215.191 439.57 215.053 439.556 214.915C439.255 212.782 439.255 210.616 439.556 208.483C448.254 210.12 451.472 203.776 451.414 194.8C451.414 194.653 451.356 194.511 451.253 194.407C451.15 194.303 451.01 194.245 450.863 194.245C450.717 194.245 450.577 194.303 450.474 194.407C450.371 194.511 450.313 194.653 450.313 194.8C450.313 200.998 448.863 205.004 445.935 206.7C441.093 209.623 433.7 205.15 433.439 205.004C433.356 204.952 433.26 204.923 433.163 204.921C433.065 204.918 432.968 204.942 432.883 204.99C432.797 205.037 432.726 205.107 432.676 205.192C432.626 205.276 432.599 205.373 432.598 205.472C432.598 205.764 432.308 205.238 438.252 213.132C438.252 213.6 438.252 214.097 438.397 214.594C432.917 215.617 428.916 212.079 424.77 208.366C429.119 208.191 426.799 197.724 425.727 193.455C425.703 193.346 425.645 193.248 425.561 193.174C425.478 193.101 425.373 193.056 425.263 193.046C416.884 186.789 421.871 179.012 426.017 183.661C427.437 185.269 428.481 185.883 429.322 185.707C430.163 185.532 430.714 184.099 430.656 183.778C428.655 170.767 441.064 161.85 447.152 176.79C447.217 176.908 447.323 176.998 447.449 177.044C447.576 177.089 447.714 177.086 447.838 177.036C447.963 176.986 448.065 176.892 448.125 176.771C448.186 176.65 448.201 176.512 448.167 176.381V176.147C448.638 175.683 449.164 175.281 449.733 174.948C449.789 175.061 449.881 175.152 449.995 175.205C450.109 175.258 450.238 175.27 450.359 175.239C450.481 175.209 450.589 175.137 450.665 175.036C450.741 174.935 450.78 174.812 450.776 174.685C449.53 106.212 438.6 93.7569 433.961 91.5641C433.052 91.1227 432.035 90.9595 431.035 91.0946C430.036 91.2297 429.097 91.6572 428.336 92.3243C426.991 93.668 425.93 95.2728 425.217 97.0416C424.505 98.8105 424.155 100.707 424.19 102.616C417.145 81.9159 407.577 73.3787 401.315 74.4897C396.125 75.3376 393.313 82.0036 393.632 92.8213C393.938 104.669 395.95 116.408 399.604 127.672C393.661 117.293 388.529 112.586 384.876 114.369C379.077 117.293 380.469 134.835 387.398 149.453C406.157 189.011 424.654 191.145 426.191 205.004C425.988 206.407 425.524 206.875 425.263 207.021C425.002 207.167 423.407 207.021 422.074 205.676C398.503 182.871 368.756 135.683 352.259 107.323C351.835 106.528 351.215 105.857 350.458 105.376C349.701 104.894 348.833 104.618 347.939 104.575L347.533 103.727C346.598 101.984 346.205 99.9965 346.407 98.0249C346.609 96.0533 347.395 94.1888 348.664 92.6751C360.261 78.5536 358.232 76.2439 357.565 75.4838C353.825 71.3613 343.59 83.7871 338.14 84.4595C336.835 84.635 335.241 79.4892 334.893 77.0333C334.893 77.0333 332.225 59.4911 331.993 58.3801C331.558 55.0763 330.486 49.609 328.224 49.609C325.963 49.609 325.325 56.4212 325.325 59.111C325.325 64.8122 325.325 69.4317 325.325 72.3554C323.209 65.6016 320.019 55.5149 319.729 54.5208C318.773 51.2755 316.83 45.9251 314.511 46.4514C312.771 46.8607 312.249 50.6323 313.177 56.3043C314.25 62.8241 315.41 70.3965 316.076 74.8698C314.482 71.3029 312.51 66.5665 310.481 60.9529C309.089 57.1229 307.002 52.6789 305.001 53.2344C302.537 53.9068 303.668 61.0114 304.073 63.175C304.682 66.5665 306.161 73.6711 307.379 78.349C306.132 76.0685 304.827 73.4664 303.639 70.6596C302.044 66.9173 299.754 62.561 297.84 63.2042C295.376 64.0521 296.97 71.3613 297.521 73.5833C299.464 81.4189 301.029 85.0735 305.03 99.3704C307.521 107.662 310.552 115.778 314.105 123.666C311.814 128.257 314.105 130.04 314.105 130.391L365.857 211.962C329.587 211.962 335.299 211.758 332.399 212.372C328.137 214.184 326.601 221.494 328.224 232.837L249.944 246.053C203.324 145.097 206.687 151.997 206.136 152.085C204.107 152.085 202.222 152.377 200.338 152.611C197.032 145.799 197.293 136.355 183.203 129.865C169.112 123.374 147.803 94.7802 143.425 103.23C141.221 107.469 166.619 155.155 169.518 164.014C167.663 165.271 165.865 166.616 164.184 168.019C164.101 168.089 164.041 168.181 164.01 168.285C163.979 168.389 163.979 168.5 164.01 168.604C174.505 203.951 185.609 239.357 197.438 274.091C147.774 251.228 150.731 252.397 150.325 252.777C149.194 253.859 148.064 254.999 146.991 256.169C139.975 252.689 134.611 245.263 119.564 248.83C104.517 252.397 71.726 242.983 71.9869 252.426C72.1319 258.274 126.145 279.968 131.364 283.388C130.697 285.61 130.088 287.832 129.595 290.025C129.574 290.128 129.581 290.234 129.617 290.332C129.653 290.431 129.716 290.517 129.798 290.581C164.181 317.699 200.952 341.588 239.652 361.948C244.333 364.479 249.521 365.909 254.828 366.132C260.135 366.354 265.423 365.364 270.297 363.235C304.539 348.581 337.282 330.593 368.06 309.526C369.212 310.098 370.504 310.322 371.779 310.172C373.055 310.021 374.26 309.503 375.25 308.678C412.709 287.482 428.974 266.811 435.99 252.192C464.983 227.604 504.703 183.953 529.897 142.846C529.952 142.764 529.982 142.667 529.982 142.568C529.982 142.469 529.952 142.372 529.897 142.29C529.459 141.455 528.975 140.645 528.448 139.864C529.869 137.496 539.117 121.708 541.437 110.861C542.712 105.364 542.016 104.341 541.234 104.107ZM314.25 56.1873C313.264 50.106 314.25 47.767 314.772 47.6209C315.294 47.4747 316.83 48.6734 318.686 54.9301C318.976 55.8949 325.934 78.0566 326.108 78.5829C323.776 79.5528 321.543 80.7473 319.44 82.1498C319.208 81.5066 319.671 82.7638 317.7 78.5536C317.555 77.4719 315.815 65.7478 314.25 56.1873ZM305.146 63.058C303.986 56.9182 304.769 54.5208 305.146 54.2869C305.523 54.053 307.089 55.2517 309.321 61.333C311.939 68.5554 314.94 75.6312 318.309 82.5299C316.377 83.936 314.564 85.5006 312.887 87.2078C311.545 85.5334 310.352 83.743 309.321 81.8574C307.58 75.6751 306.186 69.3986 305.146 63.058ZM306.045 99.1658C302.102 84.9858 300.565 81.6235 298.565 73.4079C296.999 67.0635 297.637 64.6368 298.159 64.3444C298.681 64.0521 300.13 65.2508 302.624 71.1859C305.22 77.2307 308.488 82.9588 312.365 88.2603C310.626 90.1023 308.944 92.1489 307.205 94.4001C306.741 94.9556 307.611 95.6281 308.045 95.0726C314.424 86.8277 320.135 81.4189 330.457 78.1443C330.534 78.1317 330.609 78.1025 330.674 78.0586C330.74 78.0147 330.795 77.9571 330.837 77.8897C330.878 77.8224 330.905 77.7468 330.916 77.6681C330.926 77.5894 330.919 77.5094 330.896 77.4335C330.873 77.3576 330.834 77.2876 330.782 77.2281C330.73 77.1686 330.666 77.1211 330.594 77.0887C330.522 77.0563 330.444 77.0398 330.366 77.0404C330.287 77.0409 330.209 77.0584 330.138 77.0918C329.094 77.4134 328.079 77.7642 327.239 78.1443L326.543 75.9516C326.543 75.0744 326.543 68.6715 326.543 59.1987C326.543 53.0005 327.818 50.8369 328.398 50.8077C328.978 50.7785 330.254 52.2111 331.124 58.6432C331.269 59.6958 334.023 77.2965 334.023 77.2965C334.023 77.2965 335.501 86.0676 338.488 85.6875C343.88 84.9858 354.231 73.3787 356.956 76.3316C357.449 76.8871 358.29 79.6647 348.026 92.0904C346.624 93.7762 345.755 95.8478 345.533 98.0371C345.31 100.226 345.745 102.432 346.78 104.37C346.78 104.692 350.578 112.059 350.868 112.586C346.49 121.357 329.587 131.531 319.527 131.21C313.891 121.054 309.371 110.309 306.045 99.1658ZM205.846 153.196C241.246 229.914 247.828 244.415 249.335 246.959C249.625 247.514 249.335 247.427 250.234 247.31L353.245 229.768C359.508 239.545 364.708 249.975 368.756 260.876L256.409 279.354C250.904 280.264 245.256 279.212 240.436 276.379C235.616 273.546 231.925 269.108 229.997 263.829L190.48 155.652C195.507 154.313 200.655 153.49 205.846 153.196ZM144.527 103.756C147.919 97.1776 169.112 124.514 182.855 130.859C196.597 137.203 195.931 145.477 199.236 152.757C189 154.098 179.187 157.713 170.504 163.341C167.518 154.775 142.787 107.089 144.527 103.756ZM73.0306 252.397C72.8567 244.854 105.097 253.42 119.796 249.912C134.031 246.52 139.105 253.391 146.179 257.017C139.653 264.348 134.716 272.971 131.683 282.336C125.913 278.857 73.2046 257.163 73.0306 252.397ZM269.862 362.153C265.142 364.221 260.02 365.184 254.878 364.972C249.737 364.759 244.709 363.376 240.174 360.925C201.637 340.643 165.012 316.863 130.755 289.879C133.728 276.156 140.718 263.649 150.818 253.976L197.902 275.67L206.6 300.375C209.239 307.86 214.272 314.247 220.907 318.53C227.542 322.812 235.401 324.746 243.247 324.028C287.693 319.905 322.745 313.415 353.564 303.562C353.685 303.505 353.781 303.407 353.835 303.284C353.89 303.162 353.898 303.024 353.859 302.896C353.82 302.767 353.737 302.657 353.624 302.586C353.511 302.515 353.376 302.488 353.245 302.509C322.484 312.275 287.519 318.736 243.073 322.975C235.449 323.656 227.817 321.755 221.385 317.572C214.953 313.389 210.087 307.162 207.557 299.878C193.06 258.625 180.97 222.605 165.227 168.633C172.312 162.774 180.526 158.463 189.349 155.973L228.895 264.15C230.673 269.012 233.886 273.207 238.1 276.171C242.314 279.135 247.328 280.725 252.466 280.728C255.366 280.728 245.798 282.16 369.046 261.87C375.077 278.096 378.005 293.387 376.613 302.129C343.308 326.006 307.511 346.134 269.862 362.153ZM536.015 96.476C537.61 89.7514 538.914 89.3714 538.914 89.3714C538.914 89.3714 539.958 91.1256 539.552 97.0607C539.034 103.082 537.637 108.993 535.406 114.603C534.915 112.597 534.246 110.64 533.406 108.756C534.556 104.748 535.427 100.664 536.015 96.5344V96.476ZM532.391 88.8451C533.87 82.9977 534.884 82.5299 534.884 82.5299C534.884 82.5299 535.841 84.3133 535.551 89.693C535.256 95.6332 534.283 101.519 532.652 107.235C531.76 105.372 530.692 103.6 529.463 101.943C529.8 100.179 529.994 98.3893 530.042 96.5929C530.854 94.4878 531.637 91.8273 532.391 88.9036V88.8451ZM540.364 110.714C538.189 120.889 529.753 135.566 527.752 138.957C523.44 132.984 517.583 128.321 510.82 125.479C512.125 122.906 517.373 111.767 515.546 102.616C514.009 95.0433 514.647 94.0493 514.734 93.8446C514.821 93.64 516.068 94.1955 519.953 101.095C523.838 107.995 526.07 124.31 526.099 124.485C526.099 125.245 527.259 125.011 527.172 124.485C526.204 117.193 524.495 110.022 522.069 103.084C523.275 98.8934 524.243 94.6374 524.969 90.3362C525.954 84.9858 526.998 83.6994 527.259 83.6701C527.52 83.6409 528.361 84.1087 528.825 91.0379C529.013 94.3649 528.896 97.7023 528.477 101.008C528.082 100.522 527.656 100.063 527.201 99.6335C526.679 99.1365 525.926 99.9552 526.447 100.423C531.03 105.471 533.956 111.821 534.826 118.608C534.826 118.756 534.884 118.897 534.988 119.001C535.091 119.105 535.231 119.164 535.377 119.164C535.523 119.164 535.663 119.105 535.767 119.001C535.87 118.897 535.928 118.756 535.928 118.608C535.609 116.269 535.464 117.117 535.928 115.685C536.392 114.252 537.436 111.65 538.247 108.785C538.76 107.414 539.596 106.19 540.683 105.218C540.683 105.218 541.437 105.803 540.364 110.714Z" fill="#10162F" stroke="#10162F" stroke-width="2" mask="url(#path-23-inside-1_1662_9441)"/>
<path d="M475.538 1.04664L475.184 0.692863C459.998 15.8601 455.147 30.4202 455.538 44.6834C455.927 58.9035 461.531 72.786 467.131 86.5812L467.232 86.8301C472.812 100.578 478.358 114.242 478.911 128.23C479.467 142.259 474.996 156.652 460.335 171.764L459.239 172.893L460.786 172.604C461.831 172.408 462.906 172.429 463.943 172.665C464.981 172.901 465.961 173.348 466.822 173.978C467.684 174.607 468.41 175.408 468.956 176.33C469.502 177.252 469.856 178.276 469.997 179.341L469.998 179.348L470.868 185.312L470.868 185.313C471.174 187.396 470.651 189.516 469.415 191.212C468.179 192.906 466.33 194.039 464.272 194.365C453.096 195.972 447.862 196.777 445.311 197.179C443.171 197.517 442.94 197.567 442.708 197.574C442.66 197.575 442.611 197.575 442.546 197.575C440.948 197.569 439.391 197.071 438.08 196.148C436.77 195.224 435.77 193.919 435.214 192.406L435.078 192.035L434.685 192.082C429.213 192.744 425.643 193.197 423.287 193.495C422.045 193.652 421.14 193.767 420.472 193.847C419.494 193.964 419.091 193.998 418.906 193.991C418.905 193.991 418.904 193.991 418.904 193.991C418.901 193.988 418.898 193.985 418.895 193.982C415.82 190.642 413.928 188.718 412.807 187.579C412.697 187.467 412.594 187.363 412.498 187.265C412.048 186.806 411.774 186.521 411.614 186.333C411.905 186.267 412.473 186.173 413.609 186.017C415.707 185.728 419.652 185.235 427.136 184.302C429.008 184.068 431.102 183.807 433.444 183.514L433.846 183.464L433.881 183.06C434.031 181.283 434.77 179.61 435.977 178.308C437.184 177.006 438.788 176.152 440.533 175.881L440.535 175.881L458.974 172.957L459.135 172.932L459.25 172.817C474.466 157.582 479.243 142.953 478.761 128.617C478.285 114.444 472.668 100.597 467.083 86.8297L466.941 86.4794C461.295 72.5599 455.726 58.7178 455.368 44.5351C455.011 30.395 459.837 15.8727 475.108 0.610902L475.11 0.609303C475.12 0.598872 475.134 0.59375 475.146 0.59375C475.159 0.59375 475.172 0.598845 475.183 0.609303C475.193 0.619926 475.2 0.635194 475.2 0.651938C475.2 0.668681 475.193 0.683949 475.183 0.694572L475.538 1.04664ZM475.538 1.04664C475.642 0.941957 475.7 0.799979 475.7 0.651938C475.7 0.503896 475.642 0.361918 475.538 0.257237C475.434 0.152556 475.293 0.09375 475.146 0.09375C475 0.09375 474.859 0.152556 474.755 0.257237M475.538 1.04664C445.235 31.3111 456.459 58.9624 467.713 86.6857C478.814 114.036 489.944 141.455 461.26 171.523C461.04 171.548 460.82 171.58 460.602 171.621L460.694 172.113L461.052 172.461C461.201 172.308 461.348 172.155 461.494 172.003C462.349 171.928 463.213 171.986 464.054 172.178C465.159 172.429 466.201 172.904 467.117 173.574C468.034 174.244 468.806 175.095 469.386 176.075C469.966 177.055 470.343 178.144 470.493 179.276L471.363 185.24C471.688 187.452 471.133 189.705 469.819 191.506C468.505 193.308 466.538 194.513 464.347 194.859L474.755 0.257237M474.755 0.257237C443.924 31.0689 455.282 59.0679 466.602 86.9738C477.839 114.675 489.039 142.285 458.896 172.463L474.755 0.257237ZM464.249 194.125L464.249 194.125L455.562 195.468C455.56 195.469 455.558 195.469 455.557 195.469C454.532 195.65 453.482 195.622 452.468 195.385C451.453 195.148 450.496 194.707 449.654 194.088C448.812 193.47 448.103 192.686 447.568 191.786C447.034 190.886 446.686 189.887 446.543 188.848C446.393 187.84 446.259 186.971 446.142 186.215C445.922 184.795 445.764 183.772 445.678 182.965C445.543 181.697 445.579 180.906 445.827 179.888L445.829 179.883C446.209 178.389 447.016 177.04 448.15 176.002C449.283 174.964 450.694 174.284 452.208 174.045L452.211 174.045L460.908 172.729C461.916 172.574 462.946 172.623 463.936 172.871C464.926 173.12 465.857 173.563 466.676 174.177C467.494 174.79 468.184 175.561 468.705 176.444C469.226 177.327 469.568 178.305 469.712 179.321L464.249 194.125ZM464.249 194.125L464.261 194.123C466.27 193.764 468.057 192.62 469.234 190.942C470.41 189.265 470.884 187.189 470.552 185.164C470.552 185.162 470.552 185.161 470.552 185.159L469.712 179.323L464.249 194.125Z" fill="#FFD644" stroke="#10162F"/>
<path d="M475.538 1.04664L475.184 0.692863C459.998 15.8601 455.147 30.4202 455.538 44.6834C455.927 58.9035 461.531 72.786 467.131 86.5812L467.232 86.8301C472.812 100.578 478.358 114.242 478.911 128.23C479.467 142.259 474.996 156.652 460.335 171.764L459.239 172.893L460.786 172.604C461.831 172.408 462.906 172.429 463.943 172.665C464.981 172.901 465.961 173.348 466.822 173.978C467.684 174.607 468.41 175.408 468.956 176.33C469.502 177.252 469.856 178.276 469.997 179.341L469.998 179.348L470.868 185.312L470.868 185.313C471.174 187.396 470.651 189.516 469.415 191.212C468.179 192.906 466.33 194.039 464.272 194.365C453.096 195.972 447.862 196.777 445.311 197.179C443.171 197.517 442.94 197.567 442.708 197.574C442.66 197.575 442.611 197.575 442.546 197.575C440.948 197.569 439.391 197.071 438.08 196.148C436.77 195.224 435.77 193.919 435.214 192.406L435.078 192.035L434.685 192.082C429.213 192.744 425.643 193.197 423.287 193.495C422.045 193.652 421.14 193.767 420.472 193.847C419.494 193.964 419.091 193.998 418.906 193.991C418.905 193.991 418.904 193.991 418.904 193.991C418.901 193.988 418.898 193.985 418.895 193.982C415.82 190.642 413.928 188.718 412.807 187.579C412.697 187.467 412.594 187.363 412.498 187.265C412.048 186.806 411.774 186.521 411.614 186.333C411.905 186.267 412.473 186.173 413.609 186.017C415.707 185.728 419.652 185.235 427.136 184.302C429.008 184.068 431.102 183.807 433.444 183.514L433.846 183.464L433.881 183.06C434.031 181.283 434.77 179.61 435.977 178.308C437.184 177.006 438.788 176.152 440.533 175.881L440.535 175.881L458.974 172.957L459.135 172.932L459.25 172.817C474.466 157.582 479.243 142.953 478.761 128.617C478.285 114.444 472.668 100.597 467.083 86.8297L466.941 86.4794C461.295 72.5599 455.726 58.7178 455.368 44.5351C455.011 30.395 459.837 15.8727 475.108 0.610902L475.11 0.609303C475.12 0.598872 475.134 0.59375 475.146 0.59375C475.159 0.59375 475.172 0.598845 475.183 0.609303C475.193 0.619926 475.2 0.635194 475.2 0.651938C475.2 0.668681 475.193 0.683949 475.183 0.694572L475.538 1.04664ZM475.538 1.04664C475.642 0.941957 475.7 0.799979 475.7 0.651938C475.7 0.503896 475.642 0.361918 475.538 0.257237C475.434 0.152556 475.293 0.09375 475.146 0.09375C475 0.09375 474.859 0.152556 474.755 0.257237M475.538 1.04664C445.235 31.3111 456.459 58.9624 467.713 86.6857C478.814 114.036 489.944 141.455 461.26 171.523C461.04 171.548 460.82 171.58 460.602 171.621L460.694 172.113L461.052 172.461C461.201 172.308 461.348 172.155 461.494 172.003C462.349 171.928 463.213 171.986 464.054 172.178C465.159 172.429 466.201 172.904 467.117 173.574C468.034 174.244 468.806 175.095 469.386 176.075C469.966 177.055 470.343 178.144 470.493 179.276L471.363 185.24C471.688 187.452 471.133 189.705 469.819 191.506C468.505 193.308 466.538 194.513 464.347 194.859L474.755 0.257237M474.755 0.257237C443.924 31.0689 455.282 59.0679 466.602 86.9738C477.839 114.675 489.039 142.285 458.896 172.463L474.755 0.257237ZM464.249 194.125L464.249 194.125L455.562 195.468C455.56 195.469 455.558 195.469 455.557 195.469C454.532 195.65 453.482 195.622 452.468 195.385C451.453 195.148 450.496 194.707 449.654 194.088C448.812 193.47 448.103 192.686 447.568 191.786C447.034 190.886 446.686 189.887 446.543 188.848C446.393 187.84 446.259 186.971 446.142 186.215C445.922 184.795 445.764 183.772 445.678 182.965C445.543 181.697 445.579 180.906 445.827 179.888L445.829 179.883C446.209 178.389 447.016 177.04 448.15 176.002C449.283 174.964 450.694 174.284 452.208 174.045L452.211 174.045L460.908 172.729C461.916 172.574 462.946 172.623 463.936 172.871C464.926 173.12 465.857 173.563 466.676 174.177C467.494 174.79 468.184 175.561 468.705 176.444C469.226 177.327 469.568 178.305 469.712 179.321L464.249 194.125ZM464.249 194.125L464.261 194.123C466.27 193.764 468.057 192.62 469.234 190.942C470.41 189.265 470.884 187.189 470.552 185.164C470.552 185.162 470.552 185.161 470.552 185.159L469.712 179.323L464.249 194.125Z" fill="#FFD644" stroke="#10162F"/>
</svg>
