<svg width="145" height="48" viewBox="0 0 145 48" fill="none" xmlns="http://www.w3.org/2000/svg">
<path d="M37.8191 19.9694C37.8191 30.5883 29.353 39.1966 18.9095 39.1966C8.46607 39.1966 0 30.5883 0 19.9694C0 9.35048 8.46607 0.742188 18.9095 0.742188C29.353 0.742188 37.8191 9.35048 37.8191 19.9694ZM5.72342 19.9694C5.72342 27.3742 11.6271 33.377 18.9095 33.377C26.192 33.377 32.0957 27.3742 32.0957 19.9694C32.0957 12.5646 26.192 6.56175 18.9095 6.56175C11.6271 6.56175 5.72342 12.5646 5.72342 19.9694Z" fill="#10162F"/>
<path d="M27.8379 34.3989C26.7432 33.2066 26.8064 31.3379 27.979 30.2249C29.1515 29.1119 30.9894 29.1761 32.084 30.3683L42.0773 41.2529C43.1719 42.4451 43.1087 44.3139 41.9362 45.4269C40.7636 46.5399 38.9257 46.4757 37.8311 45.2834L27.8379 34.3989Z" fill="#10162F"/>
<path d="M49.2556 30.4266C46.3292 30.4266 44.2222 29.8315 42.9344 28.6412C41.6466 27.434 41.0029 25.5041 41.0029 22.8515V16.2201L41.028 13.644L41.0029 12.1137H46.6218V21.5762C46.6218 22.3584 46.6804 23.0555 46.7974 23.6677C46.9143 24.2628 47.1651 24.7304 47.5499 25.0705C47.9346 25.4106 48.5197 25.5806 49.3058 25.5806C50.1085 25.5806 50.702 25.4276 51.0867 25.1215C51.4715 24.8154 51.7223 24.3648 51.8393 23.7697C51.9562 23.1746 52.0148 22.4434 52.0148 21.5762V12.1137H57.5083V22.8515C57.5083 24.5859 57.2323 26.0142 56.6805 27.1364C56.1286 28.2417 55.2507 29.0663 54.0467 29.6105C52.8426 30.1546 51.2457 30.4266 49.2556 30.4266ZM60.7646 30.1716L60.2629 28.6412L60.7646 26.0907V12.1137H73.6829L74.9371 12.8789L73.2815 17.2148L71.024 16.9597H66.3332V19.0002H72.529V23.2086H69.0674L66.3332 22.9535V25.3255H73.2815L76.2665 28.5392L74.7866 30.1716H60.7646ZM84.425 30.4266C83.505 30.4266 82.5939 30.3416 81.6909 30.1716C80.8044 30.0185 80.0183 29.8145 79.333 29.5594C78.6472 29.3044 78.154 29.0493 77.853 28.7943V23.4636C78.4882 23.8207 79.1991 24.1438 79.9852 24.4328C80.7709 24.7219 81.5654 24.9515 82.3681 25.1215C83.1874 25.2745 83.965 25.351 84.701 25.351C85.7209 25.351 86.2311 25.113 86.2311 24.6369C86.2311 24.3988 86.1223 24.2033 85.905 24.0503C85.7043 23.8802 85.3447 23.7017 84.8264 23.5146C84.3077 23.3276 83.5722 23.0896 82.619 22.8005C81.5153 22.4434 80.5702 22.0693 79.7845 21.6782C79.015 21.2872 78.4214 20.7856 78.0035 20.1734C77.6022 19.5613 77.4015 18.7451 77.4015 17.7249C77.4015 15.9565 78.0954 14.5367 79.4835 13.4655C80.8712 12.3943 82.903 11.8586 85.5789 11.8586C86.1138 11.8586 86.6826 11.8841 87.2846 11.9352C87.9032 11.9692 88.3964 12.0202 88.7646 12.0882L91.8499 14.2051L90.5957 18.082L84.1742 16.4241C83.505 16.4241 83.1708 16.6537 83.1708 17.1128C83.1708 17.4698 83.3796 17.7674 83.7979 18.0055C84.2325 18.2265 85.0101 18.5326 86.1308 18.9237C87.6188 19.4338 88.7978 19.9609 89.6676 20.505C90.5537 21.0321 91.1893 21.6358 91.574 22.3159C91.9584 22.996 92.1509 23.8037 92.1509 24.7389C92.1509 26.4393 91.5069 27.8166 90.2195 28.8708C88.9317 29.908 87.0002 30.4266 84.425 30.4266ZM98.718 30.1716V16.9852L93.7011 17.2403V12.1137H109.379V17.2403L104.236 16.9852V26.0907L104.512 28.6412L104.236 30.1716H98.718ZM115.4 30.1716V16.9852L110.383 17.2403V12.1137H126.06V17.2403L120.918 16.9852V26.0907L121.194 28.6412L120.918 30.1716H115.4ZM133.16 30.1716V22.775L126.939 13.644V12.1137H133.236L135.744 17.3678H136.246L138.729 12.1137H145V13.644L138.604 22.928L138.754 25.5041V30.1716H133.16Z" fill="#10162F"/>
</svg>
