<svg width="1219" height="614" viewBox="0 0 1219 614" fill="none" xmlns="http://www.w3.org/2000/svg">
<path d="M133.128 266.01L1164.13 151.15C1190.2 148.246 1213 168.65 1213 194.88V413.379C1213 435.75 1196.21 454.56 1173.99 457.095L142.986 574.689C116.88 577.667 94 557.249 94 530.973V309.739C94 287.324 110.851 268.491 133.128 266.01Z" fill="black" stroke="black" stroke-width="12"/>
<path d="M349.256 394.793C355.886 443.279 323.148 487.796 276.134 494.224C229.12 500.653 185.634 466.558 179.004 418.072C172.374 369.585 205.112 325.068 252.126 318.64C299.14 312.212 342.627 346.306 349.256 394.793ZM204.769 414.549C209.392 448.359 239.717 472.135 272.501 467.652C305.285 463.169 328.114 432.126 323.491 398.316C318.868 364.505 288.543 340.73 255.759 345.212C222.975 349.695 200.146 380.738 204.769 414.549Z" fill="white"/>
<path d="M314.175 467.531C308.037 462.37 306.777 453.481 311.361 447.677C315.944 441.873 324.636 441.353 330.773 446.514L386.807 493.637C392.945 498.799 394.205 507.688 389.621 513.492C385.037 519.296 376.346 519.816 370.208 514.655L314.175 467.531Z" fill="white"/>
<path d="M482.544 337.977L493.626 443.416L461.314 446.812L459.804 432.451C457.019 437.456 452.944 441.705 447.58 445.199C442.328 448.553 436.301 450.587 429.499 451.302C421.436 452.149 414.134 451.134 407.59 448.255C401.034 445.251 395.697 440.526 391.581 434.081C387.465 427.636 384.923 419.816 383.957 410.62L377.482 349.019L409.605 345.643L415.623 402.897C416.364 409.952 418.767 415.24 422.831 418.761C426.894 422.282 432.013 423.718 438.185 423.069C444.484 422.407 449.255 419.932 452.497 415.643C455.74 411.354 456.991 405.682 456.249 398.627L450.232 341.373L482.544 337.977ZM610.508 376.11C610.826 379.133 610.968 382.302 610.934 385.617L537.807 393.303C538.999 399.801 541.607 404.621 545.631 407.764C549.768 410.768 554.545 411.986 559.962 411.416C568.024 410.569 573.272 406.579 575.706 399.445L610.097 395.83C609.062 402.944 606.505 409.518 602.426 415.55C598.474 421.57 593.199 426.518 586.601 430.396C580.004 434.273 572.422 436.662 563.856 437.563C553.526 438.648 544.098 437.41 535.573 433.849C527.047 430.287 520.086 424.65 514.691 416.939C509.295 409.227 506.021 399.892 504.87 388.932C503.718 377.972 504.916 368.167 508.464 359.515C512.139 350.85 517.775 343.89 525.374 338.633C532.973 333.377 542 330.199 552.456 329.1C562.66 328.028 571.955 329.216 580.341 332.665C588.728 336.114 595.543 341.575 600.786 349.047C606.155 356.507 609.396 365.528 610.508 376.11ZM576.546 371.082C575.964 365.539 573.611 361.329 569.487 358.451C565.364 355.573 560.468 354.431 554.799 355.027C549.382 355.597 544.95 357.654 541.502 361.201C538.179 364.734 536.382 369.445 536.109 375.332L576.546 371.082ZM676.326 425.741C667.13 426.708 658.777 425.994 651.265 423.599C643.754 421.205 637.635 417.517 632.908 412.538C628.169 407.432 625.19 401.504 623.971 394.754L655.905 391.398C656.667 395.011 658.678 397.793 661.94 399.743C665.202 401.693 669.037 402.436 673.446 401.972C677.477 401.549 680.484 400.468 682.467 398.732C684.562 396.856 685.478 394.658 685.213 392.139C684.895 389.115 683.089 387.076 679.794 386.021C676.485 384.841 671.211 383.739 663.972 382.717C656.228 381.748 649.737 380.583 644.5 379.223C639.249 377.738 634.578 375.108 630.488 371.335C626.385 367.436 623.956 361.896 623.201 354.716C622.566 348.669 623.627 343.017 626.386 337.76C629.258 332.363 633.754 327.879 639.874 324.306C646.12 320.72 653.715 318.457 662.659 317.517C675.886 316.127 686.623 318.31 694.87 324.066C703.243 329.809 708.566 338.038 710.838 348.752L680.982 351.89C680.095 348.29 678.152 345.565 675.156 343.714C672.285 341.851 668.646 341.151 664.237 341.614C660.457 342.012 657.639 343.072 655.783 344.795C653.913 346.393 653.11 348.452 653.375 350.971C653.693 353.994 655.506 356.096 658.814 357.277C662.248 358.444 667.446 359.426 674.407 360.223C682.43 361.418 689.003 362.765 694.128 364.264C699.239 365.637 703.853 368.336 707.97 372.361C712.199 376.247 714.761 381.837 715.655 389.13C716.304 395.303 715.123 401.031 712.112 406.314C709.214 411.459 704.635 415.761 698.376 419.221C692.242 422.668 684.893 424.841 676.326 425.741ZM794.527 384.088L797.407 411.487L780.968 413.215C769.252 414.446 759.821 412.572 752.675 407.591C745.515 402.485 741.253 393.445 739.89 380.469L735.481 338.52L722.631 339.871L719.811 313.039L732.661 311.688L729.96 285.99L762.272 282.594L764.973 308.292L786.136 306.068L788.956 332.9L767.793 335.124L772.241 377.451C772.572 380.6 773.567 382.788 775.224 384.015C776.881 385.242 779.474 385.67 783.001 385.299L794.527 384.088ZM871.292 376.02L874.172 403.419L857.732 405.147C846.017 406.378 836.586 404.503 829.439 399.523C822.28 394.417 818.018 385.376 816.654 372.401L812.245 330.452L799.396 331.803L796.576 304.97L809.425 303.62L806.724 277.921L839.036 274.525L841.737 300.224L862.901 297.999L865.721 324.832L844.557 327.056L849.006 369.383C849.337 372.532 850.331 374.72 851.989 375.947C853.646 377.174 856.238 377.602 859.765 377.231L871.292 376.02Z" fill="white"/>
<path d="M11.6927 461L52.5628 404.064L94 348.962V461H11.6927Z" fill="black" stroke="black" stroke-width="12"/>
<path d="M87 359.5L126.5 307L138 446H88L87 359.5Z" fill="black"/>
<mask id="path-7-outside-1_3035_5744" maskUnits="userSpaceOnUse" x="836.906" y="174.989" width="385.226" height="422.676" fill="black">
<rect fill="white" x="836.906" y="174.989" width="385.226" height="422.676"/>
<path d="M1136.64 212.013L1032.88 548.756L960.767 556.224L999.404 439.728L888.565 237.705L963.419 229.953L1028.14 361.492L1064.14 219.522L1136.64 212.013Z"/>
</mask>
<path d="M1136.64 212.013L1032.88 548.756L960.767 556.224L999.404 439.728L888.565 237.705L963.419 229.953L1028.14 361.492L1064.14 219.522L1136.64 212.013Z" fill="white"/>
<path d="M1136.64 212.013L1167.22 221.436L1181.47 175.199L1133.34 180.183L1136.64 212.013ZM1032.88 548.756L1036.17 580.585L1057.23 578.405L1063.46 558.179L1032.88 548.756ZM960.767 556.224L930.394 546.15L914.805 593.155L964.064 588.054L960.767 556.224ZM999.404 439.728L1029.78 449.801L1034.17 436.563L1027.46 424.336L999.404 439.728ZM888.565 237.705L885.269 205.875L837.326 210.84L860.51 253.097L888.565 237.705ZM963.419 229.953L992.132 215.825L982.292 195.827L960.122 198.123L963.419 229.953ZM1028.14 361.492L999.427 375.619L1037.8 453.601L1059.16 369.357L1028.14 361.492ZM1064.14 219.522L1060.84 187.692L1038.61 189.994L1033.12 211.657L1064.14 219.522ZM1106.06 202.59L1002.3 539.333L1063.46 558.179L1167.22 221.436L1106.06 202.59ZM1029.58 516.926L957.471 524.394L964.064 588.054L1036.17 580.585L1029.58 516.926ZM991.14 566.297L1029.78 449.801L969.031 429.654L930.394 546.15L991.14 566.297ZM1027.46 424.336L916.62 222.313L860.51 253.097L971.349 455.12L1027.46 424.336ZM891.862 269.535L966.715 261.783L960.122 198.123L885.269 205.875L891.862 269.535ZM934.706 244.08L999.427 375.619L1056.85 347.364L992.132 215.825L934.706 244.08ZM1059.16 369.357L1095.16 227.387L1033.12 211.657L997.121 353.626L1059.16 369.357ZM1067.43 251.352L1139.94 243.843L1133.34 180.183L1060.84 187.692L1067.43 251.352Z" fill="black" mask="url(#path-7-outside-1_3035_5744)"/>
</svg>
