<svg width="146" height="34" viewBox="0 0 146 34" fill="none" xmlns="http://www.w3.org/2000/svg">
<path d="M0.902344 16.2383C0.902344 14.8574 1.16211 13.5586 1.68164 12.3418C2.21484 11.125 2.93262 10.0654 3.83496 9.16309C4.75098 8.24707 5.81055 7.5293 7.01367 7.00977C8.23047 6.47656 9.5293 6.20996 10.9102 6.20996C12.291 6.20996 13.5898 6.47656 14.8066 7.00977C16.0234 7.5293 17.083 8.24707 17.9854 9.16309C18.8877 10.0654 19.5986 11.125 20.1182 12.3418C20.6514 13.5586 20.918 14.8574 20.918 16.2383V30.2451C20.918 30.6416 20.8428 31.0107 20.6924 31.3525C20.542 31.708 20.3369 32.0156 20.0771 32.2754C19.8311 32.5352 19.5371 32.7334 19.1953 32.8701C18.8672 33.0205 18.5117 33.0957 18.1289 33.0957C17.7324 33.0957 17.3701 33.0205 17.042 32.8701C16.7139 32.7334 16.4336 32.5352 16.2012 32.2754C15.9688 32.0156 15.7842 31.708 15.6475 31.3525C15.5244 31.0107 15.4629 30.6416 15.4629 30.2451V25.1387C14.0547 25.8633 12.5371 26.2256 10.9102 26.2256C9.5293 26.2256 8.23047 25.9658 7.01367 25.4463C5.81055 24.9131 4.75098 24.1953 3.83496 23.293C2.93262 22.3906 2.21484 21.3379 1.68164 20.1348C1.16211 18.918 0.902344 17.6191 0.902344 16.2383ZM6.37793 16.2383C6.37793 16.8672 6.49414 17.4551 6.72656 18.002C6.97266 18.5488 7.30078 19.0273 7.71094 19.4375C8.13477 19.8477 8.62012 20.1689 9.16699 20.4014C9.71387 20.6338 10.2949 20.75 10.9102 20.75C11.5391 20.75 12.127 20.6338 12.6738 20.4014C13.2344 20.1689 13.7197 19.8477 14.1299 19.4375C14.54 19.0273 14.8613 18.5488 15.0938 18.002C15.3398 17.4551 15.4629 16.8672 15.4629 16.2383C15.4629 15.6094 15.3398 15.0215 15.0938 14.4746C14.8613 13.9277 14.54 13.4492 14.1299 13.0391C13.7197 12.6289 13.2344 12.3076 12.6738 12.0752C12.127 11.8428 11.5391 11.7266 10.9102 11.7266C10.2949 11.7266 9.71387 11.8428 9.16699 12.0752C8.62012 12.3076 8.13477 12.6289 7.71094 13.0391C7.30078 13.4492 6.97266 13.9277 6.72656 14.4746C6.49414 15.0215 6.37793 15.6094 6.37793 16.2383ZM24.5889 8.91699C24.5889 8.54785 24.6572 8.19922 24.7939 7.87109C24.9443 7.54297 25.1426 7.25586 25.3887 7.00977C25.6348 6.76367 25.9219 6.57227 26.25 6.43555C26.5781 6.28516 26.9268 6.20996 27.2959 6.20996C27.665 6.20996 28.0137 6.28516 28.3418 6.43555C28.6836 6.57227 28.9775 6.76367 29.2236 7.00977C29.4834 7.25586 29.6816 7.54297 29.8184 7.87109C29.9688 8.19922 30.0439 8.54785 30.0439 8.91699V16.5664C30.0439 17.168 30.1533 17.7285 30.3721 18.248C30.5908 18.7539 30.8916 19.1982 31.2744 19.5811C31.6709 19.9502 32.1289 20.2441 32.6484 20.4629C33.1816 20.668 33.749 20.7705 34.3506 20.7705C34.9521 20.7705 35.4922 20.6611 35.9707 20.4424C36.4492 20.2236 36.8525 19.9229 37.1807 19.54C37.5088 19.1572 37.7617 18.7061 37.9395 18.1865C38.1172 17.667 38.2061 17.1064 38.2061 16.5049V8.91699C38.2061 8.54785 38.2812 8.19922 38.4316 7.87109C38.582 7.54297 38.7803 7.25586 39.0264 7.00977C39.2861 6.76367 39.5869 6.57227 39.9287 6.43555C40.2705 6.28516 40.626 6.20996 40.9951 6.20996C41.3643 6.20996 41.7129 6.28516 42.041 6.43555C42.3691 6.57227 42.6494 6.76367 42.8818 7.00977C43.1279 7.25586 43.3193 7.54297 43.4561 7.87109C43.5928 8.19922 43.6611 8.54785 43.6611 8.91699V16.5049C43.6611 17.8447 43.4287 19.1025 42.9639 20.2783C42.499 21.4541 41.8496 22.4863 41.0156 23.375C40.1816 24.25 39.1973 24.9473 38.0625 25.4668C36.9277 25.9727 35.6904 26.2256 34.3506 26.2256C33.0107 26.2256 31.7461 25.9727 30.5566 25.4668C29.3672 24.9473 28.3281 24.25 27.4395 23.375C26.5645 22.4863 25.8672 21.4541 25.3477 20.2783C24.8418 19.1025 24.5889 17.8447 24.5889 16.5049V8.91699ZM52.4795 18.6787C52.917 19.3896 53.4844 19.9502 54.1816 20.3604C54.8789 20.7705 55.6445 20.9756 56.4785 20.9756C57.0117 20.9756 57.4355 20.9346 57.75 20.8525C58.0781 20.7568 58.3721 20.6338 58.6318 20.4834C58.9053 20.3057 59.1719 20.1826 59.4316 20.1143C59.7051 20.0322 59.9648 19.9912 60.2109 19.9912C60.5938 19.9912 60.9424 20.0664 61.2568 20.2168C61.585 20.3672 61.8652 20.5723 62.0977 20.832C62.3438 21.0918 62.5352 21.3926 62.6719 21.7344C62.8086 22.0762 62.877 22.4316 62.877 22.8008C62.877 23.2656 62.7471 23.71 62.4873 24.1338C62.2275 24.5439 61.8311 24.9062 61.2979 25.2207C60.7646 25.5215 60.0947 25.7676 59.2881 25.959C58.4951 26.1367 57.5586 26.2256 56.4785 26.2256C55.0977 26.2256 53.792 25.9658 52.5615 25.4463C51.3447 24.9131 50.2783 24.1953 49.3623 23.293C48.4463 22.3906 47.7217 21.3379 47.1885 20.1348C46.6553 18.918 46.3887 17.6191 46.3887 16.2383C46.3887 14.8438 46.6553 13.5381 47.1885 12.3213C47.7217 11.1045 48.4463 10.0449 49.3623 9.14258C50.2783 8.22656 51.3447 7.50879 52.5615 6.98926C53.792 6.46973 55.0977 6.20996 56.4785 6.20996C57.8457 6.20996 59.1309 6.46973 60.334 6.98926C61.5508 7.49512 62.6104 8.19922 63.5127 9.10156C64.4287 9.99023 65.1533 11.0361 65.6865 12.2393C66.2334 13.4424 66.5205 14.7275 66.5479 16.0947C66.5479 16.874 66.2949 17.5029 65.7891 17.9814C65.2969 18.4463 64.6543 18.6787 63.8613 18.6787H52.4795ZM60.9492 14.126C60.5664 13.3057 59.9922 12.6494 59.2266 12.1572C58.4609 11.665 57.5791 11.4189 56.5811 11.4189C55.5557 11.4189 54.6807 11.6787 53.9561 12.1982C53.2314 12.7041 52.6846 13.3467 52.3154 14.126H60.9492ZM78.3604 20.5449C78.4834 20.5449 78.6133 20.5312 78.75 20.5039C78.8867 20.4766 79.0098 20.4287 79.1191 20.3604C79.2285 20.292 79.3174 20.1963 79.3857 20.0732C79.4678 19.9502 79.5088 19.793 79.5088 19.6016C79.5088 19.3965 79.4678 19.2393 79.3857 19.1299C79.3174 19.0068 79.2217 18.918 79.0986 18.8633C78.9756 18.8086 78.8389 18.7744 78.6885 18.7607C78.5381 18.7471 78.3945 18.7402 78.2578 18.7402H74.9971C74.1084 18.7402 73.2881 18.5625 72.5361 18.207C71.7842 17.8516 71.1348 17.373 70.5879 16.7715C70.0547 16.1699 69.6309 15.4795 69.3164 14.7002C69.0156 13.9209 68.8652 13.1074 68.8652 12.2598C68.8652 11.4395 69.0225 10.6602 69.3369 9.92188C69.665 9.18359 70.1025 8.54102 70.6494 7.99414C71.21 7.44727 71.8594 7.0166 72.5977 6.70215C73.3496 6.37402 74.1494 6.20996 74.9971 6.20996H81.3545C81.7236 6.20996 82.0723 6.27148 82.4004 6.39453C82.7285 6.50391 83.0156 6.6748 83.2617 6.90723C83.5078 7.12598 83.6992 7.39941 83.8359 7.72754C83.9863 8.05566 84.0615 8.43164 84.0615 8.85547C84.0615 9.25195 83.9932 9.62109 83.8564 9.96289C83.7197 10.3047 83.5352 10.6055 83.3027 10.8652C83.084 11.1113 82.8174 11.3096 82.5029 11.46C82.1885 11.5967 81.8604 11.665 81.5186 11.665H81.3545H75.0996C74.9082 11.665 74.7305 11.7402 74.5664 11.8906C74.4023 12.0273 74.3203 12.2188 74.3203 12.4648C74.3203 12.7793 74.4023 12.9912 74.5664 13.1006C74.7441 13.21 74.9082 13.2646 75.0586 13.2646H78.791C79.6934 13.2646 80.5205 13.4424 81.2725 13.7979C82.0381 14.1533 82.6943 14.6318 83.2412 15.2334C83.7881 15.8213 84.2119 16.5049 84.5127 17.2842C84.8135 18.0635 84.9639 18.877 84.9639 19.7246C84.9639 20.5723 84.8135 21.3721 84.5127 22.124C84.2256 22.8623 83.8154 23.5186 83.2822 24.0928C82.7627 24.6533 82.1338 25.1045 81.3955 25.4463C80.6572 25.7881 79.8506 25.9727 78.9756 26H71.0186C70.6494 26 70.3145 25.9316 70.0137 25.7949C69.7129 25.6582 69.4463 25.4668 69.2139 25.2207C68.9951 24.9746 68.8242 24.6807 68.7012 24.3389C68.5781 23.9971 68.5166 23.6211 68.5166 23.2109C68.5166 22.3906 68.749 21.7412 69.2139 21.2627C69.6787 20.7842 70.2803 20.5449 71.0186 20.5449H78.3604ZM87.5479 2.96973C87.5479 2.58691 87.623 2.23145 87.7734 1.90332C87.9238 1.56152 88.1221 1.26758 88.3682 1.02148C88.6143 0.761719 88.9014 0.563477 89.2295 0.426758C89.5713 0.276367 89.9268 0.201172 90.2959 0.201172C90.665 0.201172 91.0205 0.276367 91.3623 0.426758C91.7178 0.563477 92.0254 0.754883 92.2852 1.00098C92.5449 1.24707 92.75 1.54102 92.9004 1.88281C93.0645 2.22461 93.1465 2.58691 93.1465 2.96973V5.59473H99.4424C99.8115 5.59473 100.16 5.66992 100.488 5.82031C100.83 5.95703 101.124 6.15527 101.37 6.41504C101.63 6.66113 101.828 6.95508 101.965 7.29688C102.115 7.625 102.19 7.97363 102.19 8.34277C102.19 8.71191 102.115 9.05371 101.965 9.36816C101.828 9.68262 101.63 9.96289 101.37 10.209C101.124 10.4414 100.83 10.626 100.488 10.7627C100.16 10.8994 99.8115 10.9678 99.4424 10.9678H93.1465V16.2793C93.1465 16.9082 93.2559 17.4961 93.4746 18.043C93.707 18.5898 94.0215 19.0684 94.418 19.4785C94.8145 19.8887 95.2793 20.21 95.8125 20.4424C96.3457 20.6748 96.9268 20.791 97.5557 20.791C98.1162 20.791 98.6357 20.7158 99.1143 20.5654C99.5928 20.415 100.017 20.1689 100.386 19.8271C100.687 19.5537 101.001 19.335 101.329 19.1709C101.671 18.9932 102.047 18.9043 102.457 18.9043C102.758 18.9043 103.059 18.9727 103.359 19.1094C103.66 19.2324 103.92 19.4102 104.139 19.6426C104.371 19.875 104.556 20.1484 104.692 20.4629C104.843 20.7637 104.918 21.0918 104.918 21.4473C104.918 21.8711 104.829 22.2881 104.651 22.6982C104.487 23.1084 104.248 23.4707 103.934 23.7852C103.086 24.6055 102.122 25.2207 101.042 25.6309C99.9619 26.041 98.7998 26.2461 97.5557 26.2461C96.1748 26.2461 94.876 25.9863 93.6592 25.4668C92.4424 24.9336 91.3828 24.2158 90.4805 23.3135C89.5781 22.4111 88.8604 21.3516 88.3271 20.1348C87.8076 18.918 87.5479 17.6191 87.5479 16.2383V2.96973ZM107.194 2.96973C107.194 2.58691 107.27 2.23145 107.42 1.90332C107.57 1.56152 107.769 1.26758 108.015 1.02148C108.261 0.761719 108.548 0.563477 108.876 0.426758C109.218 0.276367 109.573 0.201172 109.942 0.201172C110.312 0.201172 110.667 0.276367 111.009 0.426758C111.364 0.563477 111.672 0.754883 111.932 1.00098C112.191 1.24707 112.396 1.54102 112.547 1.88281C112.711 2.22461 112.793 2.58691 112.793 2.96973V5.59473H119.089C119.458 5.59473 119.807 5.66992 120.135 5.82031C120.477 5.95703 120.771 6.15527 121.017 6.41504C121.276 6.66113 121.475 6.95508 121.611 7.29688C121.762 7.625 121.837 7.97363 121.837 8.34277C121.837 8.71191 121.762 9.05371 121.611 9.36816C121.475 9.68262 121.276 9.96289 121.017 10.209C120.771 10.4414 120.477 10.626 120.135 10.7627C119.807 10.8994 119.458 10.9678 119.089 10.9678H112.793V16.2793C112.793 16.9082 112.902 17.4961 113.121 18.043C113.354 18.5898 113.668 19.0684 114.064 19.4785C114.461 19.8887 114.926 20.21 115.459 20.4424C115.992 20.6748 116.573 20.791 117.202 20.791C117.763 20.791 118.282 20.7158 118.761 20.5654C119.239 20.415 119.663 20.1689 120.032 19.8271C120.333 19.5537 120.647 19.335 120.976 19.1709C121.317 18.9932 121.693 18.9043 122.104 18.9043C122.404 18.9043 122.705 18.9727 123.006 19.1094C123.307 19.2324 123.566 19.4102 123.785 19.6426C124.018 19.875 124.202 20.1484 124.339 20.4629C124.489 20.7637 124.564 21.0918 124.564 21.4473C124.564 21.8711 124.476 22.2881 124.298 22.6982C124.134 23.1084 123.895 23.4707 123.58 23.7852C122.732 24.6055 121.769 25.2207 120.688 25.6309C119.608 26.041 118.446 26.2461 117.202 26.2461C115.821 26.2461 114.522 25.9863 113.306 25.4668C112.089 24.9336 111.029 24.2158 110.127 23.3135C109.225 22.4111 108.507 21.3516 107.974 20.1348C107.454 18.918 107.194 17.6191 107.194 16.2383V2.96973ZM126.472 8.91699C126.472 8.54785 126.54 8.19922 126.677 7.87109C126.827 7.54297 127.019 7.25586 127.251 7.00977C127.497 6.76367 127.784 6.57227 128.112 6.43555C128.454 6.28516 128.81 6.20996 129.179 6.20996C129.562 6.20996 129.917 6.28516 130.245 6.43555C130.573 6.57227 130.86 6.76367 131.106 7.00977C131.366 7.25586 131.564 7.54297 131.701 7.87109C131.852 8.19922 131.927 8.54785 131.927 8.91699V16.5664C131.927 17.168 132.036 17.7285 132.255 18.248C132.474 18.7539 132.774 19.1982 133.157 19.5811C133.54 19.9502 133.991 20.2441 134.511 20.4629C135.03 20.668 135.598 20.7705 136.213 20.7705C136.814 20.7705 137.375 20.6543 137.895 20.4219C138.414 20.1895 138.858 19.875 139.228 19.4785C139.61 19.082 139.911 18.624 140.13 18.1045C140.349 17.5713 140.458 17.0039 140.458 16.4023V8.91699C140.458 8.54785 140.533 8.19922 140.684 7.87109C140.848 7.54297 141.053 7.25586 141.299 7.00977C141.545 6.76367 141.839 6.57227 142.181 6.43555C142.522 6.28516 142.878 6.20996 143.247 6.20996C143.63 6.20996 143.979 6.28516 144.293 6.43555C144.621 6.57227 144.908 6.76367 145.154 7.00977C145.4 7.25586 145.585 7.54297 145.708 7.87109C145.845 8.19922 145.913 8.54785 145.913 8.91699V16.5049C145.913 17.626 145.735 18.6924 145.38 19.7041C145.038 20.7021 144.553 21.6113 143.924 22.4316C143.295 23.2383 142.55 23.9424 141.688 24.5439C140.827 25.1318 139.891 25.5762 138.879 25.877V30.3477C138.879 30.7441 138.811 31.1064 138.674 31.4346C138.537 31.7764 138.346 32.0703 138.1 32.3164C137.854 32.5625 137.566 32.7539 137.238 32.8906C136.91 33.0273 136.555 33.0957 136.172 33.0957C135.789 33.0957 135.427 33.0273 135.085 32.8906C134.743 32.7539 134.442 32.5625 134.183 32.3164C133.937 32.0703 133.745 31.7764 133.608 31.4346C133.472 31.1064 133.403 30.7441 133.403 30.3477V25.8359C132.392 25.5215 131.462 25.0635 130.614 24.4619C129.767 23.8604 129.035 23.1562 128.42 22.3496C127.805 21.5293 127.326 20.627 126.984 19.6426C126.643 18.6445 126.472 17.5986 126.472 16.5049V8.91699Z" fill="black"/>
</svg>
