<svg width="152" height="40" viewBox="0 0 152 40" fill="none" xmlns="http://www.w3.org/2000/svg">
<path d="M25.846 35.746C26.238 36.362 26.392 36.922 26.308 37.426C26.224 37.93 26 38.35 25.636 38.686C25.272 39.05 24.824 39.274 24.292 39.358C23.76 39.47 23.228 39.414 22.696 39.19C22.164 38.994 21.716 38.602 21.352 38.014L18.454 33.352C18.062 32.708 17.53 32.218 16.858 31.882C16.214 31.574 15.416 31.42 14.464 31.42L18.622 29.782C19.938 29.782 20.988 30.02 21.772 30.496C22.556 30.944 23.312 31.742 24.04 32.89L25.846 35.746ZM14.506 31.42C11.65 31.42 9.144 30.79 6.988 29.53C4.86 28.27 3.208 26.506 2.032 24.238C0.856 21.942 0.268 19.254 0.268 16.174C0.268 13.85 0.604 11.764 1.276 9.916C1.948 8.04 2.9 6.444 4.132 5.128C5.392 3.784 6.89 2.762 8.626 2.062C10.39 1.334 12.35 0.969999 14.506 0.969999C17.39 0.969999 19.896 1.6 22.024 2.86C24.152 4.092 25.804 5.842 26.98 8.11C28.156 10.378 28.744 13.052 28.744 16.132C28.744 18.456 28.408 20.556 27.736 22.432C27.064 24.308 26.098 25.918 24.838 27.262C23.606 28.606 22.108 29.642 20.344 30.37C18.608 31.07 16.662 31.42 14.506 31.42ZM14.506 26.8C16.326 26.8 17.866 26.38 19.126 25.54C20.414 24.7 21.394 23.482 22.066 21.886C22.766 20.29 23.116 18.386 23.116 16.174C23.116 12.814 22.36 10.21 20.848 8.362C19.364 6.514 17.25 5.59 14.506 5.59C12.714 5.59 11.174 6.01 9.886 6.85C8.598 7.662 7.604 8.866 6.904 10.462C6.232 12.03 5.896 13.934 5.896 16.174C5.896 19.506 6.652 22.11 8.164 23.986C9.676 25.862 11.79 26.8 14.506 26.8ZM41.1406 31.42C39.4326 31.42 38.0186 31.112 36.8986 30.496C35.7786 29.852 34.9386 28.9 34.3786 27.64C33.8466 26.38 33.5806 24.812 33.5806 22.936V12.772C33.5806 11.876 33.8046 11.218 34.2526 10.798C34.7006 10.35 35.3446 10.126 36.1846 10.126C37.0246 10.126 37.6686 10.35 38.1166 10.798C38.5926 11.218 38.8306 11.876 38.8306 12.772V23.02C38.8306 24.476 39.1246 25.554 39.7126 26.254C40.3006 26.954 41.2386 27.304 42.5266 27.304C43.9266 27.304 45.0746 26.828 45.9706 25.876C46.8666 24.896 47.3146 23.608 47.3146 22.012V12.772C47.3146 11.876 47.5386 11.218 47.9866 10.798C48.4346 10.35 49.0786 10.126 49.9186 10.126C50.7586 10.126 51.4026 10.35 51.8506 10.798C52.3266 11.218 52.5646 11.876 52.5646 12.772V28.648C52.5646 30.44 51.7106 31.336 50.0026 31.336C49.1906 31.336 48.5606 31.112 48.1126 30.664C47.6646 30.188 47.4406 29.516 47.4406 28.648V25.456L48.0286 26.716C47.4406 28.228 46.5446 29.39 45.3406 30.202C44.1646 31.014 42.7646 31.42 41.1406 31.42ZM68.1508 31.42C65.8268 31.42 63.8248 30.986 62.1448 30.118C60.4648 29.25 59.1628 28.018 58.2388 26.422C57.3428 24.826 56.8948 22.936 56.8948 20.752C56.8948 18.624 57.3288 16.762 58.1968 15.166C59.0928 13.57 60.3108 12.324 61.8508 11.428C63.4188 10.504 65.1968 10.042 67.1848 10.042C68.6408 10.042 69.9428 10.28 71.0908 10.756C72.2668 11.232 73.2608 11.918 74.0728 12.814C74.9128 13.71 75.5428 14.802 75.9628 16.09C76.4108 17.35 76.6348 18.778 76.6348 20.374C76.6348 20.878 76.4528 21.27 76.0888 21.55C75.7528 21.802 75.2628 21.928 74.6188 21.928H61.1368V18.904H72.9388L72.2668 19.534C72.2668 18.246 72.0708 17.168 71.6788 16.3C71.3148 15.432 70.7688 14.774 70.0408 14.326C69.3408 13.85 68.4588 13.612 67.3948 13.612C66.2188 13.612 65.2108 13.892 64.3708 14.452C63.5588 14.984 62.9288 15.754 62.4808 16.762C62.0608 17.742 61.8508 18.918 61.8508 20.29V20.584C61.8508 22.88 62.3828 24.602 63.4468 25.75C64.5388 26.87 66.1348 27.43 68.2348 27.43C68.9628 27.43 69.7748 27.346 70.6708 27.178C71.5948 26.982 72.4628 26.66 73.2748 26.212C73.8628 25.876 74.3808 25.736 74.8288 25.792C75.2768 25.82 75.6268 25.974 75.8788 26.254C76.1588 26.534 76.3268 26.884 76.3828 27.304C76.4388 27.696 76.3548 28.102 76.1308 28.522C75.9348 28.942 75.5848 29.306 75.0808 29.614C74.1008 30.23 72.9668 30.692 71.6788 31C70.4188 31.28 69.2428 31.42 68.1508 31.42ZM88.3105 31.42C87.1065 31.42 85.8325 31.294 84.4885 31.042C83.1445 30.79 81.9405 30.356 80.8765 29.74C80.4285 29.46 80.1065 29.138 79.9105 28.774C79.7425 28.382 79.6725 28.004 79.7005 27.64C79.7565 27.248 79.8965 26.912 80.1205 26.632C80.3725 26.352 80.6805 26.17 81.0445 26.086C81.4365 26.002 81.8565 26.072 82.3045 26.296C83.4245 26.828 84.4745 27.206 85.4545 27.43C86.4345 27.626 87.4005 27.724 88.3525 27.724C89.6965 27.724 90.6905 27.5 91.3345 27.052C92.0065 26.576 92.3425 25.96 92.3425 25.204C92.3425 24.56 92.1185 24.07 91.6705 23.734C91.2505 23.37 90.6065 23.104 89.7385 22.936L85.5385 22.138C83.8025 21.802 82.4725 21.172 81.5485 20.248C80.6525 19.296 80.2045 18.078 80.2045 16.594C80.2045 15.25 80.5685 14.088 81.2965 13.108C82.0525 12.128 83.0885 11.372 84.4045 10.84C85.7205 10.308 87.2325 10.042 88.9405 10.042C90.1725 10.042 91.3205 10.182 92.3845 10.462C93.4765 10.714 94.5265 11.12 95.5345 11.68C95.9545 11.904 96.2345 12.198 96.3745 12.562C96.5425 12.926 96.5845 13.304 96.5005 13.696C96.4165 14.06 96.2485 14.396 95.9965 14.704C95.7445 14.984 95.4225 15.166 95.0305 15.25C94.6665 15.306 94.2465 15.222 93.7705 14.998C92.9025 14.55 92.0625 14.228 91.2505 14.032C90.4665 13.836 89.7105 13.738 88.9825 13.738C87.6105 13.738 86.5885 13.976 85.9165 14.452C85.2725 14.928 84.9505 15.558 84.9505 16.342C84.9505 16.93 85.1465 17.42 85.5385 17.812C85.9305 18.204 86.5325 18.47 87.3445 18.61L91.5445 19.408C93.3645 19.744 94.7365 20.36 95.6605 21.256C96.6125 22.152 97.0885 23.356 97.0885 24.868C97.0885 26.912 96.2905 28.522 94.6945 29.698C93.0985 30.846 90.9705 31.42 88.3105 31.42ZM110.503 31.42C108.683 31.42 107.157 31.112 105.925 30.496C104.721 29.88 103.825 28.984 103.237 27.808C102.649 26.604 102.355 25.12 102.355 23.356V14.41H100.171C99.4992 14.41 98.9812 14.242 98.6172 13.906C98.2532 13.542 98.0712 13.052 98.0712 12.436C98.0712 11.792 98.2532 11.302 98.6172 10.966C98.9812 10.63 99.4992 10.462 100.171 10.462H102.355V6.64C102.355 5.772 102.579 5.114 103.027 4.666C103.503 4.218 104.161 3.994 105.001 3.994C105.841 3.994 106.485 4.218 106.933 4.666C107.381 5.114 107.605 5.772 107.605 6.64V10.462H112.057C112.729 10.462 113.247 10.63 113.611 10.966C113.975 11.302 114.157 11.792 114.157 12.436C114.157 13.052 113.975 13.542 113.611 13.906C113.247 14.242 112.729 14.41 112.057 14.41H107.605V23.062C107.605 24.406 107.899 25.414 108.487 26.086C109.075 26.758 110.027 27.094 111.343 27.094C111.819 27.094 112.239 27.052 112.603 26.968C112.967 26.884 113.289 26.828 113.569 26.8C113.905 26.772 114.185 26.884 114.409 27.136C114.633 27.36 114.745 27.836 114.745 28.564C114.745 29.124 114.647 29.628 114.451 30.076C114.283 30.496 113.961 30.79 113.485 30.958C113.121 31.07 112.645 31.168 112.057 31.252C111.469 31.364 110.951 31.42 110.503 31.42ZM125.433 31.42C123.613 31.42 122.087 31.112 120.855 30.496C119.651 29.88 118.755 28.984 118.167 27.808C117.579 26.604 117.285 25.12 117.285 23.356V14.41H115.101C114.429 14.41 113.911 14.242 113.547 13.906C113.183 13.542 113.001 13.052 113.001 12.436C113.001 11.792 113.183 11.302 113.547 10.966C113.911 10.63 114.429 10.462 115.101 10.462H117.285V6.64C117.285 5.772 117.509 5.114 117.957 4.666C118.433 4.218 119.091 3.994 119.931 3.994C120.771 3.994 121.415 4.218 121.863 4.666C122.311 5.114 122.535 5.772 122.535 6.64V10.462H126.987C127.659 10.462 128.177 10.63 128.541 10.966C128.905 11.302 129.087 11.792 129.087 12.436C129.087 13.052 128.905 13.542 128.541 13.906C128.177 14.242 127.659 14.41 126.987 14.41H122.535V23.062C122.535 24.406 122.829 25.414 123.417 26.086C124.005 26.758 124.957 27.094 126.273 27.094C126.749 27.094 127.169 27.052 127.533 26.968C127.897 26.884 128.219 26.828 128.499 26.8C128.835 26.772 129.115 26.884 129.339 27.136C129.563 27.36 129.675 27.836 129.675 28.564C129.675 29.124 129.577 29.628 129.381 30.076C129.213 30.496 128.891 30.79 128.415 30.958C128.051 31.07 127.575 31.168 126.987 31.252C126.399 31.364 125.881 31.42 125.433 31.42ZM137.68 38.896C137.064 38.896 136.56 38.728 136.168 38.392C135.776 38.084 135.538 37.664 135.454 37.132C135.398 36.6 135.496 36.04 135.748 35.452L138.604 29.11V31.294L130.96 13.612C130.708 12.996 130.624 12.422 130.708 11.89C130.792 11.358 131.044 10.938 131.464 10.63C131.912 10.294 132.514 10.126 133.27 10.126C133.914 10.126 134.432 10.28 134.824 10.588C135.216 10.868 135.566 11.414 135.874 12.226L141.544 26.38H140.284L146.08 12.184C146.388 11.4 146.752 10.868 147.172 10.588C147.592 10.28 148.152 10.126 148.852 10.126C149.468 10.126 149.958 10.294 150.322 10.63C150.686 10.938 150.91 11.358 150.994 11.89C151.078 12.394 150.98 12.954 150.7 13.57L140.494 36.88C140.13 37.664 139.738 38.196 139.318 38.476C138.898 38.756 138.352 38.896 137.68 38.896Z" fill="black"/>
</svg>
