<svg width="110" height="37" viewBox="0 0 110 37" fill="none" xmlns="http://www.w3.org/2000/svg">
<path d="M28.6904 15.3064C28.6904 23.7121 22.2679 30.5262 14.3452 30.5262C6.42256 30.5262 0 23.7121 0 15.3064C0 6.90078 6.42256 0.0866699 14.3452 0.0866699C22.2679 0.0866699 28.6904 6.90078 28.6904 15.3064ZM4.34192 15.3064C4.34192 21.1679 8.82055 25.9196 14.3452 25.9196C19.8699 25.9196 24.3485 21.1679 24.3485 15.3064C24.3485 9.44496 19.8699 4.69329 14.3452 4.69329C8.82055 4.69329 4.34192 9.44496 4.34192 15.3064Z" fill="black"/>
<path d="M21.1181 26.7283C20.2877 25.7846 20.3357 24.3053 21.2252 23.4243C22.1147 22.5433 23.509 22.5941 24.3394 23.5379L31.9205 32.1538C32.7509 33.0976 32.703 34.5768 31.8134 35.4579C30.9239 36.3389 29.5297 36.288 28.6993 35.3443L21.1181 26.7283Z" fill="black"/>
<path d="M37.3661 23.5842C35.1461 23.5842 33.5477 23.1131 32.5707 22.1709C31.5938 21.2153 31.1055 19.6876 31.1055 17.5879V12.3386L31.1245 10.2995L31.1055 9.08813H35.368V16.5784C35.368 17.1976 35.4125 17.7494 35.5013 18.234C35.59 18.7051 35.7803 19.0752 36.0721 19.3444C36.364 19.6136 36.8078 19.7482 37.4042 19.7482C38.0131 19.7482 38.4634 19.627 38.7553 19.3848C39.0472 19.1425 39.2375 18.7858 39.3262 18.3147C39.4149 17.8436 39.4594 17.2649 39.4594 16.5784V9.08813H43.6268V17.5879C43.6268 18.9608 43.4175 20.0914 42.9988 20.9797C42.5802 21.8546 41.9142 22.5074 41.0007 22.9381C40.0873 23.3688 38.8759 23.5842 37.3661 23.5842ZM46.0971 23.3823L45.7165 22.1709L46.0971 20.152V9.08813H55.8972L56.8487 9.69381L55.5928 13.126L53.8801 12.9241H50.3216V14.5393H55.0219V17.8706H52.3958L50.3216 17.6687V19.5463H55.5928L57.8572 22.0902L56.7345 23.3823H46.0971ZM64.0465 23.5842C63.3485 23.5842 62.6573 23.5169 61.9723 23.3823C61.2998 23.2611 60.7035 23.0996 60.1835 22.8977C59.6633 22.6958 59.2891 22.4939 59.0608 22.292V18.0724C59.5427 18.3551 60.0819 18.6108 60.6783 18.8396C61.2743 19.0685 61.8771 19.2502 62.4861 19.3848C63.1076 19.5059 63.6975 19.5665 64.2558 19.5665C65.0296 19.5665 65.4166 19.378 65.4166 19.0012C65.4166 18.8127 65.334 18.6579 65.1692 18.5368C65.017 18.4022 64.7441 18.2609 64.3509 18.1128C63.9575 17.9648 63.3995 17.7763 62.6764 17.5475C61.8391 17.2649 61.1221 16.9688 60.526 16.6592C59.9423 16.3496 59.492 15.9526 59.175 15.468C58.8705 14.9835 58.7183 14.3374 58.7183 13.5298C58.7183 12.13 59.2446 11.0061 60.2977 10.1582C61.3505 9.31021 62.8918 8.88623 64.9218 8.88623C65.3276 8.88623 65.7591 8.90642 66.2158 8.9468C66.6851 8.97373 67.0593 9.01411 67.3386 9.06794L69.6792 10.7437L68.7277 13.8125L63.8562 12.5001C63.3485 12.5001 63.095 12.6819 63.095 13.0453C63.095 13.3279 63.2534 13.5635 63.5707 13.7519C63.9004 13.9269 64.4903 14.1691 65.3405 14.4787C66.4694 14.8825 67.3637 15.2997 68.0236 15.7305C68.6958 16.1477 69.178 16.6255 69.4698 17.1639C69.7614 17.7023 69.9075 18.3416 69.9075 19.0819C69.9075 20.4279 69.4189 21.5181 68.4423 22.3526C67.4653 23.1736 66.0001 23.5842 64.0465 23.5842ZM74.8894 23.3823V12.9443L71.0835 13.1462V9.08813H82.9769V13.1462L79.0759 12.9443V20.152L79.2852 22.1709L79.0759 23.3823H74.8894ZM87.5445 23.3823V12.9443L83.7386 13.1462V9.08813H95.632V13.1462L91.731 12.9443V20.152L91.9403 22.1709L91.731 23.3823H87.5445ZM101.018 23.3823V17.5273L96.2989 10.2995V9.08813H101.075L102.978 13.2472H103.359L105.243 9.08813H110V10.2995L105.148 17.6485L105.262 19.6876V23.3823H101.018Z" fill="black"/>
</svg>
