<svg width="86" height="34" viewBox="0 0 86 34" fill="none" xmlns="http://www.w3.org/2000/svg">
<rect x="0.5" y="0.5" width="85" height="31.7042" rx="6.5" stroke="black"/>
<path d="M50.044 11.418H40.918C40.918 13.704 40.918 15.81 40.918 18.078H45.688C46.984 18.078 48.406 18.492 48.388 19.914C48.388 21.408 46.93 21.948 45.778 21.948C44.59 21.948 43.006 21.588 43.006 20.202H40.648C40.666 23.154 43.042 24.144 45.814 24.144C48.352 24.144 50.746 22.776 50.746 19.914C50.764 16.962 48.37 15.864 45.688 15.864H43.24V13.65H50.044V11.418ZM57.1163 18.438C58.7003 18.438 60.0503 18.996 60.0683 20.238C60.0863 21.228 59.0423 22.128 57.1163 22.128C55.1903 22.128 54.1463 21.21 54.1643 20.238C54.1823 18.996 55.6403 18.438 57.1163 18.438ZM51.6803 20.202C51.6263 23.154 54.3623 24.27 57.0983 24.288C59.9063 24.306 62.6063 23.136 62.5523 20.202C62.5343 19.23 61.9403 17.916 60.6443 17.394C61.7783 16.926 62.2643 15.882 62.2643 15.018C62.2643 12.498 59.8163 11.184 57.0983 11.184C54.3623 11.184 52.0223 12.48 52.0223 15.018C52.0223 15.99 52.5263 16.926 53.6063 17.502C52.3103 18.024 51.6983 19.23 51.6803 20.202ZM54.4523 14.946C54.4163 14.082 55.3163 13.164 57.0983 13.164C58.7003 13.164 59.8163 13.884 59.7803 14.946C59.7443 16.044 58.5743 16.71 57.1163 16.71C55.7303 16.71 54.4883 16.044 54.4523 14.946ZM69.0271 18.51C71.2951 18.51 71.7091 19.446 71.7091 20.202C71.7091 21.552 70.1071 22.056 68.9011 22.056C67.8751 22.056 66.1291 21.606 66.1291 20.31H63.7351C63.7531 23.172 66.4891 24.18 68.8831 24.18C71.3131 24.18 74.2111 23.262 74.2111 20.184C74.2111 19.122 73.3651 17.934 72.1591 17.538C73.2571 17.196 73.9051 16.044 73.9051 15.054C73.8871 12.372 71.3311 11.22 68.9551 11.22C66.6331 11.22 63.9331 12.21 63.9331 14.928H66.3091C66.3091 13.776 67.8211 13.38 68.9371 13.38C70.9531 13.38 71.5291 14.334 71.5291 15.054C71.5111 16.224 70.1611 16.566 68.8831 16.566H67.0651V18.51H69.0271Z" fill="black"/>
<path d="M17.5794 10.3183C18.4068 7.84426 21.9305 7.84426 22.7579 10.3183C23.2564 11.8087 24.6567 12.8236 26.2316 12.8202L26.4293 12.8198C28.9664 12.8145 29.9972 16.0825 27.9161 17.5337C26.6043 18.4485 26.0586 20.1249 26.572 21.6373C27.3922 24.0533 24.6511 26.1093 22.5797 24.6514L22.3166 24.4662C21.0282 23.5594 19.3092 23.5594 18.0208 24.4662L17.7577 24.6514C15.6862 26.1093 12.9452 24.0533 13.7653 21.6373C14.2787 20.1249 13.733 18.4485 12.4213 17.5337C10.3402 16.0825 11.371 12.8145 13.9081 12.8198L14.1058 12.8202C15.6807 12.8236 17.081 11.8087 17.5794 10.3183Z" fill="#FABD2E" stroke="black"/>
</svg>
