<svg width="119" height="104" viewBox="0 0 119 104" fill="none" xmlns="http://www.w3.org/2000/svg">
<path d="M50.7192 29.2859C53.6888 20.4189 66.3112 20.4189 69.2808 29.2859C70.7201 33.5836 74.7593 36.5081 79.2951 36.4986L79.9478 36.4972C89.085 36.478 92.7938 48.2497 85.2957 53.4715C81.5198 56.1012 79.9469 60.9282 81.4271 65.2827C84.3719 73.9459 74.5457 81.3724 67.0753 76.1218L66.2062 75.5109C62.4826 72.8938 57.5174 72.8938 53.7938 75.5109L52.9247 76.1218C45.4543 81.3724 35.6281 73.9459 38.5729 65.2827C40.0531 60.9282 38.4802 56.1012 34.7043 53.4715C27.2063 48.2497 30.915 36.478 40.0522 36.4972L40.7049 36.4986C45.2407 36.5081 49.2799 33.5836 50.7192 29.2859Z" fill="#FABD2E" stroke="#10162F"/>
<path d="M94.0905 58.6409C95.187 55.3989 99.813 55.3989 100.91 58.6409C101.524 60.4571 103.235 61.6958 105.156 61.6918L105.482 61.6911C108.79 61.6842 110.124 65.9526 107.401 67.8305C105.788 68.9431 105.117 71.0013 105.753 72.8524C106.832 75.998 103.275 78.6998 100.565 76.8136L100.128 76.5101C98.5486 75.4106 96.4514 75.4106 94.8715 76.5101L94.4354 76.8136C91.7252 78.6998 88.1675 75.998 89.2474 72.8524C89.8829 71.0013 89.2124 68.9431 87.599 67.8305C84.8757 65.9526 86.2096 61.6842 89.5175 61.6911L89.8435 61.6918C91.7652 61.6958 93.4761 60.4571 94.0905 58.6409Z" fill="#FABD2E" stroke="#10162F"/>
<path d="M18.0905 58.6409C19.187 55.3989 23.813 55.3989 24.9095 58.6409C25.5239 60.4571 27.2348 61.6958 29.1565 61.6918L29.4825 61.6911C32.7904 61.6842 34.1243 65.9526 31.401 67.8305C29.7876 68.9431 29.1171 71.0013 29.7526 72.8524C30.8325 75.998 27.2748 78.6998 24.5646 76.8136L24.1285 76.5101C22.5486 75.4106 20.4514 75.4106 18.8715 76.5101L18.4354 76.8136C15.7252 78.6998 12.1675 75.998 13.2474 72.8524C13.8829 71.0013 13.2124 68.9431 11.599 67.8305C8.87568 65.9526 10.2096 61.6842 13.5175 61.6911L13.8435 61.6918C15.7652 61.6958 17.4761 60.4571 18.0905 58.6409Z" fill="#FABD2E" stroke="#10162F"/>
<path d="M50 55.5L57.2727 63C60.695 53.1693 63.5451 48.8554 70 43" stroke="#10162F" stroke-width="1.5" stroke-linecap="round" stroke-linejoin="round"/>
</svg>
